VelekaWorld-SemiBold.ufo
<glyph name="exclam" format="2">
  <advance width="338"/>
  <unicode hex="0021"/>
  <outline>
    <contour>
      <point x="96" y="63.3333" type="curve" smooth="yes"/>
      <point x="96" y="110"/>
      <point x="133.667" y="136.333"/>
      <point x="170.333" y="136.333" type="curve" smooth="yes"/>
      <point x="206.667" y="136.333"/>
      <point x="244.333" y="107.667"/>
      <point x="244.333" y="63.3333" type="curve" smooth="yes"/>
      <point x="244.333" y="21"/>
      <point x="210.667" y="-12"/>
      <point x="170.333" y="-12" type="curve" smooth="yes"/>
      <point x="136.667" y="-12"/>
      <point x="96" y="12.3333"/>
    </contour>
    <contour>
      <point x="95.3333" y="611.333" type="line"/>
      <point x="95.3333" y="662.123"/>
      <point x="126.23" y="686.667"/>
      <point x="170" y="686.667" type="curve" smooth="yes"/>
      <point x="214" y="686.667"/>
      <point x="244.333" y="662.667"/>
      <point x="244.333" y="611" type="curve"/>
      <point x="196.667" y="198.667" type="line"/>
      <point x="144.333" y="198.667" type="line"/>
    </contour>
  </outline>
</glyph>
<glyph name="percent" format="2">
  <advance width="882"/>
  <unicode hex="0025"/>
  <outline>
    <contour>
      <point x="29.3333" y="477" type="curve" smooth="yes"/>
      <point x="29.3333" y="601.333"/>
      <point x="82" y="686.667"/>
      <point x="195.333" y="686.667" type="curve" smooth="yes"/>
      <point x="308.667" y="686.667"/>
      <point x="360.333" y="601.333"/>
      <point x="360.333" y="477.333" type="curve" smooth="yes"/>
      <point x="360.333" y="353.333"/>
      <point x="308.333" y="267"/>
      <point x="195.333" y="267" type="curve" smooth="yes"/>
      <point x="82" y="267"/>
      <point x="29.3333" y="353"/>
    </contour>
    <contour>
      <point x="122" y="477" type="curve" smooth="yes"/>
      <point x="122" y="370"/>
      <point x="147.333" y="311.333"/>
      <point x="195.667" y="311.333" type="curve" smooth="yes"/>
      <point x="243" y="311.333"/>
      <point x="263" y="371"/>
      <point x="263" y="477.333" type="curve" smooth="yes"/>
      <point x="263" y="583.667"/>
      <point x="242.667" y="642.333"/>
      <point x="195.667" y="642.333" type="curve" smooth="yes"/>
      <point x="147.333" y="642.333"/>
      <point x="122" y="583.667"/>
    </contour>
    <contour>
      <point x="197.667" y="-0.333333" type="line"/>
      <point x="616" y="670.667" type="line"/>
      <point x="684.667" y="670.667" type="line"/>
      <point x="266" y="-0.333333" type="line"/>
    </contour>
    <contour>
      <point x="521.333" y="193" type="curve" smooth="yes"/>
      <point x="521.333" y="316.667"/>
      <point x="573.333" y="402.333"/>
      <point x="686.333" y="402.333" type="curve" smooth="yes"/>
      <point x="799.333" y="402.333"/>
      <point x="852" y="317"/>
      <point x="852" y="193" type="curve" smooth="yes"/>
      <point x="852" y="70"/>
      <point x="798.333" y="-16.3333"/>
      <point x="685.667" y="-16.3333" type="curve" smooth="yes"/>
      <point x="572.333" y="-16.3333"/>
      <point x="521.333" y="68.6667"/>
    </contour>
    <contour>
      <point x="614.667" y="193" type="curve" smooth="yes"/>
      <point x="614.667" y="86"/>
      <point x="638.667" y="27.3333"/>
      <point x="686.333" y="27.3333" type="curve" smooth="yes"/>
      <point x="734.667" y="27.3333"/>
      <point x="753.667" y="86.6667"/>
      <point x="753.667" y="193" type="curve" smooth="yes"/>
      <point x="753.667" y="299.333"/>
      <point x="734.333" y="358.333"/>
      <point x="686.333" y="358.333" type="curve" smooth="yes"/>
      <point x="638.667" y="358.333"/>
      <point x="614.667" y="299.333"/>
    </contour>
  </outline>
</glyph>
<glyph name="ampersand" format="2">
  <advance width="722"/>
  <unicode hex="0026"/>
  <outline>
    <contour>
      <point x="38" y="184" type="curve" smooth="yes"/>
      <point x="38" y="279.667"/>
      <point x="97.3333" y="329.667"/>
      <point x="176.667" y="357.333" type="curve"/>
      <point x="126.7" y="392.204"/>
      <point x="87" y="461.074"/>
      <point x="87" y="514.333" type="curve" smooth="yes"/>
      <point x="87" y="624"/>
      <point x="180.667" y="684"/>
      <point x="295" y="684" type="curve" smooth="yes"/>
      <point x="379" y="684"/>
      <point x="485.667" y="643.333"/>
      <point x="485.667" y="529.333" type="curve" smooth="yes"/>
      <point x="485.667" y="406"/>
      <point x="369" y="372.667"/>
      <point x="336.667" y="361" type="curve"/>
      <point x="495.333" y="194" type="line"/>
      <point x="512.333" y="217"/>
      <point x="531.667" y="253.667"/>
      <point x="548.333" y="297" type="curve"/>
      <point x="551.333" y="304"/>
      <point x="552.333" y="308"/>
      <point x="552.333" y="312" type="curve" smooth="yes"/>
      <point x="552.333" y="317.667"/>
      <point x="544" y="324"/>
      <point x="538.667" y="325" type="curve"/>
      <point x="484.667" y="333.667" type="line"/>
      <point x="484.667" y="379" type="line"/>
      <point x="693" y="379" type="line"/>
      <point x="693" y="333.667" type="line"/>
      <point x="623" y="320.667" type="line"/>
      <point x="595.667" y="229"/>
      <point x="544.333" y="169.667"/>
      <point x="532.667" y="153.667" type="curve"/>
      <point x="622.333" y="55.3333" type="line"/>
      <point x="706" y="48.3333" type="line"/>
      <point x="706" y="0" type="line"/>
      <point x="499.333" y="0" type="line"/>
      <point x="499.333" y="24" type="line"/>
      <point x="456.333" y="72" type="line"/>
      <point x="441" y="56.6667"/>
      <point x="367.667" y="-13"/>
      <point x="251" y="-13" type="curve" smooth="yes"/>
      <point x="125.333" y="-13"/>
      <point x="38" y="65.6667"/>
    </contour>
    <contour>
      <point x="162" y="223" type="curve" smooth="yes"/>
      <point x="162" y="117.333"/>
      <point x="232" y="67"/>
      <point x="308.333" y="67" type="curve" smooth="yes"/>
      <point x="374" y="67"/>
      <point x="406.667" y="102.667"/>
      <point x="418" y="112.333" type="curve"/>
      <point x="217" y="323.333" type="line"/>
      <point x="204.667" y="315.333"/>
      <point x="162" y="285"/>
    </contour>
    <contour>
      <point x="205" y="544.333" type="curve" smooth="yes"/>
      <point x="205" y="492"/>
      <point x="241" y="448.333"/>
      <point x="299.333" y="396" type="curve"/>
      <point x="344" y="429"/>
      <point x="372.667" y="462.667"/>
      <point x="372.667" y="525.667" type="curve" smooth="yes"/>
      <point x="372.667" y="583"/>
      <point x="341.667" y="627.667"/>
      <point x="288.333" y="627.667" type="curve" smooth="yes"/>
      <point x="239.333" y="627.667"/>
      <point x="205" y="593.333"/>
    </contour>
  </outline>
</glyph>
<glyph name="quotesingle" format="2">
  <advance width="173"/>
  <unicode hex="0027"/>
  <outline>
    <contour>
      <point x="35" y="655.667" type="line"/>
      <point x="35" y="690"/>
      <point x="50" y="714"/>
      <point x="87" y="714" type="curve" smooth="yes"/>
      <point x="123.333" y="714"/>
      <point x="140" y="690"/>
      <point x="140" y="655.667" type="curve"/>
      <point x="102" y="418.333" type="line"/>
      <point x="72.6667" y="418.333" type="line"/>
    </contour>
  </outline>
</glyph>
<glyph name="parenright" format="2">
  <advance width="386"/>
  <unicode hex="0029"/>
  <outline>
    <contour>
      <point x="34" y="-142" type="curve"/>
      <point x="34" y="-91.3333" type="line"/>
      <point x="171.055" y="-71.3378"/>
      <point x="212" y="69.9415"/>
      <point x="212" y="288.333" type="curve" smooth="yes"/>
      <point x="212" y="505.697"/>
      <point x="170.801" y="646.619"/>
      <point x="34" y="666.667" type="curve"/>
      <point x="34" y="717.333" type="line"/>
      <point x="226.378" y="706.144"/>
      <point x="328" y="548.363"/>
      <point x="328" y="288.333" type="curve" smooth="yes"/>
      <point x="328" y="27.4759"/>
      <point x="226.634" y="-131.482"/>
    </contour>
  </outline>
</glyph>
<glyph name="plus" format="2">
  <advance width="1000"/>
  <unicode hex="002B"/>
  <outline>
    <contour>
      <point x="200" y="269" type="line"/>
      <point x="200" y="331" type="line"/>
      <point x="469" y="331" type="line"/>
      <point x="469" y="600" type="line"/>
      <point x="531" y="600" type="line"/>
      <point x="531" y="331" type="line"/>
      <point x="800" y="331" type="line"/>
      <point x="800" y="269" type="line"/>
      <point x="531" y="269" type="line"/>
      <point x="531" y="0" type="line"/>
      <point x="469" y="0" type="line"/>
      <point x="469" y="269" type="line"/>
    </contour>
  </outline>
</glyph>
<glyph name="comma" format="2">
  <advance width="304"/>
  <unicode hex="002C"/>
  <outline>
    <contour>
      <point x="34.3333" y="-129.333" type="line"/>
      <point x="91.6667" y="-118.667"/>
      <point x="151" y="-70.3333"/>
      <point x="151" y="7" type="curve"/>
      <point x="89.3333" y="7" type="line"/>
      <point x="70" y="23"/>
      <point x="62.6667" y="45"/>
      <point x="62.6667" y="65" type="curve" smooth="yes"/>
      <point x="62.6667" y="110.333"/>
      <point x="91.2896" y="144"/>
      <point x="145.333" y="144" type="curve" smooth="yes"/>
      <point x="201.631" y="144"/>
      <point x="230.667" y="105.342"/>
      <point x="230.667" y="51" type="curve" smooth="yes"/>
      <point x="230.667" y="-70.4283"/>
      <point x="130" y="-166.215"/>
      <point x="34.3333" y="-174" type="curve"/>
    </contour>
  </outline>
</glyph>
<glyph name="period" format="2">
  <advance width="304"/>
  <unicode hex="002E"/>
  <outline>
    <contour>
      <point x="62.3333" y="65.6074" type="curve" smooth="yes"/>
      <point x="62.3333" y="108.928"/>
      <point x="97.4051" y="144"/>
      <point x="140.649" y="144" type="curve" smooth="yes"/>
      <point x="184.574" y="144"/>
      <point x="218.333" y="108.907"/>
      <point x="218.333" y="65.6667" type="curve" smooth="yes"/>
      <point x="218.333" y="22.4265"/>
      <point x="184.574" y="-12"/>
      <point x="140.59" y="-12" type="curve" smooth="yes"/>
      <point x="97.3333" y="-12"/>
      <point x="62.3333" y="22.3333"/>
    </contour>
  </outline>
</glyph>
<glyph name="slash" format="2">
  <advance width="497"/>
  <unicode hex="002F"/>
  <outline>
    <contour>
      <point x="0" y="-93" type="line"/>
      <point x="423.333" y="671" type="line"/>
      <point x="497.333" y="671" type="line"/>
      <point x="73.3333" y="-93" type="line"/>
    </contour>
  </outline>
</glyph>
<glyph name="zero" format="2">
  <advance width="578"/>
  <unicode hex="0030"/>
  <outline>
    <contour>
      <point x="37.3333" y="335" type="curve" smooth="yes"/>
      <point x="37.3333" y="508"/>
      <point x="106.333" y="684.333"/>
      <point x="289" y="684.333" type="curve" smooth="yes"/>
      <point x="472" y="684.333"/>
      <point x="541" y="511.667"/>
      <point x="542" y="335" type="curve"/>
      <point x="541.667" y="160.333"/>
      <point x="472" y="-13.6667"/>
      <point x="289" y="-13.6667" type="curve" smooth="yes"/>
      <point x="108" y="-13.6667"/>
      <point x="37.3333" y="157"/>
    </contour>
    <contour>
      <point x="169.667" y="335" type="curve" smooth="yes"/>
      <point x="169.667" y="249.333"/>
      <point x="175" y="42.6667"/>
      <point x="289" y="42.6667" type="curve" smooth="yes"/>
      <point x="403" y="42.6667"/>
      <point x="409.333" y="247"/>
      <point x="409.667" y="335" type="curve"/>
      <point x="409.667" y="420.333"/>
      <point x="403" y="629"/>
      <point x="288.667" y="629" type="curve" smooth="yes"/>
      <point x="175.333" y="629"/>
      <point x="169.667" y="423"/>
    </contour>
  </outline>
</glyph>
<glyph name="three" format="2">
  <advance width="578"/>
  <unicode hex="0033"/>
  <outline>
    <contour>
      <point x="44.3333" y="111" type="curve" smooth="yes"/>
      <point x="44.3333" y="150"/>
      <point x="71.3333" y="175"/>
      <point x="113.333" y="175" type="curve" smooth="yes"/>
      <point x="126.667" y="175"/>
      <point x="142.667" y="172"/>
      <point x="153.333" y="166.667" type="curve"/>
      <point x="184.667" y="61.6667" type="line"/>
      <point x="208" y="49"/>
      <point x="233.333" y="41.6667"/>
      <point x="262.333" y="41.6667" type="curve" smooth="yes"/>
      <point x="340.088" y="41.6667"/>
      <point x="401.667" y="106.928"/>
      <point x="401.667" y="187.667" type="curve" smooth="yes"/>
      <point x="401.667" y="264.667"/>
      <point x="342" y="311"/>
      <point x="258.333" y="311" type="curve" smooth="yes"/>
      <point x="231" y="311"/>
      <point x="197.667" y="307"/>
      <point x="191.333" y="306.333" type="curve"/>
      <point x="191.333" y="377" type="line"/>
      <point x="198.333" y="376"/>
      <point x="207.667" y="376"/>
      <point x="218.333" y="376" type="curve" smooth="yes"/>
      <point x="314.547" y="376"/>
      <point x="377.667" y="419.723"/>
      <point x="377.667" y="500.333" type="curve" smooth="yes"/>
      <point x="377.667" y="570.667"/>
      <point x="322" y="624"/>
      <point x="248.667" y="624" type="curve" smooth="yes"/>
      <point x="227.667" y="624"/>
      <point x="202" y="616.667"/>
      <point x="183.667" y="606.667" type="curve"/>
      <point x="183.667" y="491.333" type="line"/>
      <point x="170.858" y="483.596"/>
      <point x="153.433" y="477.667"/>
      <point x="132.333" y="477.667" type="curve" smooth="yes"/>
      <point x="89" y="477.667"/>
      <point x="61" y="503"/>
      <point x="61" y="544.333" type="curve" smooth="yes"/>
      <point x="61" y="630.05"/>
      <point x="170.154" y="687"/>
      <point x="289.667" y="687" type="curve" smooth="yes"/>
      <point x="415.571" y="687"/>
      <point x="509.333" y="617.85"/>
      <point x="509.333" y="512.667" type="curve" smooth="yes"/>
      <point x="509.333" y="429.359"/>
      <point x="438.015" y="367.304"/>
      <point x="344.667" y="348.333" type="curve"/>
      <point x="344.667" y="352.333" type="line"/>
      <point x="454.41" y="352.333"/>
      <point x="534" y="284.569"/>
      <point x="534" y="191" type="curve" smooth="yes"/>
      <point x="534" y="66.5896"/>
      <point x="409.337" y="-16.6667"/>
      <point x="254.667" y="-16.6667" type="curve" smooth="yes"/>
      <point x="145.68" y="-16.6667"/>
      <point x="44.3333" y="34.0745"/>
    </contour>
  </outline>
</glyph>
<glyph name="nine" format="2">
  <advance width="578"/>
  <unicode hex="0039"/>
  <outline>
    <contour>
      <point x="37" y="433.333" type="curve" smooth="yes"/>
      <point x="37" y="585"/>
      <point x="145.333" y="687"/>
      <point x="283.333" y="687" type="curve" smooth="yes"/>
      <point x="452.333" y="687"/>
      <point x="541.667" y="571.667"/>
      <point x="541.667" y="380.333" type="curve" smooth="yes"/>
      <point x="541.667" y="128"/>
      <point x="380.667" y="-16.3333"/>
      <point x="132.333" y="-16.3333" type="curve" smooth="yes"/>
      <point x="121" y="-16.3333" type="line"/>
      <point x="121" y="56.3333" type="line"/>
      <point x="161.667" y="53" type="line"/>
      <point x="306.212" y="59.6667"/>
      <point x="391.667" y="154.027"/>
      <point x="405" y="283.333" type="curve"/>
      <point x="371.667" y="254"/>
      <point x="305.333" y="229"/>
      <point x="246.667" y="229" type="curve" smooth="yes"/>
      <point x="110.667" y="229"/>
      <point x="37" y="328.333"/>
    </contour>
    <contour>
      <point x="166.333" y="457.667" type="curve" smooth="yes"/>
      <point x="166.333" y="367.333"/>
      <point x="209.333" y="307"/>
      <point x="300.667" y="307" type="curve" smooth="yes"/>
      <point x="357" y="307"/>
      <point x="399" y="329.333"/>
      <point x="410.333" y="337.667" type="curve"/>
      <point x="410.333" y="412" type="line" smooth="yes"/>
      <point x="410.333" y="542.027"/>
      <point x="360.57" y="626.333"/>
      <point x="283.333" y="626.333" type="curve" smooth="yes"/>
      <point x="203.333" y="626.333"/>
      <point x="166.333" y="547.667"/>
    </contour>
  </outline>
</glyph>
<glyph name="semicolon" format="2">
  <advance width="304"/>
  <unicode hex="003B"/>
  <outline>
    <contour>
      <point x="34.3333" y="-129.333" type="line"/>
      <point x="94.2417" y="-118.078"/>
      <point x="151" y="-82.9545"/>
      <point x="151" y="7" type="curve"/>
      <point x="89.3333" y="7" type="line"/>
      <point x="69.5238" y="23.4762"/>
      <point x="62.6667" y="45.7407"/>
      <point x="62.6667" y="65" type="curve" smooth="yes"/>
      <point x="62.6667" y="111.155"/>
      <point x="99.4607" y="144.333"/>
      <point x="139.667" y="144.333" type="curve" smooth="yes"/>
      <point x="197.368" y="144.333"/>
      <point x="230.667" y="105.552"/>
      <point x="230.667" y="43" type="curve" smooth="yes"/>
      <point x="230.667" y="-71.8142"/>
      <point x="132.268" y="-166.382"/>
      <point x="34.3333" y="-174" type="curve"/>
    </contour>
    <contour>
      <point x="63" y="420" type="curve" smooth="yes"/>
      <point x="63" y="463.24"/>
      <point x="98.2388" y="498.333"/>
      <point x="141.667" y="498.333" type="curve" smooth="yes"/>
      <point x="185.572" y="498.333"/>
      <point x="219" y="463.429"/>
      <point x="219" y="420" type="curve" smooth="yes"/>
      <point x="219" y="378.265"/>
      <point x="186.256" y="342.333"/>
      <point x="141.333" y="342.333" type="curve" smooth="yes"/>
      <point x="98" y="342.333"/>
      <point x="63" y="376"/>
    </contour>
  </outline>
</glyph>
<glyph name="equal" format="2">
  <advance width="1000"/>
  <unicode hex="003D"/>
  <outline>
    <contour>
      <point x="200" y="178" type="line"/>
      <point x="200" y="240" type="line"/>
      <point x="800" y="240" type="line"/>
      <point x="800" y="178" type="line"/>
    </contour>
    <contour>
      <point x="200" y="360" type="line"/>
      <point x="200" y="422" type="line"/>
      <point x="800" y="422" type="line"/>
      <point x="800" y="360" type="line"/>
    </contour>
  </outline>
</glyph>
<glyph name="at" format="2">
  <advance width="936"/>
  <unicode hex="0040"/>
  <outline>
    <contour>
      <point x="63.3333" y="236.667" type="curve" smooth="yes"/>
      <point x="63.3333" y="522.333"/>
      <point x="272" y="688.667"/>
      <point x="522.333" y="688.667" type="curve" smooth="yes"/>
      <point x="735.333" y="688.667"/>
      <point x="873.333" y="573"/>
      <point x="873.333" y="370.333" type="curve" smooth="yes"/>
      <point x="873.333" y="185"/>
      <point x="751" y="52.3333"/>
      <point x="623.667" y="52.3333" type="curve" smooth="yes"/>
      <point x="563.667" y="52.3333"/>
      <point x="540.333" y="83.6667"/>
      <point x="536.333" y="126.667" type="curve"/>
      <point x="501" y="89.6667"/>
      <point x="451.333" y="53.3333"/>
      <point x="396.667" y="53.3333" type="curve" smooth="yes"/>
      <point x="307.333" y="53.3333"/>
      <point x="262.333" y="125.333"/>
      <point x="262.333" y="218.333" type="curve" smooth="yes"/>
      <point x="262.333" y="366.333"/>
      <point x="376" y="491"/>
      <point x="520.667" y="491" type="curve" smooth="yes"/>
      <point x="552.667" y="491"/>
      <point x="589.333" y="478"/>
      <point x="614" y="462" type="curve"/>
      <point x="628.667" y="486.333" type="line"/>
      <point x="703.333" y="486.333" type="line"/>
      <point x="690.667" y="449.667"/>
      <point x="684.493" y="423.966"/>
      <point x="672.667" y="369.667" type="curve" smooth="yes"/>
      <point x="634" y="189" type="line" smooth="yes"/>
      <point x="631.22" y="174.691"/>
      <point x="628.667" y="161.333"/>
      <point x="628.667" y="150.667" type="curve" smooth="yes"/>
      <point x="628.667" y="127.667"/>
      <point x="637.333" y="113.667"/>
      <point x="661.667" y="113.667" type="curve" smooth="yes"/>
      <point x="722" y="113.667"/>
      <point x="805" y="225"/>
      <point x="805" y="368.667" type="curve" smooth="yes"/>
      <point x="805" y="551.333"/>
      <point x="672" y="640"/>
      <point x="534.667" y="640" type="curve" smooth="yes"/>
      <point x="317" y="640"/>
      <point x="154.333" y="481.667"/>
      <point x="154.333" y="254.667" type="curve" smooth="yes"/>
      <point x="154.333" y="45.6667"/>
      <point x="287" y="-101"/>
      <point x="494.667" y="-101" type="curve" smooth="yes"/>
      <point x="601.333" y="-101"/>
      <point x="684.667" y="-65"/>
      <point x="764.667" y="-20.3333" type="curve"/>
      <point x="783.333" y="-66" type="line"/>
      <point x="695.333" y="-112.333"/>
      <point x="597.667" y="-155.333"/>
      <point x="471" y="-155.333" type="curve" smooth="yes"/>
      <point x="237" y="-155.333"/>
      <point x="63.3333" y="-0.666667"/>
    </contour>
    <contour>
      <point x="373" y="227.667" type="curve" smooth="yes"/>
      <point x="373" y="156.667"/>
      <point x="401.667" y="122.333"/>
      <point x="441.667" y="122.333" type="curve" smooth="yes"/>
      <point x="486.333" y="122.333"/>
      <point x="516.333" y="157.667"/>
      <point x="534.333" y="184.667" type="curve"/>
      <point x="574.333" y="390.333" type="line"/>
      <point x="575.26" y="394.347"/>
      <point x="575.333" y="398.333"/>
      <point x="575.333" y="402" type="curve" smooth="yes"/>
      <point x="575.333" y="428.333"/>
      <point x="556.667" y="444.333"/>
      <point x="525" y="444.333" type="curve" smooth="yes"/>
      <point x="435" y="444.333"/>
      <point x="373" y="347.333"/>
    </contour>
  </outline>
</glyph>
<glyph name="U" format="2">
  <advance width="723"/>
  <unicode hex="0055"/>
  <outline>
    <contour>
      <point x="25" y="622.667" type="line"/>
      <point x="25" y="671" type="line"/>
      <point x="307" y="671" type="line"/>
      <point x="307" y="622.667" type="line"/>
      <point x="252" y="618" type="line" smooth="yes"/>
      <point x="240.667" y="617"/>
      <point x="230.333" y="608.667"/>
      <point x="230.333" y="596" type="curve" smooth="yes"/>
      <point x="230.333" y="247" type="line" smooth="yes"/>
      <point x="230.333" y="121.333"/>
      <point x="278.667" y="62"/>
      <point x="394.667" y="62" type="curve" smooth="yes"/>
      <point x="506.667" y="62"/>
      <point x="550.333" y="133.333"/>
      <point x="550.333" y="247" type="curve" smooth="yes"/>
      <point x="550.333" y="596" type="line" smooth="yes"/>
      <point x="550.333" y="608.667"/>
      <point x="540.333" y="617"/>
      <point x="528.333" y="618" type="curve" smooth="yes"/>
      <point x="471.333" y="622.667" type="line"/>
      <point x="471.333" y="671" type="line"/>
      <point x="697" y="671" type="line"/>
      <point x="697" y="622.667" type="line"/>
      <point x="642.333" y="618" type="line" smooth="yes"/>
      <point x="631" y="617"/>
      <point x="620.667" y="608.667"/>
      <point x="620.667" y="596" type="curve" smooth="yes"/>
      <point x="620.667" y="243.667" type="line" smooth="yes"/>
      <point x="620.667" y="57"/>
      <point x="532.333" y="-15.6667"/>
      <point x="352.333" y="-15.6667" type="curve" smooth="yes"/>
      <point x="183.667" y="-15.6667"/>
      <point x="101" y="73"/>
      <point x="101" y="243.667" type="curve" smooth="yes"/>
      <point x="101" y="596" type="line" smooth="yes"/>
      <point x="101" y="608.667"/>
      <point x="90.6667" y="617"/>
      <point x="78.6667" y="618" type="curve" smooth="yes"/>
    </contour>
  </outline>
</glyph>
<glyph name="bracketleft" format="2">
  <advance width="505"/>
  <unicode hex="005B"/>
  <outline>
    <contour>
      <point x="201.333" y="-132" type="line"/>
      <point x="201.333" y="708" type="line"/>
      <point x="467.667" y="708" type="line"/>
      <point x="467.667" y="653" type="line"/>
      <point x="313" y="653" type="line"/>
      <point x="313" y="-78" type="line"/>
      <point x="467.667" y="-78" type="line"/>
      <point x="467.667" y="-132" type="line"/>
    </contour>
  </outline>
</glyph>
<glyph name="backslash" format="2">
  <advance width="492"/>
  <unicode hex="005C"/>
  <outline>
    <contour>
      <point x="0" y="671" type="line"/>
      <point x="73.3333" y="671" type="line"/>
      <point x="492.333" y="-93" type="line"/>
      <point x="419" y="-93" type="line"/>
    </contour>
  </outline>
</glyph>
<glyph name="underscore" format="2">
  <advance width="337"/>
  <unicode hex="005F"/>
  <outline>
    <contour>
      <point x="0" y="-85" type="line"/>
      <point x="338.333" y="-85" type="line"/>
      <point x="338.333" y="-160.333" type="line"/>
      <point x="0" y="-160.333" type="line"/>
    </contour>
  </outline>
</glyph>
<glyph name="k" format="2">
  <advance width="572"/>
  <unicode hex="006B"/>
  <outline>
    <contour>
      <point x="18" y="654.333" type="line"/>
      <point x="18" y="692.667" type="line"/>
      <point x="162" y="739" type="line"/>
      <point x="209.667" y="739" type="line"/>
      <point x="209.667" y="258.667" type="line"/>
      <point x="231" y="258.667" type="line"/>
      <point x="369.333" y="420.667" type="line"/>
      <point x="371.283" y="422.822"/>
      <point x="372.268" y="425.73"/>
      <point x="372.268" y="428.667" type="curve" smooth="yes"/>
      <point x="372.268" y="433.586"/>
      <point x="368.157" y="436.79"/>
      <point x="362" y="437.667" type="curve"/>
      <point x="323" y="441.667" type="line"/>
      <point x="323" y="486" type="line"/>
      <point x="526.333" y="486" type="line"/>
      <point x="526.333" y="441.667" type="line"/>
      <point x="461" y="434" type="line"/>
      <point x="345.667" y="305.667" type="line"/>
      <point x="505.667" y="49.6667" type="line"/>
      <point x="562.667" y="44.3333" type="line"/>
      <point x="562.667" y="0" type="line"/>
      <point x="374.667" y="0" type="line"/>
      <point x="374.667" y="40.3333" type="line"/>
      <point x="259.667" y="226.333" type="line"/>
      <point x="209.667" y="226.333" type="line"/>
      <point x="209.667" y="69.6667" type="line" smooth="yes"/>
      <point x="209.667" y="57.6667"/>
      <point x="219" y="48.3333"/>
      <point x="231.333" y="47.3333" type="curve" smooth="yes"/>
      <point x="272.333" y="44.3333" type="line"/>
      <point x="272.333" y="0" type="line"/>
      <point x="24" y="0" type="line"/>
      <point x="24" y="44.3333" type="line"/>
      <point x="68.3333" y="47.3333" type="line" smooth="yes"/>
      <point x="80" y="48.3333"/>
      <point x="90" y="57.6667"/>
      <point x="90" y="69.6667" type="curve" smooth="yes"/>
      <point x="90" y="654.333" type="line"/>
    </contour>
  </outline>
</glyph>
<glyph name="p" format="2">
  <advance width="589"/>
  <unicode hex="0070"/>
  <outline>
    <contour>
      <point x="23.6667" y="-173.667" type="line"/>
      <point x="69" y="-169.667" type="line"/>
      <point x="80.6667" y="-169.333"/>
      <point x="90.6667" y="-160.333"/>
      <point x="90.6667" y="-147.667" type="curve" smooth="yes"/>
      <point x="90.6667" y="409.333" type="line"/>
      <point x="23.6667" y="409.333" type="line"/>
      <point x="23.6667" y="447.667" type="line"/>
      <point x="163.333" y="494.333" type="line"/>
      <point x="211" y="494.333" type="line"/>
      <point x="211" y="435.667" type="line"/>
      <point x="223" y="445.333"/>
      <point x="293" y="498"/>
      <point x="368.333" y="498" type="curve" smooth="yes"/>
      <point x="491.333" y="498"/>
      <point x="556.333" y="376.667"/>
      <point x="556.333" y="254.667" type="curve" smooth="yes"/>
      <point x="556.333" y="93"/>
      <point x="456.333" y="-11.6667"/>
      <point x="292.667" y="-11.6667" type="curve" smooth="yes"/>
      <point x="255.667" y="-11.6667"/>
      <point x="220" y="-4"/>
      <point x="211" y="-2" type="curve"/>
      <point x="211" y="-147.667" type="line" smooth="yes"/>
      <point x="211" y="-160.333"/>
      <point x="220.667" y="-169.333"/>
      <point x="233" y="-169.667" type="curve"/>
      <point x="288" y="-173.667" type="line"/>
      <point x="288" y="-218" type="line"/>
      <point x="23.6667" y="-218" type="line"/>
    </contour>
    <contour>
      <point x="210.333" y="52.6667" type="line"/>
      <point x="218" y="49.3333"/>
      <point x="249.667" y="39.6667"/>
      <point x="274.333" y="39.6667" type="curve" smooth="yes"/>
      <point x="375" y="39.6667"/>
      <point x="424.667" y="129"/>
      <point x="424.667" y="240.333" type="curve" smooth="yes"/>
      <point x="424.667" y="332"/>
      <point x="384.667" y="413.333"/>
      <point x="293.667" y="413.333" type="curve" smooth="yes"/>
      <point x="257" y="413.333"/>
      <point x="219" y="398.333"/>
      <point x="210.333" y="393.333" type="curve"/>
    </contour>
  </outline>
</glyph>
<glyph name="x" format="2">
  <advance width="533"/>
  <unicode hex="0078"/>
  <outline>
    <contour>
      <point x="10" y="0" type="line"/>
      <point x="10" y="44.3333" type="line"/>
      <point x="69" y="52.3333" type="line"/>
      <point x="212" y="229.667" type="line"/>
      <point x="68" y="434" type="line"/>
      <point x="13" y="441.667" type="line"/>
      <point x="13" y="486" type="line"/>
      <point x="250.333" y="486" type="line"/>
      <point x="250.333" y="441.667" type="line"/>
      <point x="219.333" y="438" type="line" smooth="yes"/>
      <point x="212.826" y="437.312"/>
      <point x="208.301" y="432.729"/>
      <point x="208.301" y="427.304" type="curve" smooth="yes"/>
      <point x="208.301" y="424.888"/>
      <point x="209.197" y="422.316"/>
      <point x="211" y="420" type="curve"/>
      <point x="284" y="318" type="line"/>
      <point x="366.333" y="420" type="line" smooth="yes"/>
      <point x="368.23" y="422.361"/>
      <point x="369.13" y="425.065"/>
      <point x="369.13" y="427.647" type="curve" smooth="yes"/>
      <point x="369.13" y="432.721"/>
      <point x="365.608" y="437.337"/>
      <point x="359.667" y="438" type="curve" smooth="yes"/>
      <point x="324" y="441.667" type="line"/>
      <point x="324" y="486" type="line"/>
      <point x="508" y="486" type="line"/>
      <point x="508" y="441.667" type="line"/>
      <point x="452.667" y="434" type="line"/>
      <point x="319.333" y="267.667" type="line"/>
      <point x="471.333" y="52.3333" type="line"/>
      <point x="524.667" y="44.3333" type="line"/>
      <point x="524.667" y="0" type="line"/>
      <point x="283.667" y="0" type="line"/>
      <point x="283.667" y="44.3333" type="line"/>
      <point x="321" y="48.3333" type="line" smooth="yes"/>
      <point x="327.313" y="49.041"/>
      <point x="331.748" y="53.4377"/>
      <point x="331.748" y="58.7666" type="curve" smooth="yes"/>
      <point x="331.748" y="60.95"/>
      <point x="330.988" y="63.3128"/>
      <point x="329.333" y="65.6667" type="curve" smooth="yes"/>
      <point x="248" y="180.333" type="line"/>
      <point x="156.667" y="65.6667" type="line"/>
      <point x="154.613" y="63.3821"/>
      <point x="153.651" y="60.7521"/>
      <point x="153.651" y="58.2397" type="curve" smooth="yes"/>
      <point x="153.651" y="53.4067"/>
      <point x="157.2" y="48.9911"/>
      <point x="163.333" y="48.3333" type="curve" smooth="yes"/>
      <point x="203.333" y="44.3333" type="line"/>
      <point x="203.333" y="0" type="line"/>
    </contour>
  </outline>
</glyph>
<glyph name="y" format="2">
  <advance width="553"/>
  <unicode hex="0079"/>
  <outline>
    <contour>
      <point x="10" y="441.667" type="line"/>
      <point x="10" y="486" type="line"/>
      <point x="259" y="486" type="line"/>
      <point x="259" y="441.667" type="line"/>
      <point x="212.334" y="438.667" type="line"/>
      <point x="203.192" y="437.725"/>
      <point x="196.369" y="430.969"/>
      <point x="196.369" y="422.667" type="curve"/>
      <point x="196.369" y="420.703"/>
      <point x="196.433" y="418.7"/>
      <point x="197.333" y="416.667" type="curve"/>
      <point x="304.667" y="147" type="line"/>
      <point x="415" y="416.667" type="line"/>
      <point x="415.9" y="418.7"/>
      <point x="415.992" y="420.036"/>
      <point x="415.992" y="422" type="curve"/>
      <point x="415.992" y="430.302"/>
      <point x="408.808" y="437.725"/>
      <point x="400.333" y="438.667" type="curve"/>
      <point x="355.333" y="441.667" type="line"/>
      <point x="355.333" y="486" type="line"/>
      <point x="544.667" y="486" type="line"/>
      <point x="544.667" y="441.667" type="line"/>
      <point x="492" y="435" type="line"/>
      <point x="313" y="-3.66667" type="line" smooth="yes"/>
      <point x="290.667" y="-57"/>
      <point x="239.333" y="-148.667"/>
      <point x="217" y="-175.333" type="curve" smooth="yes"/>
      <point x="189" y="-208.333"/>
      <point x="157.333" y="-230.333"/>
      <point x="111.333" y="-230.333" type="curve" smooth="yes"/>
      <point x="66.1077" y="-230.333"/>
      <point x="28.3333" y="-197.368"/>
      <point x="28.3333" y="-158" type="curve" smooth="yes"/>
      <point x="28.3333" y="-130.042"/>
      <point x="45.36" y="-106.367"/>
      <point x="77.6667" y="-88.6667" type="curve"/>
      <point x="165.667" y="-146.333" type="line"/>
      <point x="202" y="-111.333"/>
      <point x="230.667" y="-46.3333"/>
      <point x="243" y="-5.66667" type="curve"/>
      <point x="67.6667" y="435.667" type="line"/>
    </contour>
  </outline>
</glyph>
<glyph name="braceleft" format="2">
  <advance width="492"/>
  <unicode hex="007B"/>
  <outline>
    <contour>
      <point x="46.6667" y="264.333" type="line"/>
      <point x="46.6667" y="319.333" type="line"/>
      <point x="67.6667" y="319.333" type="line"/>
      <point x="152.527" y="320.276"/>
      <point x="185" y="358.328"/>
      <point x="185" y="456.333" type="curve" smooth="yes"/>
      <point x="185" y="507.667" type="line" smooth="yes"/>
      <point x="185" y="646.292"/>
      <point x="248.591" y="704.244"/>
      <point x="402" y="705.333" type="curve"/>
      <point x="420.667" y="705.333" type="line"/>
      <point x="420.667" y="655" type="line"/>
      <point x="402" y="655" type="line"/>
      <point x="328.938" y="653.487"/>
      <point x="298.146" y="609.658"/>
      <point x="297.667" y="508" type="curve"/>
      <point x="297.667" y="479.667" type="line" smooth="yes"/>
      <point x="297.667" y="360.721"/>
      <point x="237.632" y="297.249"/>
      <point x="146" y="289.667" type="curve"/>
      <point x="146" y="293.667" type="line"/>
      <point x="246.625" y="285.03"/>
      <point x="297.667" y="209.278"/>
      <point x="297.667" y="97.3333" type="curve" smooth="yes"/>
      <point x="297.667" y="67" type="line" smooth="yes"/>
      <point x="297.667" y="-31.2046"/>
      <point x="328.54" y="-72"/>
      <point x="402" y="-72" type="curve" smooth="yes"/>
      <point x="420.667" y="-72" type="line"/>
      <point x="420.667" y="-122.333" type="line"/>
      <point x="402" y="-122.333" type="line"/>
      <point x="248.36" y="-120.811"/>
      <point x="184.667" y="-62.0906"/>
      <point x="184.667" y="77" type="curve" smooth="yes"/>
      <point x="184.667" y="129.667" type="line" smooth="yes"/>
      <point x="184.667" y="225.161"/>
      <point x="151.591" y="263.313"/>
      <point x="67.6667" y="264.333" type="curve"/>
    </contour>
  </outline>
</glyph>
<glyph name="bar" format="2">
  <advance width="382"/>
  <unicode hex="007C"/>
  <outline>
    <contour>
      <point x="152.667" y="-258" type="line"/>
      <point x="152.667" y="796" type="line"/>
      <point x="230.333" y="796" type="line"/>
      <point x="230.333" y="-258" type="line"/>
    </contour>
  </outline>
</glyph>
<glyph name="exclamdown" format="2">
  <advance width="338"/>
  <unicode hex="00A1"/>
  <outline>
    <contour>
      <point x="94.6667" y="422.667" type="curve" smooth="yes"/>
      <point x="94.6667" y="465"/>
      <point x="128.333" y="498"/>
      <point x="168.667" y="498" type="curve" smooth="yes"/>
      <point x="202.333" y="498"/>
      <point x="243" y="473.667"/>
      <point x="243" y="422.667" type="curve" smooth="yes"/>
      <point x="243" y="376"/>
      <point x="206" y="349.667"/>
      <point x="168.667" y="349.667" type="curve" smooth="yes"/>
      <point x="132" y="349.667"/>
      <point x="94.6667" y="378"/>
    </contour>
    <contour>
      <point x="94.3333" y="-126.667" type="curve"/>
      <point x="142.667" y="287" type="line"/>
      <point x="194.667" y="287" type="line"/>
      <point x="243.667" y="-127.333" type="line"/>
      <point x="243.667" y="-176.667"/>
      <point x="212.9" y="-201"/>
      <point x="168.667" y="-201" type="curve" smooth="yes"/>
      <point x="125.997" y="-201"/>
      <point x="94.3333" y="-176.865"/>
    </contour>
  </outline>
</glyph>
<glyph name="cent" format="2">
  <advance width="578"/>
  <unicode hex="00A2"/>
  <outline>
    <contour>
      <point x="68.3333" y="251.667" type="curve" smooth="yes"/>
      <point x="68.3333" y="394.61"/>
      <point x="170.031" y="501.419"/>
      <point x="312.333" y="508.333" type="curve"/>
      <point x="312.333" y="611" type="line"/>
      <point x="366.333" y="611" type="line"/>
      <point x="366.333" y="510.333" type="line"/>
      <point x="409.608" y="510.333"/>
      <point x="464.186" y="498.903"/>
      <point x="508.333" y="482" type="curve"/>
      <point x="508.333" y="337" type="line"/>
      <point x="451" y="337" type="line"/>
      <point x="434" y="434.333" type="line"/>
      <point x="421.252" y="445.514"/>
      <point x="389.469" y="454.667"/>
      <point x="365.667" y="454.667" type="curve"/>
      <point x="365.667" y="55" type="line"/>
      <point x="409.792" y="55"/>
      <point x="430.081" y="66.5663"/>
      <point x="436" y="69.6667" type="curve"/>
      <point x="451" y="174.667" type="line"/>
      <point x="508.667" y="174.667" type="line"/>
      <point x="508.667" y="25" type="line"/>
      <point x="487.628" y="13.3847"/>
      <point x="409.794" y="-0.333333"/>
      <point x="366.333" y="-0.333333" type="curve"/>
      <point x="366.333" y="-102" type="line"/>
      <point x="312.333" y="-102" type="line"/>
      <point x="312.333" y="1" type="line"/>
      <point x="172.259" y="6.31623"/>
      <point x="68.3333" y="111.959"/>
    </contour>
    <contour>
      <point x="193" y="253" type="curve" smooth="yes"/>
      <point x="193" y="153.69"/>
      <point x="241.009" y="75.7821"/>
      <point x="313" y="58.3333" type="curve"/>
      <point x="313" y="453.333" type="line"/>
      <point x="241.055" y="443.333"/>
      <point x="193" y="363.428"/>
    </contour>
  </outline>
</glyph>
<glyph name="section" format="2">
  <advance width="500"/>
  <unicode hex="00A7"/>
  <outline>
    <contour>
      <point x="48" y="291.667" type="curve" smooth="yes"/>
      <point x="48" y="394.333"/>
      <point x="131" y="434"/>
      <point x="165.333" y="448.667" type="curve"/>
      <point x="132" y="464.667"/>
      <point x="67.3333" y="500"/>
      <point x="67.3333" y="579.333" type="curve" smooth="yes"/>
      <point x="67.3333" y="681.333"/>
      <point x="159" y="725"/>
      <point x="268" y="725" type="curve" smooth="yes"/>
      <point x="348.333" y="725"/>
      <point x="409.667" y="705.333"/>
      <point x="421.667" y="700.333" type="curve"/>
      <point x="421.667" y="565" type="line"/>
      <point x="369.333" y="565" type="line"/>
      <point x="358.667" y="646.667" type="line"/>
      <point x="346" y="655"/>
      <point x="315.667" y="674.333"/>
      <point x="265.667" y="674.333" type="curve" smooth="yes"/>
      <point x="217.517" y="674.333"/>
      <point x="172" y="646.437"/>
      <point x="172" y="594.333" type="curve" smooth="yes"/>
      <point x="172" y="562.954"/>
      <point x="198.451" y="538.409"/>
      <point x="234.667" y="519.333" type="curve"/>
      <point x="285.333" y="494.422" type="line" smooth="yes"/>
      <point x="372.476" y="451.643"/>
      <point x="452.333" y="400.302"/>
      <point x="452.333" y="311.333" type="curve" smooth="yes"/>
      <point x="452.333" y="203.559"/>
      <point x="361.697" y="159.012"/>
      <point x="331.667" y="149" type="curve"/>
      <point x="363.296" y="134.472"/>
      <point x="433.333" y="95.7717"/>
      <point x="433.333" y="18.3333" type="curve" smooth="yes"/>
      <point x="433.333" y="-92.862"/>
      <point x="331.606" y="-136.667"/>
      <point x="232.333" y="-136.667" type="curve" smooth="yes"/>
      <point x="149.333" y="-136.667"/>
      <point x="84.6667" y="-110"/>
      <point x="71" y="-104" type="curve"/>
      <point x="71" y="32.3333" type="line"/>
      <point x="128.333" y="32.3333" type="line"/>
      <point x="142" y="-59.6667" type="line"/>
      <point x="166.667" y="-75.3333"/>
      <point x="208.667" y="-83.6667"/>
      <point x="235.333" y="-83.6667" type="curve" smooth="yes"/>
      <point x="287.333" y="-83.6667"/>
      <point x="332.333" y="-54.6667"/>
      <point x="332.333" y="-5.33333" type="curve" smooth="yes"/>
      <point x="332.333" y="34.6211"/>
      <point x="298.792" y="61.2895"/>
      <point x="247.667" y="87.754" type="curve" smooth="yes"/>
      <point x="204.333" y="109.293" type="line" smooth="yes"/>
      <point x="116.206" y="153.171"/>
      <point x="48" y="199.104"/>
    </contour>
    <contour>
      <point x="132.333" y="321.333" type="curve" smooth="yes"/>
      <point x="132.333" y="286"/>
      <point x="148.542" y="259.557"/>
      <point x="172" y="238.333" type="curve" smooth="yes"/>
      <point x="203.667" y="209"/>
      <point x="246.667" y="190.333"/>
      <point x="283" y="176.333" type="curve"/>
      <point x="311.439" y="189.004"/>
      <point x="365" y="233.333"/>
      <point x="365" y="281.333" type="curve" smooth="yes"/>
      <point x="365" y="321.509"/>
      <point x="336.349" y="355.652"/>
      <point x="303" y="378.667" type="curve" smooth="yes"/>
      <point x="273.667" y="399"/>
      <point x="240.333" y="413.333"/>
      <point x="217.667" y="422" type="curve"/>
      <point x="190.447" y="413.34"/>
      <point x="132.333" y="381.074"/>
    </contour>
  </outline>
</glyph>
<glyph name="ordfeminine" format="2">
  <advance width="352"/>
  <unicode hex="00AA"/>
  <outline>
    <contour>
      <point x="23.3333" y="453.667" type="curve" smooth="yes"/>
      <point x="23.3333" y="498.918"/>
      <point x="45.6052" y="521.407"/>
      <point x="116.333" y="543" type="curve" smooth="yes"/>
      <point x="142.667" y="551"/>
      <point x="176.667" y="559.333"/>
      <point x="220.333" y="568.333" type="curve"/>
      <point x="220.333" y="592.333" type="line" smooth="yes"/>
      <point x="220.333" y="621.333"/>
      <point x="208.667" y="649.333"/>
      <point x="159.667" y="649.333" type="curve" smooth="yes"/>
      <point x="142.333" y="649.333"/>
      <point x="132" y="647.333"/>
      <point x="125" y="645.333" type="curve"/>
      <point x="125" y="590" type="line"/>
      <point x="64.6667" y="590" type="line" smooth="yes"/>
      <point x="55.6667" y="590"/>
      <point x="37.3333" y="591"/>
      <point x="37.3333" y="610.333" type="curve" smooth="yes"/>
      <point x="37.3333" y="658.667"/>
      <point x="113.667" y="681.333"/>
      <point x="179" y="681.333" type="curve" smooth="yes"/>
      <point x="251.767" y="681.333"/>
      <point x="298" y="662.489"/>
      <point x="298" y="582.667" type="curve" smooth="yes"/>
      <point x="298" y="424" type="line" smooth="yes"/>
      <point x="298" y="416.333"/>
      <point x="304.32" y="410.459"/>
      <point x="311.667" y="410.333" type="curve"/>
      <point x="341.667" y="408.333" type="line"/>
      <point x="341.667" y="382" type="line"/>
      <point x="228.333" y="382" type="line"/>
      <point x="220" y="413.667" type="line"/>
      <point x="210.533" y="407.212"/>
      <point x="161.315" y="375.333"/>
      <point x="107.333" y="375.333" type="curve" smooth="yes"/>
      <point x="60" y="375.333"/>
      <point x="23.3333" y="405"/>
    </contour>
    <contour>
      <point x="42.3333" y="302" type="line"/>
      <point x="42.3333" y="335.333" type="line"/>
      <point x="338.667" y="335.333" type="line"/>
      <point x="338.667" y="302" type="line"/>
    </contour>
    <contour>
      <point x="105.667" y="466.667" type="curve" smooth="yes"/>
      <point x="105.667" y="440.628"/>
      <point x="124.801" y="420.667"/>
      <point x="152.667" y="420.667" type="curve" smooth="yes"/>
      <point x="182.175" y="420.667"/>
      <point x="212.075" y="433.634"/>
      <point x="219.333" y="438" type="curve"/>
      <point x="219.333" y="539.333" type="line"/>
      <point x="174.667" y="530.667"/>
      <point x="144.957" y="521.725"/>
      <point x="125.333" y="507.667" type="curve" smooth="yes"/>
      <point x="111" y="497.246"/>
      <point x="105.667" y="485.167"/>
    </contour>
  </outline>
</glyph>
<glyph name="guillemotleft" format="2">
  <advance width="446"/>
  <unicode hex="00AB"/>
  <outline>
    <contour>
      <point x="25" y="215" type="line"/>
      <point x="25" y="266" type="line"/>
      <point x="186.667" y="482" type="line"/>
      <point x="251.667" y="482" type="line"/>
      <point x="126.667" y="241" type="line"/>
      <point x="251.667" y="0" type="line"/>
      <point x="186.667" y="0" type="line"/>
    </contour>
    <contour>
      <point x="210.667" y="215" type="line"/>
      <point x="210.667" y="266" type="line"/>
      <point x="372" y="482" type="line"/>
      <point x="436.667" y="482" type="line"/>
      <point x="312.667" y="241" type="line"/>
      <point x="436.667" y="0" type="line"/>
      <point x="372" y="0" type="line"/>
    </contour>
  </outline>
</glyph>
<glyph name="uni00B3" format="2">
  <advance width="406"/>
  <unicode hex="00B3"/>
  <outline>
    <contour>
      <point x="30" y="491.333" type="curve" smooth="yes"/>
      <point x="30" y="522.667"/>
      <point x="56" y="533.667"/>
      <point x="78.6667" y="533.667" type="curve" smooth="yes"/>
      <point x="89.6667" y="533.667"/>
      <point x="99.6667" y="531.333"/>
      <point x="107.333" y="528.333" type="curve"/>
      <point x="128" y="463" type="line"/>
      <point x="144.333" y="456"/>
      <point x="162.667" y="451.333"/>
      <point x="183" y="451.333" type="curve" smooth="yes"/>
      <point x="235.584" y="451.333"/>
      <point x="282" y="490.027"/>
      <point x="282" y="541" type="curve" smooth="yes"/>
      <point x="282" y="585.667"/>
      <point x="243.667" y="617.333"/>
      <point x="180.667" y="617.333" type="curve" smooth="yes"/>
      <point x="161" y="617.333"/>
      <point x="138" y="615"/>
      <point x="133.667" y="614.333" type="curve"/>
      <point x="133.667" y="665" type="line"/>
      <point x="140.333" y="664"/>
      <point x="147.667" y="664"/>
      <point x="153.333" y="664" type="curve" smooth="yes"/>
      <point x="208.633" y="664"/>
      <point x="265.667" y="682.679"/>
      <point x="265.667" y="741.667" type="curve" smooth="yes"/>
      <point x="265.667" y="785.333"/>
      <point x="226" y="817.667"/>
      <point x="174.667" y="817.667" type="curve" smooth="yes"/>
      <point x="157.333" y="817.667"/>
      <point x="134.333" y="811.333"/>
      <point x="129.333" y="808.667" type="curve"/>
      <point x="129.333" y="733.667" type="line"/>
      <point x="118.333" y="727.333"/>
      <point x="103.667" y="725.333"/>
      <point x="92" y="725.333" type="curve" smooth="yes"/>
      <point x="63.3333" y="725.333"/>
      <point x="41" y="740"/>
      <point x="41" y="769.333" type="curve" smooth="yes"/>
      <point x="41" y="826.378"/>
      <point x="119.794" y="861.667"/>
      <point x="203" y="861.667" type="curve" smooth="yes"/>
      <point x="280.218" y="861.667"/>
      <point x="360" y="826.415"/>
      <point x="360" y="750.333" type="curve" smooth="yes"/>
      <point x="360" y="694.831"/>
      <point x="299.341" y="650.215"/>
      <point x="236" y="645.333" type="curve"/>
      <point x="236" y="649.333" type="line"/>
      <point x="311.973" y="648.482"/>
      <point x="377.333" y="605.243"/>
      <point x="377.333" y="543.333" type="curve" smooth="yes"/>
      <point x="377.333" y="457.503"/>
      <point x="280.219" y="409.667"/>
      <point x="178.667" y="409.667" type="curve" smooth="yes"/>
      <point x="96.1567" y="409.667"/>
      <point x="30" y="445.162"/>
    </contour>
  </outline>
</glyph>
<glyph name="periodcentered" format="2">
  <advance width="187"/>
  <unicode hex="00B7"/>
  <outline>
    <contour>
      <point x="35" y="340" type="curve" smooth="yes"/>
      <point x="35" y="373.333"/>
      <point x="60.6667" y="399"/>
      <point x="94" y="399" type="curve" smooth="yes"/>
      <point x="127.333" y="399"/>
      <point x="153" y="373.333"/>
      <point x="153" y="340" type="curve" smooth="yes"/>
      <point x="153" y="306.667"/>
      <point x="127.333" y="281"/>
      <point x="94" y="281" type="curve" smooth="yes"/>
      <point x="60.6667" y="281"/>
      <point x="35" y="306.667"/>
    </contour>
  </outline>
</glyph>
<glyph name="cedilla" format="2">
  <advance width="240"/>
  <unicode hex="00B8"/>
  <outline>
    <contour>
      <point x="41.3333" y="-208.333" type="curve"/>
      <point x="41.3333" y="-162" type="line"/>
      <point x="47.3333" y="-163.333"/>
      <point x="80.6667" y="-170"/>
      <point x="103.667" y="-170" type="curve" smooth="yes"/>
      <point x="131.667" y="-170"/>
      <point x="164.333" y="-163"/>
      <point x="164.333" y="-133.667" type="curve" smooth="yes"/>
      <point x="164.333" y="-109"/>
      <point x="145" y="-98.6667"/>
      <point x="122.667" y="-98.6667" type="curve" smooth="yes"/>
      <point x="114.667" y="-98.6667"/>
      <point x="100.333" y="-100.667"/>
      <point x="97" y="-102" type="curve"/>
      <point x="97" y="25" type="line"/>
      <point x="143.667" y="25" type="line"/>
      <point x="143.667" y="-49" type="line"/>
      <point x="148.333" y="-47.3333"/>
      <point x="152.333" y="-46.3333"/>
      <point x="160.667" y="-46.3333" type="curve" smooth="yes"/>
      <point x="206.667" y="-46.3333"/>
      <point x="240.667" y="-70"/>
      <point x="240.667" y="-120.667" type="curve" smooth="yes"/>
      <point x="240.667" y="-185.667"/>
      <point x="189.333" y="-219"/>
      <point x="120" y="-219" type="curve" smooth="yes"/>
      <point x="83.6667" y="-219"/>
      <point x="48.3333" y="-210.333"/>
    </contour>
  </outline>
</glyph>
<glyph name="onehalf" format="2">
  <advance width="896"/>
  <unicode hex="00BD"/>
  <outline>
    <contour>
      <point x="46" y="630.333" type="line"/>
      <point x="46" y="660" type="line"/>
      <point x="187" y="703.333" type="line"/>
      <point x="226.333" y="703.333" type="line"/>
      <point x="226.333" y="341.333" type="line" smooth="yes"/>
      <point x="226.333" y="333.667"/>
      <point x="233.655" y="328.82"/>
      <point x="241.333" y="328.667" type="curve"/>
      <point x="295.667" y="324.667" type="line"/>
      <point x="295.667" y="295" type="line"/>
      <point x="71" y="295" type="line"/>
      <point x="71" y="324.667" type="line"/>
      <point x="130.333" y="328.667" type="line"/>
      <point x="138.012" y="328.809"/>
      <point x="144.333" y="333.667"/>
      <point x="144.333" y="341.333" type="curve" smooth="yes"/>
      <point x="144.333" y="643.667" type="line"/>
    </contour>
    <contour>
      <point x="180" y="0" type="line"/>
      <point x="622.667" y="696" type="line"/>
      <point x="692.333" y="696" type="line"/>
      <point x="249.667" y="0" type="line"/>
    </contour>
    <contour>
      <point x="538.667" y="1" type="line"/>
      <point x="538.667" y="47.6667" type="line"/>
      <point x="598.585" y="84.49"/>
      <point x="750.667" y="179.194"/>
      <point x="750.667" y="289.333" type="curve" smooth="yes"/>
      <point x="750.667" y="338.667"/>
      <point x="721.667" y="373"/>
      <point x="671" y="373" type="curve" smooth="yes"/>
      <point x="651.417" y="373"/>
      <point x="644.753" y="369.376"/>
      <point x="630" y="364.333" type="curve"/>
      <point x="630" y="288.333" type="line"/>
      <point x="628" y="286.333"/>
      <point x="608.333" y="277.667"/>
      <point x="590" y="277.667" type="curve" smooth="yes"/>
      <point x="561.667" y="277.667"/>
      <point x="544.333" y="293.667"/>
      <point x="544.333" y="318.667" type="curve" smooth="yes"/>
      <point x="544.333" y="390.23"/>
      <point x="636.256" y="410"/>
      <point x="695.333" y="410" type="curve" smooth="yes"/>
      <point x="776.569" y="410"/>
      <point x="838.667" y="368.441"/>
      <point x="838.667" y="295.667" type="curve" smooth="yes"/>
      <point x="838.667" y="199.748"/>
      <point x="728.862" y="126.762"/>
      <point x="618.333" y="60.6667" type="curve"/>
      <point x="801.667" y="60.6667" type="line"/>
      <point x="812.667" y="114" type="line"/>
      <point x="852.333" y="114" type="line"/>
      <point x="852.333" y="1" type="line"/>
    </contour>
  </outline>
</glyph>
<glyph name="Uacute" format="2">
  <advance width="723"/>
  <unicode hex="00DA"/>
  <outline>
    <contour>
      <point x="25" y="622.667" type="line"/>
      <point x="25" y="671" type="line"/>
      <point x="307" y="671" type="line"/>
      <point x="307" y="622.667" type="line"/>
      <point x="252" y="618" type="line" smooth="yes"/>
      <point x="240.667" y="617"/>
      <point x="230.333" y="608.667"/>
      <point x="230.333" y="596" type="curve" smooth="yes"/>
      <point x="230.333" y="247" type="line" smooth="yes"/>
      <point x="230.333" y="121.333"/>
      <point x="278.667" y="62"/>
      <point x="394.667" y="62" type="curve" smooth="yes"/>
      <point x="506.667" y="62"/>
      <point x="550.333" y="133.333"/>
      <point x="550.333" y="247" type="curve" smooth="yes"/>
      <point x="550.333" y="596" type="line" smooth="yes"/>
      <point x="550.333" y="608.667"/>
      <point x="540.333" y="617"/>
      <point x="528.333" y="618" type="curve" smooth="yes"/>
      <point x="471.333" y="622.667" type="line"/>
      <point x="471.333" y="671" type="line"/>
      <point x="697" y="671" type="line"/>
      <point x="697" y="622.667" type="line"/>
      <point x="642.333" y="618" type="line" smooth="yes"/>
      <point x="631" y="617"/>
      <point x="620.667" y="608.667"/>
      <point x="620.667" y="596" type="curve" smooth="yes"/>
      <point x="620.667" y="243.667" type="line" smooth="yes"/>
      <point x="620.667" y="57"/>
      <point x="532.333" y="-15.6667"/>
      <point x="352.333" y="-15.6667" type="curve" smooth="yes"/>
      <point x="183.667" y="-15.6667"/>
      <point x="101" y="73"/>
      <point x="101" y="243.667" type="curve" smooth="yes"/>
      <point x="101" y="596" type="line" smooth="yes"/>
      <point x="101" y="608.667"/>
      <point x="90.6667" y="617"/>
      <point x="78.6667" y="618" type="curve" smooth="yes"/>
    </contour>
    <contour>
      <point x="312" y="746.667" type="line"/>
      <point x="446.667" y="899" type="line" smooth="yes"/>
      <point x="466" y="920.667"/>
      <point x="479.667" y="929.333"/>
      <point x="507" y="929.333" type="curve" smooth="yes"/>
      <point x="545.553" y="929.333"/>
      <point x="561.333" y="904.529"/>
      <point x="561.333" y="879" type="curve" smooth="yes"/>
      <point x="561.333" y="864"/>
      <point x="549.337" y="845.327"/>
      <point x="536.333" y="837.667" type="curve" smooth="yes"/>
      <point x="377.333" y="746.667" type="line"/>
    </contour>
  </outline>
</glyph>
<glyph name="ccedilla" format="2">
  <advance width="489"/>
  <unicode hex="00E7"/>
  <outline>
    <contour>
      <point x="32.6667" y="235" type="curve" smooth="yes"/>
      <point x="32.6667" y="391.333"/>
      <point x="140" y="498.333"/>
      <point x="285" y="498.333" type="curve" smooth="yes"/>
      <point x="381" y="498.333"/>
      <point x="452" y="459"/>
      <point x="452" y="391.333" type="curve" smooth="yes"/>
      <point x="452" y="349.333"/>
      <point x="420.667" y="321.667"/>
      <point x="385" y="321.667" type="curve" smooth="yes"/>
      <point x="349.667" y="321.667"/>
      <point x="334.667" y="332.667"/>
      <point x="323.667" y="341.333" type="curve"/>
      <point x="323.667" y="443" type="line"/>
      <point x="318" y="447"/>
      <point x="307" y="450.333"/>
      <point x="297" y="450.333" type="curve" smooth="yes"/>
      <point x="222.333" y="450.333"/>
      <point x="164.667" y="376"/>
      <point x="164.667" y="258.667" type="curve" smooth="yes"/>
      <point x="164.667" y="143.667"/>
      <point x="221.333" y="64.6667"/>
      <point x="321" y="64.6667" type="curve" smooth="yes"/>
      <point x="380" y="64.6667"/>
      <point x="436.667" y="97"/>
      <point x="457.667" y="111.667" type="curve"/>
      <point x="457.667" y="41.3333" type="line"/>
      <point x="419.667" y="19.6667"/>
      <point x="361" y="-12.3333"/>
      <point x="270.333" y="-12.3333" type="curve" smooth="yes"/>
      <point x="117.667" y="-12.3333"/>
      <point x="32.6667" y="99"/>
    </contour>
    <contour>
      <point x="191.333" y="-236.889" type="curve"/>
      <point x="191.333" y="-190.556" type="line"/>
      <point x="197.333" y="-191.889"/>
      <point x="230.667" y="-198.556"/>
      <point x="253.667" y="-198.556" type="curve" smooth="yes"/>
      <point x="281.667" y="-198.556"/>
      <point x="314.333" y="-191.556"/>
      <point x="314.333" y="-162.222" type="curve" smooth="yes"/>
      <point x="314.333" y="-137.556"/>
      <point x="295" y="-127.222"/>
      <point x="272.667" y="-127.222" type="curve" smooth="yes"/>
      <point x="264.667" y="-127.222"/>
      <point x="250.333" y="-129.222"/>
      <point x="247" y="-130.556" type="curve"/>
      <point x="247" y="-3.55567" type="line"/>
      <point x="293.667" y="-3.55567" type="line"/>
      <point x="293.667" y="-77.5557" type="line"/>
      <point x="298.333" y="-75.889"/>
      <point x="303.667" y="-74.889"/>
      <point x="310.667" y="-74.889" type="curve" smooth="yes"/>
      <point x="356.667" y="-74.889"/>
      <point x="390.667" y="-98.5557"/>
      <point x="390.667" y="-149.222" type="curve" smooth="yes"/>
      <point x="390.667" y="-214.222"/>
      <point x="339.333" y="-247.556"/>
      <point x="270" y="-247.556" type="curve" smooth="yes"/>
      <point x="233.667" y="-247.556"/>
      <point x="198.333" y="-238.889"/>
    </contour>
  </outline>
</glyph>
<glyph name="eth" format="2">
  <advance width="565"/>
  <unicode hex="00F0"/>
  <outline>
    <contour>
      <point x="32.6667" y="240.667" type="curve" smooth="yes"/>
      <point x="32.6667" y="379.115"/>
      <point x="122.28" y="498"/>
      <point x="272.667" y="498" type="curve" smooth="yes"/>
      <point x="299.795" y="498"/>
      <point x="327.937" y="490.667"/>
      <point x="343.667" y="485.333" type="curve"/>
      <point x="333.069" y="501.626"/>
      <point x="293.305" y="559.506"/>
      <point x="273.333" y="582" type="curve"/>
      <point x="151" y="514" type="line"/>
      <point x="127.667" y="558" type="line"/>
      <point x="238" y="619" type="line"/>
      <point x="204.333" y="655.667" type="line"/>
      <point x="117" y="661.333" type="line"/>
      <point x="117" y="700" type="line"/>
      <point x="262.667" y="747" type="line"/>
      <point x="338" y="672.333" type="line"/>
      <point x="450.333" y="734.667" type="line"/>
      <point x="474.667" y="690.667" type="line"/>
      <point x="369.333" y="632" type="line"/>
      <point x="393.436" y="604.931"/>
      <point x="532.333" y="449.988"/>
      <point x="532.333" y="265" type="curve" smooth="yes"/>
      <point x="532.333" y="94.4377"/>
      <point x="435.583" y="-11.6667"/>
      <point x="289.333" y="-11.6667" type="curve" smooth="yes"/>
      <point x="119.161" y="-11.6667"/>
      <point x="32.6667" y="99.2137"/>
    </contour>
    <contour>
      <point x="165" y="239.667" type="curve" smooth="yes"/>
      <point x="165" y="139.599"/>
      <point x="192.071" y="40.3333"/>
      <point x="285.667" y="40.3333" type="curve" smooth="yes"/>
      <point x="378.039" y="40.3333"/>
      <point x="405" y="144.775"/>
      <point x="405" y="254.333" type="curve" smooth="yes"/>
      <point x="405" y="347.667"/>
      <point x="384" y="403.667"/>
      <point x="369.333" y="429.333" type="curve"/>
      <point x="361.961" y="432.836"/>
      <point x="334.665" y="448.667"/>
      <point x="305.333" y="448.667" type="curve" smooth="yes"/>
      <point x="203.333" y="448.667"/>
      <point x="165" y="349"/>
    </contour>
  </outline>
</glyph>
<glyph name="divide" format="2">
  <advance width="1000"/>
  <unicode hex="00F7"/>
  <outline>
    <contour>
      <point x="200" y="269" type="line"/>
      <point x="200" y="331" type="line"/>
      <point x="800" y="331" type="line"/>
      <point x="800" y="269" type="line"/>
    </contour>
    <contour>
      <point x="440" y="139" type="curve" smooth="yes"/>
      <point x="440" y="173.333"/>
      <point x="466.333" y="199"/>
      <point x="500" y="199" type="curve" smooth="yes"/>
      <point x="533.667" y="199"/>
      <point x="560" y="173.333"/>
      <point x="560" y="139" type="curve" smooth="yes"/>
      <point x="560" y="105.333"/>
      <point x="533.333" y="80"/>
      <point x="500" y="80" type="curve" smooth="yes"/>
      <point x="466.333" y="80"/>
      <point x="440" y="105.333"/>
    </contour>
    <contour>
      <point x="440" y="461" type="curve" smooth="yes"/>
      <point x="440" y="494.333"/>
      <point x="466.333" y="521"/>
      <point x="500" y="521" type="curve" smooth="yes"/>
      <point x="533.333" y="521"/>
      <point x="560" y="494.333"/>
      <point x="560" y="461" type="curve" smooth="yes"/>
      <point x="560" y="426.667"/>
      <point x="533.667" y="401"/>
      <point x="500" y="401" type="curve" smooth="yes"/>
      <point x="466.333" y="401"/>
      <point x="440" y="426.667"/>
    </contour>
  </outline>
</glyph>
<glyph name="oslash" format="2">
  <advance width="570"/>
  <unicode hex="00F8"/>
  <outline>
    <contour>
      <point x="33.3333" y="241" type="curve" smooth="yes"/>
      <point x="33.3333" y="399.561"/>
      <point x="136.251" y="498"/>
      <point x="289" y="498" type="curve" smooth="yes"/>
      <point x="326" y="498"/>
      <point x="358" y="492.333"/>
      <point x="386" y="481.333" type="curve"/>
      <point x="436" y="569.667" type="line"/>
      <point x="477.333" y="546.333" type="line"/>
      <point x="429.333" y="461.333" type="line"/>
      <point x="498.865" y="417.6"/>
      <point x="539.333" y="340.825"/>
      <point x="539.333" y="240" type="curve" smooth="yes"/>
      <point x="539.333" y="91.6606"/>
      <point x="443.484" y="-12.3333"/>
      <point x="283.667" y="-12.3333" type="curve" smooth="yes"/>
      <point x="242.333" y="-12.3333"/>
      <point x="206.667" y="-4.66667"/>
      <point x="175" y="8.66667" type="curve"/>
      <point x="124" y="-83" type="line"/>
      <point x="83" y="-57.3333" type="line"/>
      <point x="133" y="31.3333" type="line"/>
      <point x="71.3333" y="74"/>
      <point x="33.3333" y="146"/>
    </contour>
    <contour>
      <point x="167.667" y="244.667" type="curve" smooth="yes"/>
      <point x="167.667" y="203.277"/>
      <point x="172.782" y="160.941"/>
      <point x="185.333" y="125.333" type="curve"/>
      <point x="352" y="420" type="line"/>
      <point x="339.01" y="433.109"/>
      <point x="314.286" y="445"/>
      <point x="286" y="445" type="curve" smooth="yes"/>
      <point x="191.853" y="445"/>
      <point x="167.667" y="335.898"/>
    </contour>
    <contour>
      <point x="212.667" y="74.6667" type="line"/>
      <point x="230.179" y="54.7018"/>
      <point x="252.976" y="40.6667"/>
      <point x="286" y="40.6667" type="curve" smooth="yes"/>
      <point x="380.441" y="40.6667"/>
      <point x="404.667" y="148.559"/>
      <point x="404.667" y="241.667" type="curve" smooth="yes"/>
      <point x="404.667" y="287.536"/>
      <point x="397.451" y="336.417"/>
      <point x="381" y="374.667" type="curve"/>
    </contour>
  </outline>
</glyph>
<glyph name="Abreve" format="2">
  <advance width="682"/>
  <unicode hex="0102"/>
  <outline>
    <contour>
      <point x="5" y="0" type="line"/>
      <point x="5" y="48.3333" type="line"/>
      <point x="61.6667" y="58" type="line"/>
      <point x="288.667" y="687.333" type="line"/>
      <point x="389.667" y="687.333" type="line"/>
      <point x="615" y="75" type="line"/>
      <point x="620.077" y="62.3623"/>
      <point x="623.018" y="58.4339"/>
      <point x="636.667" y="55.6667" type="curve" smooth="yes"/>
      <point x="677" y="48.3333" type="line"/>
      <point x="677" y="0" type="line"/>
      <point x="413.667" y="0" type="line"/>
      <point x="413.667" y="48.3333" type="line"/>
      <point x="472.333" y="55" type="line"/>
      <point x="478.237" y="55.9326"/>
      <point x="482.667" y="61.3809"/>
      <point x="482.667" y="67.6667" type="curve"/>
      <point x="482.667" y="68.889"/>
      <point x="482.465" y="70.9831"/>
      <point x="481.667" y="72" type="curve"/>
      <point x="422.667" y="239" type="line"/>
      <point x="203" y="239" type="line"/>
      <point x="144.333" y="75.6667" type="line"/>
      <point x="143.544" y="74.6641"/>
      <point x="143.333" y="72.3333"/>
      <point x="143.333" y="71" type="curve"/>
      <point x="143.333" y="62.6471"/>
      <point x="151.336" y="55.9714"/>
      <point x="158.333" y="55" type="curve" smooth="yes"/>
      <point x="215.333" y="48.3333" type="line"/>
      <point x="215.333" y="0" type="line"/>
    </contour>
    <contour>
      <point x="185.333" y="905.667" type="curve"/>
      <point x="233" y="905.667" type="line"/>
      <point x="243.729" y="854.842"/>
      <point x="283.673" y="824"/>
      <point x="339.333" y="824" type="curve" smooth="yes"/>
      <point x="394.848" y="824"/>
      <point x="434.296" y="853.994"/>
      <point x="445" y="905.667" type="curve"/>
      <point x="493" y="905.667" type="line"/>
      <point x="493" y="809.599"/>
      <point x="432.598" y="747.333"/>
      <point x="339" y="747.333" type="curve" smooth="yes"/>
      <point x="245.333" y="747.333"/>
      <point x="185.333" y="809.333"/>
    </contour>
    <contour>
      <point x="221.667" y="294" type="line"/>
      <point x="400" y="294" type="line"/>
      <point x="310" y="541.333" type="line"/>
    </contour>
  </outline>
</glyph>
<glyph name="Aogonek" format="2">
  <advance width="682"/>
  <unicode hex="0104"/>
  <outline>
    <contour>
      <point x="5" y="0" type="line"/>
      <point x="5" y="48.3333" type="line"/>
      <point x="61.6667" y="58" type="line"/>
      <point x="288.667" y="687.333" type="line"/>
      <point x="389.667" y="687.333" type="line"/>
      <point x="615" y="75" type="line"/>
      <point x="620.077" y="62.3623"/>
      <point x="623.018" y="58.4339"/>
      <point x="636.667" y="55.6667" type="curve" smooth="yes"/>
      <point x="677" y="48.3333" type="line"/>
      <point x="677" y="0" type="line"/>
      <point x="413.667" y="0" type="line"/>
      <point x="413.667" y="48.3333" type="line"/>
      <point x="472.333" y="55" type="line"/>
      <point x="478.237" y="55.9326"/>
      <point x="482.667" y="61.3809"/>
      <point x="482.667" y="67.6667" type="curve"/>
      <point x="482.667" y="68.889"/>
      <point x="482.465" y="70.9831"/>
      <point x="481.667" y="72" type="curve"/>
      <point x="422.667" y="239" type="line"/>
      <point x="203" y="239" type="line"/>
      <point x="144.333" y="75.6667" type="line"/>
      <point x="143.544" y="74.6641"/>
      <point x="143.333" y="72.3333"/>
      <point x="143.333" y="71" type="curve"/>
      <point x="143.333" y="62.6471"/>
      <point x="151.336" y="55.9714"/>
      <point x="158.333" y="55" type="curve" smooth="yes"/>
      <point x="215.333" y="48.3333" type="line"/>
      <point x="215.333" y="0" type="line"/>
    </contour>
    <contour>
      <point x="221.667" y="294" type="line"/>
      <point x="400" y="294" type="line"/>
      <point x="310" y="541.333" type="line"/>
    </contour>
    <contour>
      <point x="453" y="-113.522" type="curve" smooth="yes"/>
      <point x="453" y="-68.1888"/>
      <point x="485.667" y="-23.1888"/>
      <point x="530.333" y="6.8112" type="curve"/>
      <point x="588" y="6.8112" type="line"/>
      <point x="551.333" y="-20.1888"/>
      <point x="528" y="-51.8555"/>
      <point x="528" y="-89.1888" type="curve" smooth="yes"/>
      <point x="528" y="-122.855"/>
      <point x="547.333" y="-141.522"/>
      <point x="578" y="-141.522" type="curve" smooth="yes"/>
      <point x="595.667" y="-141.522"/>
      <point x="615" y="-132.522"/>
      <point x="626" y="-123.189" type="curve"/>
      <point x="652.333" y="-166.855" type="line"/>
      <point x="625" y="-187.189"/>
      <point x="595" y="-196.855"/>
      <point x="558.667" y="-196.855" type="curve" smooth="yes"/>
      <point x="496.333" y="-196.855"/>
      <point x="453" y="-165.855"/>
    </contour>
  </outline>
</glyph>
<glyph name="cacute" format="2">
  <advance width="489"/>
  <unicode hex="0107"/>
  <outline>
    <contour>
      <point x="32.6667" y="235" type="curve" smooth="yes"/>
      <point x="32.6667" y="391.333"/>
      <point x="140" y="498.333"/>
      <point x="285" y="498.333" type="curve" smooth="yes"/>
      <point x="381" y="498.333"/>
      <point x="452" y="459"/>
      <point x="452" y="391.333" type="curve" smooth="yes"/>
      <point x="452" y="349.333"/>
      <point x="420.667" y="321.667"/>
      <point x="385" y="321.667" type="curve" smooth="yes"/>
      <point x="349.667" y="321.667"/>
      <point x="334.667" y="332.667"/>
      <point x="323.667" y="341.333" type="curve"/>
      <point x="323.667" y="443" type="line"/>
      <point x="318" y="447"/>
      <point x="307" y="450.333"/>
      <point x="297" y="450.333" type="curve" smooth="yes"/>
      <point x="222.333" y="450.333"/>
      <point x="164.667" y="376"/>
      <point x="164.667" y="258.667" type="curve" smooth="yes"/>
      <point x="164.667" y="143.667"/>
      <point x="221.333" y="64.6667"/>
      <point x="321" y="64.6667" type="curve" smooth="yes"/>
      <point x="380" y="64.6667"/>
      <point x="436.667" y="97"/>
      <point x="457.667" y="111.667" type="curve"/>
      <point x="457.667" y="41.3333" type="line"/>
      <point x="419.667" y="19.6667"/>
      <point x="361" y="-12.3333"/>
      <point x="270.333" y="-12.3333" type="curve" smooth="yes"/>
      <point x="117.667" y="-12.3333"/>
      <point x="32.6667" y="99"/>
    </contour>
    <contour>
      <point x="225.667" y="558.333" type="line"/>
      <point x="361" y="710.667" type="line" smooth="yes"/>
      <point x="380.333" y="732.333"/>
      <point x="393.333" y="741"/>
      <point x="420.667" y="741" type="curve" smooth="yes"/>
      <point x="459.219" y="741"/>
      <point x="475" y="716.196"/>
      <point x="475" y="690.667" type="curve" smooth="yes"/>
      <point x="475" y="675.667"/>
      <point x="463.004" y="656.994"/>
      <point x="450" y="649.333" type="curve" smooth="yes"/>
      <point x="291" y="558.333" type="line"/>
    </contour>
  </outline>
</glyph>
<glyph name="dcroat" format="2">
  <advance width="593"/>
  <unicode hex="0111"/>
  <outline>
    <contour>
      <point x="32.6667" y="231.667" type="curve" smooth="yes"/>
      <point x="32.6667" y="398.594"/>
      <point x="138.317" y="498.333"/>
      <point x="291.667" y="498.333" type="curve" smooth="yes"/>
      <point x="328" y="498.333"/>
      <point x="375.667" y="490.333"/>
      <point x="384.667" y="488.333" type="curve"/>
      <point x="384.667" y="537" type="line"/>
      <point x="239.667" y="537" type="line"/>
      <point x="239.667" y="595.667" type="line"/>
      <point x="384.667" y="595.667" type="line"/>
      <point x="384.667" y="654.667" type="line"/>
      <point x="310" y="654.667" type="line"/>
      <point x="310" y="693" type="line"/>
      <point x="457" y="739.333" type="line"/>
      <point x="504.333" y="739.333" type="line"/>
      <point x="504.333" y="595.667" type="line"/>
      <point x="594.333" y="595.667" type="line"/>
      <point x="594.333" y="537" type="line"/>
      <point x="504.333" y="537" type="line"/>
      <point x="504.333" y="69.6667" type="line" smooth="yes"/>
      <point x="504.333" y="57.6667"/>
      <point x="514.328" y="48.2562"/>
      <point x="526" y="47.3333" type="curve" smooth="yes"/>
      <point x="568.333" y="44.3333" type="line"/>
      <point x="568.333" y="0" type="line"/>
      <point x="384.667" y="0" type="line"/>
      <point x="384.667" y="57" type="line"/>
      <point x="361.462" y="37.6631"/>
      <point x="298.318" y="-11.6667"/>
      <point x="227.333" y="-11.6667" type="curve" smooth="yes"/>
      <point x="103.352" y="-11.6667"/>
      <point x="32.6667" y="95.04"/>
    </contour>
    <contour>
      <point x="163" y="252.333" type="curve" smooth="yes"/>
      <point x="163" y="147.238"/>
      <point x="205.482" y="72.3333"/>
      <point x="298" y="72.3333" type="curve" smooth="yes"/>
      <point x="336.333" y="72.3333"/>
      <point x="375" y="91"/>
      <point x="384.333" y="96.6667" type="curve"/>
      <point x="384.333" y="427.333" type="line"/>
      <point x="376.333" y="430.333"/>
      <point x="339" y="442.333"/>
      <point x="308.667" y="442.333" type="curve" smooth="yes"/>
      <point x="209.678" y="442.333"/>
      <point x="163" y="358.106"/>
    </contour>
  </outline>
</glyph>
<glyph name="Edotaccent" format="2">
  <advance width="593"/>
  <unicode hex="0116"/>
  <outline>
    <contour>
      <point x="28" y="0" type="line"/>
      <point x="28" y="48.3333" type="line"/>
      <point x="82" y="53" type="line" smooth="yes"/>
      <point x="94" y="54"/>
      <point x="104.667" y="62.3333"/>
      <point x="104.667" y="75" type="curve" smooth="yes"/>
      <point x="104.667" y="596" type="line" smooth="yes"/>
      <point x="104.667" y="608.667"/>
      <point x="94" y="617"/>
      <point x="82" y="618" type="curve" smooth="yes"/>
      <point x="28" y="622.667" type="line"/>
      <point x="28" y="671" type="line"/>
      <point x="530" y="671" type="line"/>
      <point x="530" y="514.667" type="line"/>
      <point x="462" y="514.667" type="line"/>
      <point x="446.333" y="597.333" type="line" smooth="yes"/>
      <point x="444.333" y="607"/>
      <point x="437.667" y="616.333"/>
      <point x="428.333" y="616.333" type="curve" smooth="yes"/>
      <point x="232" y="616.333" type="line"/>
      <point x="232" y="376.667" type="line"/>
      <point x="361.333" y="376.667" type="line" smooth="yes"/>
      <point x="370.667" y="376.667"/>
      <point x="377.333" y="386"/>
      <point x="378.667" y="394.333" type="curve" smooth="yes"/>
      <point x="388" y="462.667" type="line"/>
      <point x="446.333" y="462.667" type="line"/>
      <point x="446.333" y="231.667" type="line"/>
      <point x="388" y="231.667" type="line"/>
      <point x="379" y="300" type="line" smooth="yes"/>
      <point x="378" y="308"/>
      <point x="371.333" y="318"/>
      <point x="361.667" y="318" type="curve" smooth="yes"/>
      <point x="232.333" y="318" type="line"/>
      <point x="232.333" y="56.3333" type="line"/>
      <point x="462" y="56.3333" type="line" smooth="yes"/>
      <point x="470" y="56.3333"/>
      <point x="478.667" y="68.3333"/>
      <point x="479.667" y="75.3333" type="curve" smooth="yes"/>
      <point x="495.667" y="177.667" type="line"/>
      <point x="562.333" y="177.667" type="line"/>
      <point x="562.333" y="0" type="line"/>
    </contour>
    <contour>
      <point x="215" y="814" type="curve" smooth="yes"/>
      <point x="215" y="849.667"/>
      <point x="241.667" y="878.333"/>
      <point x="279" y="878.333" type="curve" smooth="yes"/>
      <point x="315" y="878.333"/>
      <point x="343" y="850.333"/>
      <point x="343" y="814" type="curve" smooth="yes"/>
      <point x="343" y="778.667"/>
      <point x="315.667" y="750"/>
      <point x="279" y="750" type="curve" smooth="yes"/>
      <point x="242.333" y="750"/>
      <point x="215" y="777.333"/>
    </contour>
  </outline>
</glyph>
<glyph name="edotaccent" format="2">
  <advance width="515"/>
  <unicode hex="0117"/>
  <outline>
    <contour>
      <point x="32.6667" y="237" type="curve" smooth="yes"/>
      <point x="32.6667" y="388"/>
      <point x="128" y="498.333"/>
      <point x="279" y="498.333" type="curve" smooth="yes"/>
      <point x="425" y="498.333"/>
      <point x="484" y="396.333"/>
      <point x="484" y="277.667" type="curve" smooth="yes"/>
      <point x="484" y="252.333" type="line"/>
      <point x="157" y="252.333" type="line"/>
      <point x="157" y="139"/>
      <point x="210" y="63.3333"/>
      <point x="315" y="63.3333" type="curve" smooth="yes"/>
      <point x="403" y="63.3333"/>
      <point x="467.333" y="110.667"/>
      <point x="483.667" y="121.333" type="curve"/>
      <point x="483.667" y="47.6667" type="line"/>
      <point x="466.667" y="37.3333"/>
      <point x="390.667" y="-12.3333"/>
      <point x="279.667" y="-12.3333" type="curve" smooth="yes"/>
      <point x="117.667" y="-12.3333"/>
      <point x="32.6667" y="95.3333"/>
    </contour>
    <contour>
      <point x="161.667" y="304.333" type="curve"/>
      <point x="355" y="304.333" type="line"/>
      <point x="355" y="326.333" type="line" smooth="yes"/>
      <point x="355" y="391.667"/>
      <point x="329.667" y="442.333"/>
      <point x="268" y="442.333" type="curve" smooth="yes"/>
      <point x="192.333" y="442.333"/>
      <point x="163.333" y="371.667"/>
    </contour>
    <contour>
      <point x="215" y="625.667" type="curve" smooth="yes"/>
      <point x="215" y="661.333"/>
      <point x="241.667" y="690"/>
      <point x="279" y="690" type="curve" smooth="yes"/>
      <point x="315" y="690"/>
      <point x="343" y="662"/>
      <point x="343" y="625.667" type="curve" smooth="yes"/>
      <point x="343" y="590.333"/>
      <point x="315.667" y="561.667"/>
      <point x="279" y="561.667" type="curve" smooth="yes"/>
      <point x="242.333" y="561.667"/>
      <point x="215" y="589"/>
    </contour>
  </outline>
</glyph>
<glyph name="ecaron" format="2">
  <advance width="515"/>
  <unicode hex="011B"/>
  <outline>
    <contour>
      <point x="32.6667" y="237" type="curve" smooth="yes"/>
      <point x="32.6667" y="388"/>
      <point x="128" y="498.333"/>
      <point x="279" y="498.333" type="curve" smooth="yes"/>
      <point x="425" y="498.333"/>
      <point x="484" y="396.333"/>
      <point x="484" y="277.667" type="curve" smooth="yes"/>
      <point x="484" y="252.333" type="line"/>
      <point x="157" y="252.333" type="line"/>
      <point x="157" y="139"/>
      <point x="210" y="63.3333"/>
      <point x="315" y="63.3333" type="curve" smooth="yes"/>
      <point x="403" y="63.3333"/>
      <point x="467.333" y="110.667"/>
      <point x="483.667" y="121.333" type="curve"/>
      <point x="483.667" y="47.6667" type="line"/>
      <point x="466.667" y="37.3333"/>
      <point x="390.667" y="-12.3333"/>
      <point x="279.667" y="-12.3333" type="curve" smooth="yes"/>
      <point x="117.667" y="-12.3333"/>
      <point x="32.6667" y="95.3333"/>
    </contour>
    <contour>
      <point x="111" y="728.667" type="line"/>
      <point x="186.667" y="728.667" type="line"/>
      <point x="279.333" y="633" type="line"/>
      <point x="371.667" y="728.667" type="line"/>
      <point x="447" y="728.667" type="line"/>
      <point x="331" y="558.333" type="line"/>
      <point x="227" y="558.333" type="line"/>
    </contour>
    <contour>
      <point x="161.667" y="304.333" type="curve"/>
      <point x="355" y="304.333" type="line"/>
      <point x="355" y="326.333" type="line" smooth="yes"/>
      <point x="355" y="391.667"/>
      <point x="329.667" y="442.333"/>
      <point x="268" y="442.333" type="curve" smooth="yes"/>
      <point x="192.333" y="442.333"/>
      <point x="163.333" y="371.667"/>
    </contour>
  </outline>
</glyph>
<glyph name="Gcommaaccent" format="2">
  <advance width="708"/>
  <unicode hex="0122"/>
  <outline>
    <contour>
      <point x="37.6667" y="336.667" type="curve" smooth="yes"/>
      <point x="37.6667" y="549.667"/>
      <point x="180.667" y="686.667"/>
      <point x="397" y="686.667" type="curve" smooth="yes"/>
      <point x="504.04" y="686.667"/>
      <point x="583.899" y="657.684"/>
      <point x="612.333" y="649.333" type="curve"/>
      <point x="612.333" y="480" type="line"/>
      <point x="540.333" y="480" type="line"/>
      <point x="521.667" y="582" type="line"/>
      <point x="520.333" y="591.333"/>
      <point x="511.667" y="601.333"/>
      <point x="501.667" y="605.667" type="curve"/>
      <point x="494" y="609.333" type="line" smooth="yes"/>
      <point x="477.333" y="617"/>
      <point x="443" y="624"/>
      <point x="420.667" y="624" type="curve" smooth="yes"/>
      <point x="267" y="624"/>
      <point x="179" y="511.333"/>
      <point x="179" y="341" type="curve" smooth="yes"/>
      <point x="179" y="164.667"/>
      <point x="267.667" y="53"/>
      <point x="427.333" y="53" type="curve" smooth="yes"/>
      <point x="445.667" y="53"/>
      <point x="476.667" y="57.3333"/>
      <point x="486.333" y="61" type="curve"/>
      <point x="486.333" y="254.333" type="line" smooth="yes"/>
      <point x="486.333" y="266.667"/>
      <point x="477" y="275"/>
      <point x="464" y="276" type="curve" smooth="yes"/>
      <point x="397" y="281" type="line"/>
      <point x="397" y="329.333" type="line"/>
      <point x="685.333" y="329.333" type="line"/>
      <point x="685.333" y="281" type="line"/>
      <point x="634.333" y="276" type="line" smooth="yes"/>
      <point x="620.667" y="275"/>
      <point x="612" y="266.667"/>
      <point x="612" y="254.333" type="curve" smooth="yes"/>
      <point x="612" y="29" type="line"/>
      <point x="592.333" y="21.6667"/>
      <point x="504" y="-15.6667"/>
      <point x="387.333" y="-15.6667" type="curve" smooth="yes"/>
      <point x="179.333" y="-15.6667"/>
      <point x="37.6667" y="129"/>
    </contour>
    <contour>
      <point x="315" y="-130" type="curve" smooth="yes"/>
      <point x="315" y="-94.3333"/>
      <point x="345.333" y="-75.6667"/>
      <point x="378.667" y="-75.6667" type="curve" smooth="yes"/>
      <point x="428" y="-75.6667"/>
      <point x="459.667" y="-112"/>
      <point x="459.667" y="-159.667" type="curve" smooth="yes"/>
      <point x="459.667" y="-230.222"/>
      <point x="397.36" y="-275.051"/>
      <point x="324.333" y="-288.667" type="curve"/>
      <point x="324.333" y="-252" type="line"/>
      <point x="365.667" y="-240"/>
      <point x="395" y="-213"/>
      <point x="395" y="-171.667" type="curve"/>
      <point x="333.333" y="-171.667" type="line"/>
      <point x="322" y="-161"/>
      <point x="315" y="-146"/>
    </contour>
  </outline>
</glyph>
<glyph name="ibreve" format="2">
  <advance width="323"/>
  <unicode hex="012D"/>
  <outline>
    <contour>
      <point x="6.83333" y="716.667" type="curve"/>
      <point x="54.5" y="716.667" type="line"/>
      <point x="65.2288" y="665.842"/>
      <point x="105.173" y="635"/>
      <point x="160.833" y="635" type="curve" smooth="yes"/>
      <point x="216.348" y="635"/>
      <point x="255.796" y="664.994"/>
      <point x="266.5" y="716.667" type="curve"/>
      <point x="314.5" y="716.667" type="line"/>
      <point x="314.5" y="620.599"/>
      <point x="254.098" y="558.333"/>
      <point x="160.5" y="558.333" type="curve" smooth="yes"/>
      <point x="66.8333" y="558.333"/>
      <point x="6.83333" y="620.333"/>
    </contour>
    <contour>
      <point x="32.6667" y="0" type="line"/>
      <point x="32.6667" y="44.3333" type="line"/>
      <point x="79.6667" y="47.3333" type="line" smooth="yes"/>
      <point x="91.3333" y="48.3333"/>
      <point x="101.333" y="57.6667"/>
      <point x="101.333" y="69.6667" type="curve" smooth="yes"/>
      <point x="101.333" y="409.667" type="line"/>
      <point x="35.6667" y="409.667" type="line"/>
      <point x="35.6667" y="448" type="line"/>
      <point x="173.667" y="494" type="line"/>
      <point x="221" y="494" type="line"/>
      <point x="221" y="69.6667" type="line" smooth="yes"/>
      <point x="221" y="57.6667"/>
      <point x="231.667" y="48.3333"/>
      <point x="243.333" y="47.3333" type="curve" smooth="yes"/>
      <point x="292.333" y="44.3333" type="line"/>
      <point x="292.333" y="0" type="line"/>
    </contour>
  </outline>
</glyph>
<glyph name="Iogonek" format="2">
  <advance width="349"/>
  <unicode hex="012E"/>
  <outline>
    <contour>
      <point x="26.3333" y="0" type="line"/>
      <point x="26.3333" y="48.3333" type="line"/>
      <point x="87.6667" y="53" type="line" smooth="yes"/>
      <point x="99.6667" y="54"/>
      <point x="109.333" y="62.3333"/>
      <point x="109.333" y="75" type="curve" smooth="yes"/>
      <point x="109.333" y="596" type="line" smooth="yes"/>
      <point x="109.333" y="608.667"/>
      <point x="99.6667" y="616.667"/>
      <point x="87.6667" y="617.667" type="curve" smooth="yes"/>
      <point x="26.3333" y="622.333" type="line"/>
      <point x="26.3333" y="671" type="line"/>
      <point x="322.333" y="671" type="line"/>
      <point x="322.333" y="622.333" type="line"/>
      <point x="260.667" y="617.667" type="line" smooth="yes"/>
      <point x="249.667" y="616.667"/>
      <point x="238.333" y="608.333"/>
      <point x="238.333" y="596" type="curve" smooth="yes"/>
      <point x="238.333" y="75" type="line" smooth="yes"/>
      <point x="238.333" y="62.6667"/>
      <point x="249.667" y="54"/>
      <point x="260.667" y="53" type="curve" smooth="yes"/>
      <point x="322.333" y="48.3333" type="line"/>
      <point x="322.333" y="0" type="line"/>
    </contour>
    <contour>
      <point x="67.8333" y="-113.522" type="curve" smooth="yes"/>
      <point x="67.8333" y="-68.1888"/>
      <point x="101.167" y="-23.1888"/>
      <point x="145.833" y="6.8112" type="curve"/>
      <point x="202.833" y="6.8112" type="line"/>
      <point x="166.167" y="-20.1888"/>
      <point x="143.5" y="-51.8555"/>
      <point x="143.5" y="-89.1888" type="curve" smooth="yes"/>
      <point x="143.5" y="-122.855"/>
      <point x="162.833" y="-141.522"/>
      <point x="193.5" y="-141.522" type="curve" smooth="yes"/>
      <point x="211.167" y="-141.522"/>
      <point x="229.833" y="-132.522"/>
      <point x="240.833" y="-123.189" type="curve"/>
      <point x="267.167" y="-166.855" type="line"/>
      <point x="239.833" y="-187.189"/>
      <point x="210.5" y="-196.855"/>
      <point x="174.167" y="-196.855" type="curve" smooth="yes"/>
      <point x="111.833" y="-196.855"/>
      <point x="67.8333" y="-165.855"/>
    </contour>
  </outline>
</glyph>
<glyph name="Kcommaaccent" format="2">
  <advance width="667"/>
  <unicode hex="0136"/>
  <outline>
    <contour>
      <point x="30" y="0.333333" type="line"/>
      <point x="30" y="48.6667" type="line"/>
      <point x="83" y="53.3333" type="line" smooth="yes"/>
      <point x="95" y="54.3333"/>
      <point x="104.667" y="62.6667"/>
      <point x="104.667" y="75.3333" type="curve" smooth="yes"/>
      <point x="104.667" y="596.333" type="line" smooth="yes"/>
      <point x="104.667" y="609"/>
      <point x="95" y="617.333"/>
      <point x="83" y="618.333" type="curve" smooth="yes"/>
      <point x="30" y="623" type="line"/>
      <point x="30" y="671.333" type="line"/>
      <point x="310" y="671.333" type="line"/>
      <point x="310" y="623" type="line"/>
      <point x="255.667" y="618.333" type="line" smooth="yes"/>
      <point x="243.667" y="617.333"/>
      <point x="233.667" y="609"/>
      <point x="233.667" y="596.333" type="curve" smooth="yes"/>
      <point x="233.667" y="341" type="line"/>
      <point x="264.333" y="341" type="line"/>
      <point x="480.333" y="604.333" type="line"/>
      <point x="481.512" y="605.717"/>
      <point x="482.452" y="607.861"/>
      <point x="482.452" y="610" type="curve" smooth="yes"/>
      <point x="482.452" y="614.466"/>
      <point x="479.074" y="617.797"/>
      <point x="474.333" y="618" type="curve"/>
      <point x="419.333" y="623" type="line"/>
      <point x="419.333" y="671.333" type="line"/>
      <point x="642.667" y="671.333" type="line"/>
      <point x="642.667" y="623" type="line"/>
      <point x="573.333" y="616" type="line"/>
      <point x="381.333" y="386.667" type="line"/>
      <point x="596" y="54" type="line"/>
      <point x="667.333" y="48.3333" type="line"/>
      <point x="667.333" y="0" type="line"/>
      <point x="464.333" y="0" type="line"/>
      <point x="464.333" y="35.3333" type="line"/>
      <point x="293.667" y="295" type="line"/>
      <point x="233.667" y="295" type="line"/>
      <point x="233.667" y="75.3333" type="line" smooth="yes"/>
      <point x="233.667" y="62.6667"/>
      <point x="243.667" y="54.3333"/>
      <point x="255.667" y="53.3333" type="curve" smooth="yes"/>
      <point x="310" y="48.6667" type="line"/>
      <point x="310" y="0.333333" type="line"/>
    </contour>
    <contour>
      <point x="274.5" y="-114.333" type="curve" smooth="yes"/>
      <point x="274.5" y="-78.6667"/>
      <point x="304.833" y="-60"/>
      <point x="338.167" y="-60" type="curve" smooth="yes"/>
      <point x="387.5" y="-60"/>
      <point x="419.167" y="-96.3333"/>
      <point x="419.167" y="-144" type="curve" smooth="yes"/>
      <point x="419.167" y="-214.555"/>
      <point x="357.527" y="-259.384"/>
      <point x="284.5" y="-273" type="curve"/>
      <point x="284.5" y="-236.333" type="line"/>
      <point x="325.833" y="-224.333"/>
      <point x="355.167" y="-197.333"/>
      <point x="355.167" y="-156" type="curve"/>
      <point x="292.833" y="-156" type="line"/>
      <point x="281.5" y="-145.333"/>
      <point x="274.5" y="-130.333"/>
    </contour>
  </outline>
</glyph>
<glyph name="kcommaaccent" format="2">
  <advance width="572"/>
  <unicode hex="0137"/>
  <outline>
    <contour>
      <point x="18" y="654.333" type="line"/>
      <point x="18" y="692.667" type="line"/>
      <point x="162" y="739" type="line"/>
      <point x="209.667" y="739" type="line"/>
      <point x="209.667" y="258.667" type="line"/>
      <point x="231" y="258.667" type="line"/>
      <point x="369.333" y="420.667" type="line"/>
      <point x="371.283" y="422.822"/>
      <point x="372.268" y="425.73"/>
      <point x="372.268" y="428.667" type="curve" smooth="yes"/>
      <point x="372.268" y="433.586"/>
      <point x="368.157" y="436.79"/>
      <point x="362" y="437.667" type="curve"/>
      <point x="323" y="441.667" type="line"/>
      <point x="323" y="486" type="line"/>
      <point x="526.333" y="486" type="line"/>
      <point x="526.333" y="441.667" type="line"/>
      <point x="461" y="434" type="line"/>
      <point x="345.667" y="305.667" type="line"/>
      <point x="505.667" y="49.6667" type="line"/>
      <point x="562.667" y="44.3333" type="line"/>
      <point x="562.667" y="0" type="line"/>
      <point x="374.667" y="0" type="line"/>
      <point x="374.667" y="40.3333" type="line"/>
      <point x="259.667" y="226.333" type="line"/>
      <point x="209.667" y="226.333" type="line"/>
      <point x="209.667" y="69.6667" type="line" smooth="yes"/>
      <point x="209.667" y="57.6667"/>
      <point x="219" y="48.3333"/>
      <point x="231.333" y="47.3333" type="curve" smooth="yes"/>
      <point x="272.333" y="44.3333" type="line"/>
      <point x="272.333" y="0" type="line"/>
      <point x="24" y="0" type="line"/>
      <point x="24" y="44.3333" type="line"/>
      <point x="68.3333" y="47.3333" type="line" smooth="yes"/>
      <point x="80" y="48.3333"/>
      <point x="90" y="57.6667"/>
      <point x="90" y="69.6667" type="curve" smooth="yes"/>
      <point x="90" y="654.333" type="line"/>
    </contour>
    <contour>
      <point x="223" y="-111.333" type="curve" smooth="yes"/>
      <point x="223" y="-75.6667"/>
      <point x="253.333" y="-57"/>
      <point x="286.667" y="-57" type="curve" smooth="yes"/>
      <point x="336" y="-57"/>
      <point x="367.667" y="-93.3333"/>
      <point x="367.667" y="-141" type="curve" smooth="yes"/>
      <point x="367.667" y="-211.555"/>
      <point x="305.36" y="-256.384"/>
      <point x="232.333" y="-270" type="curve"/>
      <point x="232.333" y="-233.333" type="line"/>
      <point x="273.667" y="-221.333"/>
      <point x="303" y="-194.333"/>
      <point x="303" y="-153" type="curve"/>
      <point x="241.333" y="-153" type="line"/>
      <point x="230" y="-142.333"/>
      <point x="223" y="-127.333"/>
    </contour>
  </outline>
</glyph>
<glyph name="Lacute" format="2">
  <advance width="546"/>
  <unicode hex="0139"/>
  <outline>
    <contour>
      <point x="27" y="0" type="line"/>
      <point x="27" y="48.3333" type="line"/>
      <point x="83" y="53" type="line" smooth="yes"/>
      <point x="95" y="54"/>
      <point x="104.667" y="62.3333"/>
      <point x="104.667" y="75" type="curve" smooth="yes"/>
      <point x="104.667" y="596" type="line" smooth="yes"/>
      <point x="104.667" y="608.667"/>
      <point x="95" y="617"/>
      <point x="83" y="618" type="curve" smooth="yes"/>
      <point x="27" y="622.667" type="line"/>
      <point x="27" y="671" type="line"/>
      <point x="310.667" y="671" type="line"/>
      <point x="310.667" y="622.667" type="line"/>
      <point x="255.667" y="618" type="line" smooth="yes"/>
      <point x="243.667" y="617"/>
      <point x="233.667" y="608.667"/>
      <point x="233.667" y="596" type="curve" smooth="yes"/>
      <point x="233.667" y="57" type="line"/>
      <point x="419.667" y="57" type="line" smooth="yes"/>
      <point x="432.333" y="57"/>
      <point x="442" y="69.6667"/>
      <point x="443" y="78" type="curve" smooth="yes"/>
      <point x="457" y="194.667" type="line"/>
      <point x="529.667" y="194.667" type="line"/>
      <point x="529.667" y="0" type="line"/>
    </contour>
    <contour>
      <point x="112.667" y="746.667" type="line"/>
      <point x="248" y="899" type="line" smooth="yes"/>
      <point x="267.333" y="920.667"/>
      <point x="280.333" y="929.333"/>
      <point x="307.667" y="929.333" type="curve" smooth="yes"/>
      <point x="346.219" y="929.333"/>
      <point x="362" y="904.529"/>
      <point x="362" y="879" type="curve" smooth="yes"/>
      <point x="362" y="864"/>
      <point x="350.004" y="845.327"/>
      <point x="337" y="837.667" type="curve" smooth="yes"/>
      <point x="178" y="746.667" type="line"/>
    </contour>
  </outline>
</glyph>
<glyph name="lacute" format="2">
  <advance width="321"/>
  <unicode hex="013A"/>
  <outline>
    <contour>
      <point x="28" y="654.333" type="line"/>
      <point x="28" y="692.667" type="line"/>
      <point x="172.667" y="739" type="line"/>
      <point x="220.333" y="739" type="line"/>
      <point x="220.333" y="69.6667" type="line" smooth="yes"/>
      <point x="220.333" y="58"/>
      <point x="230.333" y="48"/>
      <point x="242" y="47.3333" type="curve" smooth="yes"/>
      <point x="293.333" y="44.3333" type="line"/>
      <point x="293.333" y="0" type="line"/>
      <point x="28.3333" y="0" type="line"/>
      <point x="28.3333" y="44.3333" type="line"/>
      <point x="78.6667" y="47.3333" type="line" smooth="yes"/>
      <point x="90.3333" y="48"/>
      <point x="100.667" y="58"/>
      <point x="100.667" y="69.6667" type="curve" smooth="yes"/>
      <point x="100.667" y="654.333" type="line"/>
    </contour>
    <contour>
      <point x="84" y="799" type="line"/>
      <point x="219.333" y="951.333" type="line" smooth="yes"/>
      <point x="238.667" y="973"/>
      <point x="251.667" y="981.667"/>
      <point x="279" y="981.667" type="curve" smooth="yes"/>
      <point x="317.553" y="981.667"/>
      <point x="333.333" y="956.863"/>
      <point x="333.333" y="931.333" type="curve" smooth="yes"/>
      <point x="333.333" y="916.333"/>
      <point x="321.337" y="897.66"/>
      <point x="308.333" y="890" type="curve" smooth="yes"/>
      <point x="149.333" y="799" type="line"/>
    </contour>
  </outline>
</glyph>
<glyph name="Lcaron" format="2">
  <advance width="546"/>
  <unicode hex="013D"/>
  <outline>
    <contour>
      <point x="27" y="0" type="line"/>
      <point x="27" y="48.3333" type="line"/>
      <point x="83" y="53" type="line" smooth="yes"/>
      <point x="95" y="54"/>
      <point x="104.667" y="62.3333"/>
      <point x="104.667" y="75" type="curve" smooth="yes"/>
      <point x="104.667" y="596" type="line" smooth="yes"/>
      <point x="104.667" y="608.667"/>
      <point x="95" y="617"/>
      <point x="83" y="618" type="curve" smooth="yes"/>
      <point x="27" y="622.667" type="line"/>
      <point x="27" y="671" type="line"/>
      <point x="310.667" y="671" type="line"/>
      <point x="310.667" y="622.667" type="line"/>
      <point x="255.667" y="618" type="line" smooth="yes"/>
      <point x="243.667" y="617"/>
      <point x="233.667" y="608.667"/>
      <point x="233.667" y="596" type="curve" smooth="yes"/>
      <point x="233.667" y="57" type="line"/>
      <point x="419.667" y="57" type="line" smooth="yes"/>
      <point x="432.333" y="57"/>
      <point x="442" y="69.6667"/>
      <point x="443" y="78" type="curve" smooth="yes"/>
      <point x="457" y="194.667" type="line"/>
      <point x="529.667" y="194.667" type="line"/>
      <point x="529.667" y="0" type="line"/>
    </contour>
    <contour>
      <point x="353" y="413.667" type="line"/>
      <point x="418.775" y="455.743"/>
      <point x="442.897" y="499.267"/>
      <point x="443.667" y="558.333" type="curve"/>
      <point x="443.667" y="567.667" type="line"/>
      <point x="383.333" y="567.667" type="line"/>
      <point x="377.333" y="575"/>
      <point x="365" y="591.333"/>
      <point x="365" y="617.667" type="curve" smooth="yes"/>
      <point x="365" y="657.667"/>
      <point x="387.872" y="686.667"/>
      <point x="433.333" y="686.667" type="curve" smooth="yes"/>
      <point x="486.366" y="686.667"/>
      <point x="521" y="643.88"/>
      <point x="521" y="586.333" type="curve" smooth="yes"/>
      <point x="521" y="457.838"/>
      <point x="421.907" y="404.35"/>
      <point x="375.333" y="385.667" type="curve"/>
    </contour>
  </outline>
</glyph>
<glyph name="lcaron" format="2">
  <advance width="446"/>
  <unicode hex="013E"/>
  <outline>
    <contour>
      <point x="28" y="654.333" type="line"/>
      <point x="28" y="692.667" type="line"/>
      <point x="172.667" y="739" type="line"/>
      <point x="220.333" y="739" type="line"/>
      <point x="220.333" y="69.6667" type="line" smooth="yes"/>
      <point x="220.333" y="58"/>
      <point x="230.333" y="48"/>
      <point x="242" y="47.3333" type="curve" smooth="yes"/>
      <point x="293.333" y="44.3333" type="line"/>
      <point x="293.333" y="0" type="line"/>
      <point x="28.3333" y="0" type="line"/>
      <point x="28.3333" y="44.3333" type="line"/>
      <point x="78.6667" y="47.3333" type="line" smooth="yes"/>
      <point x="90.3333" y="48"/>
      <point x="100.667" y="58"/>
      <point x="100.667" y="69.6667" type="curve" smooth="yes"/>
      <point x="100.667" y="654.333" type="line"/>
    </contour>
    <contour>
      <point x="250" y="466" type="line"/>
      <point x="315.775" y="508.076"/>
      <point x="339.897" y="551.6"/>
      <point x="340.667" y="610.667" type="curve"/>
      <point x="340.667" y="620" type="line"/>
      <point x="280.333" y="620" type="line"/>
      <point x="274.333" y="627.333"/>
      <point x="262" y="643.667"/>
      <point x="262" y="670" type="curve" smooth="yes"/>
      <point x="262" y="710"/>
      <point x="284.872" y="739"/>
      <point x="330.333" y="739" type="curve" smooth="yes"/>
      <point x="383.366" y="739"/>
      <point x="418" y="696.214"/>
      <point x="418" y="638.667" type="curve" smooth="yes"/>
      <point x="418" y="510.171"/>
      <point x="318.907" y="456.683"/>
      <point x="272.333" y="438" type="curve"/>
    </contour>
  </outline>
</glyph>
<glyph name="lslash" format="2">
  <advance width="321"/>
  <unicode hex="0142"/>
  <outline>
    <contour>
      <point x="-7.66667" y="280" type="line"/>
      <point x="100.667" y="355.667" type="line"/>
      <point x="100.667" y="653" type="line"/>
      <point x="27.6667" y="653" type="line"/>
      <point x="27.6667" y="692.667" type="line"/>
      <point x="177.333" y="739" type="line"/>
      <point x="220" y="739" type="line"/>
      <point x="220" y="438.667" type="line"/>
      <point x="301.333" y="494.667" type="line"/>
      <point x="329.667" y="449.667" type="line"/>
      <point x="220" y="374" type="line"/>
      <point x="220" y="70" type="line" smooth="yes"/>
      <point x="220" y="57.3333"/>
      <point x="231.333" y="48.6667"/>
      <point x="243" y="47.6667" type="curve"/>
      <point x="293.667" y="44.6667" type="line"/>
      <point x="293.667" y="0.333333" type="line"/>
      <point x="28" y="0.333333" type="line"/>
      <point x="28" y="44.6667" type="line"/>
      <point x="79" y="47.6667" type="line"/>
      <point x="90.6667" y="48.6667"/>
      <point x="100.667" y="57.3333"/>
      <point x="100.667" y="70" type="curve" smooth="yes"/>
      <point x="100.667" y="291.667" type="line"/>
      <point x="19.3333" y="234.333" type="line"/>
    </contour>
  </outline>
</glyph>
<glyph name="Ncommaaccent" format="2">
  <advance width="736"/>
  <unicode hex="0145"/>
  <outline>
    <contour>
      <point x="27" y="622.667" type="line"/>
      <point x="27" y="671" type="line"/>
      <point x="257.667" y="671" type="line"/>
      <point x="257.667" y="644.667" type="line"/>
      <point x="560.667" y="176.333" type="line"/>
      <point x="560.667" y="596" type="line" smooth="yes"/>
      <point x="560.667" y="608.333"/>
      <point x="550" y="617"/>
      <point x="538.333" y="618" type="curve" smooth="yes"/>
      <point x="481.333" y="622.667" type="line"/>
      <point x="481.333" y="671" type="line"/>
      <point x="707.333" y="671" type="line"/>
      <point x="707.333" y="622.667" type="line"/>
      <point x="652.667" y="618" type="line" smooth="yes"/>
      <point x="641.333" y="617"/>
      <point x="631" y="608.667"/>
      <point x="631" y="596" type="curve" smooth="yes"/>
      <point x="631" y="0" type="line"/>
      <point x="523.667" y="0" type="line"/>
      <point x="175" y="539.333" type="line"/>
      <point x="175" y="75" type="line" smooth="yes"/>
      <point x="175" y="62.3333"/>
      <point x="185.333" y="54"/>
      <point x="196.667" y="53" type="curve" smooth="yes"/>
      <point x="253" y="48.3333" type="line"/>
      <point x="253" y="0" type="line"/>
      <point x="27" y="0" type="line"/>
      <point x="27" y="48.3333" type="line"/>
      <point x="82.6667" y="53" type="line" smooth="yes"/>
      <point x="94.6667" y="54"/>
      <point x="104.667" y="62.3333"/>
      <point x="104.667" y="75" type="curve" smooth="yes"/>
      <point x="104.667" y="596" type="line" smooth="yes"/>
      <point x="104.667" y="608.667"/>
      <point x="94.6667" y="617"/>
      <point x="82.6667" y="618" type="curve" smooth="yes"/>
    </contour>
    <contour>
      <point x="276.667" y="-114.333" type="curve" smooth="yes"/>
      <point x="276.667" y="-78.6667"/>
      <point x="307" y="-60"/>
      <point x="340.333" y="-60" type="curve" smooth="yes"/>
      <point x="389.667" y="-60"/>
      <point x="421.333" y="-96.3333"/>
      <point x="421.333" y="-144" type="curve" smooth="yes"/>
      <point x="421.333" y="-214.555"/>
      <point x="359.027" y="-259.384"/>
      <point x="286" y="-273" type="curve"/>
      <point x="286" y="-236.333" type="line"/>
      <point x="327.333" y="-224.333"/>
      <point x="356.667" y="-197.333"/>
      <point x="356.667" y="-156" type="curve"/>
      <point x="295" y="-156" type="line"/>
      <point x="283.667" y="-145.333"/>
      <point x="276.667" y="-130.333"/>
    </contour>
  </outline>
</glyph>
<glyph name="Omacron" format="2">
  <advance width="747"/>
  <unicode hex="014C"/>
  <outline>
    <contour>
      <point x="198.5" y="746.667" type="line"/>
      <point x="198.5" y="821.667" type="line"/>
      <point x="536.833" y="821.667" type="line"/>
      <point x="536.833" y="746.667" type="line"/>
    </contour>
    <contour>
      <point x="37.6667" y="339" type="curve" smooth="yes"/>
      <point x="37.6667" y="533.333"/>
      <point x="166.667" y="686.667"/>
      <point x="372" y="686.667" type="curve" smooth="yes"/>
      <point x="574" y="686.667"/>
      <point x="711" y="526"/>
      <point x="711" y="333.667" type="curve" smooth="yes"/>
      <point x="711" y="143"/>
      <point x="575.333" y="-15.6667"/>
      <point x="378" y="-15.6667" type="curve" smooth="yes"/>
      <point x="181.333" y="-15.6667"/>
      <point x="37.6667" y="124.333"/>
    </contour>
    <contour>
      <point x="183" y="337" type="curve" smooth="yes"/>
      <point x="183" y="199"/>
      <point x="238.667" y="44.3333"/>
      <point x="370.667" y="44.3333" type="curve" smooth="yes"/>
      <point x="510" y="44.3333"/>
      <point x="564.667" y="201.667"/>
      <point x="564.667" y="331" type="curve" smooth="yes"/>
      <point x="564.667" y="479"/>
      <point x="506" y="622.667"/>
      <point x="378.667" y="622.667" type="curve" smooth="yes"/>
      <point x="236" y="622.667"/>
      <point x="183" y="469.667"/>
    </contour>
  </outline>
</glyph>
<glyph name="ohungarumlaut" format="2">
  <advance width="569"/>
  <unicode hex="0151"/>
  <outline>
    <contour>
      <point x="31.3333" y="241.333" type="curve" smooth="yes"/>
      <point x="31.3333" y="397.667"/>
      <point x="137" y="498.333"/>
      <point x="287" y="498.333" type="curve" smooth="yes"/>
      <point x="443.667" y="498.333"/>
      <point x="537.667" y="389"/>
      <point x="537.667" y="240.667" type="curve" smooth="yes"/>
      <point x="537.667" y="94.6667"/>
      <point x="438.667" y="-12.3333"/>
      <point x="281.333" y="-12.3333" type="curve" smooth="yes"/>
      <point x="133.333" y="-12.3333"/>
      <point x="31.3333" y="89.3333"/>
    </contour>
    <contour>
      <point x="87" y="558.667" type="line"/>
      <point x="222" y="711" type="line" smooth="yes"/>
      <point x="240.667" y="732.333"/>
      <point x="254.667" y="741.333"/>
      <point x="282.333" y="741.333" type="curve" smooth="yes"/>
      <point x="320.667" y="741.333"/>
      <point x="335" y="716.333"/>
      <point x="335" y="690.667" type="curve" smooth="yes"/>
      <point x="335" y="675.333"/>
      <point x="324" y="657.667"/>
      <point x="309.667" y="649.667" type="curve" smooth="yes"/>
      <point x="152.667" y="558.667" type="line"/>
    </contour>
    <contour>
      <point x="166" y="244" type="curve" smooth="yes"/>
      <point x="166" y="156.667"/>
      <point x="189.333" y="41.3333"/>
      <point x="284.667" y="41.3333" type="curve" smooth="yes"/>
      <point x="378.667" y="41.3333"/>
      <point x="403.333" y="152"/>
      <point x="403.333" y="241.333" type="curve" smooth="yes"/>
      <point x="403.333" y="328"/>
      <point x="379" y="445.333"/>
      <point x="284.333" y="445.333" type="curve" smooth="yes"/>
      <point x="191" y="445.333"/>
      <point x="166" y="331.333"/>
    </contour>
    <contour>
      <point x="294.667" y="558.333" type="line"/>
      <point x="431.333" y="710.667" type="line" smooth="yes"/>
      <point x="450.667" y="732.667"/>
      <point x="463" y="741.333"/>
      <point x="490" y="741.333" type="curve" smooth="yes"/>
      <point x="528.333" y="741.333"/>
      <point x="544" y="716.333"/>
      <point x="544" y="691" type="curve" smooth="yes"/>
      <point x="544" y="675.667"/>
      <point x="533.333" y="657.333"/>
      <point x="519" y="649.333" type="curve" smooth="yes"/>
      <point x="360.333" y="558.333" type="line"/>
    </contour>
  </outline>
</glyph>
<glyph name="rcommaaccent" format="2">
  <advance width="418"/>
  <unicode hex="0157"/>
  <outline>
    <contour>
      <point x="19" y="409" type="line"/>
      <point x="19" y="447.333" type="line"/>
      <point x="163.667" y="494" type="line"/>
      <point x="212" y="494" type="line"/>
      <point x="212" y="394.333" type="line"/>
      <point x="236.507" y="425.995"/>
      <point x="296.502" y="498"/>
      <point x="346" y="498" type="curve" smooth="yes"/>
      <point x="369.333" y="498"/>
      <point x="394.667" y="489.333"/>
      <point x="408.333" y="481" type="curve"/>
      <point x="408.333" y="346.667" type="line"/>
      <point x="350" y="346.667" type="line"/>
      <point x="340.333" y="360"/>
      <point x="323.333" y="382.333"/>
      <point x="288.667" y="382.333" type="curve" smooth="yes"/>
      <point x="248.942" y="382.333"/>
      <point x="220.127" y="359.228"/>
      <point x="212" y="349.667" type="curve"/>
      <point x="212" y="69" type="line" smooth="yes"/>
      <point x="212" y="57"/>
      <point x="221.326" y="46.8337"/>
      <point x="233.667" y="46.6667" type="curve"/>
      <point x="298.333" y="43.6667" type="line"/>
      <point x="298.333" y="-0.666667" type="line"/>
      <point x="24.3333" y="-0.666667" type="line"/>
      <point x="24.3333" y="43.3333" type="line"/>
      <point x="70" y="46.6667" type="line" smooth="yes"/>
      <point x="81.6693" y="47.6328"/>
      <point x="91.6667" y="57"/>
      <point x="91.6667" y="69" type="curve" smooth="yes"/>
      <point x="91.6667" y="409" type="line"/>
    </contour>
    <contour>
      <point x="89" y="-114.667" type="curve" smooth="yes"/>
      <point x="89" y="-79"/>
      <point x="119.333" y="-60.3333"/>
      <point x="152.667" y="-60.3333" type="curve" smooth="yes"/>
      <point x="202" y="-60.3333"/>
      <point x="233.667" y="-96.6667"/>
      <point x="233.667" y="-144.333" type="curve" smooth="yes"/>
      <point x="233.667" y="-214.888"/>
      <point x="171.36" y="-259.718"/>
      <point x="98.3333" y="-273.333" type="curve"/>
      <point x="98.3333" y="-236.667" type="line"/>
      <point x="139.667" y="-224.667"/>
      <point x="169" y="-197.667"/>
      <point x="169" y="-156.333" type="curve"/>
      <point x="107.333" y="-156.333" type="line"/>
      <point x="96" y="-145.667"/>
      <point x="89" y="-130.667"/>
    </contour>
  </outline>
</glyph>
<glyph name="Tbar" format="2">
  <advance width="605"/>
  <unicode hex="0166"/>
  <outline>
    <contour>
      <point x="16" y="495.667" type="line"/>
      <point x="16" y="671" type="line"/>
      <point x="589.667" y="671" type="line"/>
      <point x="589.667" y="495.667" type="line"/>
      <point x="521.333" y="495.667" type="line"/>
      <point x="504.667" y="601" type="line"/>
      <point x="503.667" y="609.667"/>
      <point x="498.333" y="614.667"/>
      <point x="489.667" y="614.667" type="curve" smooth="yes"/>
      <point x="367.333" y="614.667" type="line"/>
      <point x="367.333" y="383" type="line"/>
      <point x="494" y="383" type="line"/>
      <point x="494" y="324" type="line"/>
      <point x="367.333" y="324" type="line"/>
      <point x="367.333" y="75" type="line" smooth="yes"/>
      <point x="367.333" y="62.3333"/>
      <point x="377" y="54"/>
      <point x="389" y="53" type="curve" smooth="yes"/>
      <point x="449.667" y="48.3333" type="line"/>
      <point x="449.667" y="0" type="line"/>
      <point x="156" y="0" type="line"/>
      <point x="156" y="48.3333" type="line"/>
      <point x="216" y="53" type="line" smooth="yes"/>
      <point x="228" y="54"/>
      <point x="238.333" y="62.3333"/>
      <point x="238.333" y="75" type="curve" smooth="yes"/>
      <point x="238.333" y="324" type="line"/>
      <point x="111.667" y="324" type="line"/>
      <point x="111.667" y="383" type="line"/>
      <point x="238.333" y="383" type="line"/>
      <point x="238.333" y="614.667" type="line"/>
      <point x="115.667" y="614.667" type="line" smooth="yes"/>
      <point x="107" y="614.667"/>
      <point x="101" y="609.667"/>
      <point x="100" y="601" type="curve"/>
      <point x="83.3333" y="495.667" type="line"/>
    </contour>
  </outline>
</glyph>
<glyph name="wcircumflex" format="2">
  <advance width="821"/>
  <unicode hex="0175"/>
  <outline>
    <contour>
      <point x="10" y="441.333" type="line"/>
      <point x="10" y="485.667" type="line"/>
      <point x="253.667" y="485.667" type="line"/>
      <point x="253.667" y="441.333" type="line"/>
      <point x="209.333" y="438.333" type="line"/>
      <point x="200.483" y="437.382"/>
      <point x="193.454" y="430.48"/>
      <point x="193.454" y="421.546" type="curve"/>
      <point x="193.454" y="419.716"/>
      <point x="194.188" y="418.532"/>
      <point x="194.333" y="416.667" type="curve"/>
      <point x="274" y="129.667" type="line"/>
      <point x="391.667" y="486" type="line"/>
      <point x="488.667" y="486" type="line"/>
      <point x="598.667" y="128.333" type="line"/>
      <point x="684.667" y="416.667" type="line"/>
      <point x="685.492" y="418.635"/>
      <point x="685.567" y="419.912"/>
      <point x="685.567" y="421.824" type="curve"/>
      <point x="685.567" y="430.219"/>
      <point x="679.471" y="437.72"/>
      <point x="670.667" y="438.667" type="curve"/>
      <point x="626" y="441.667" type="line"/>
      <point x="626" y="486" type="line"/>
      <point x="812.333" y="486" type="line"/>
      <point x="812.333" y="441.667" type="line"/>
      <point x="758" y="435" type="line"/>
      <point x="623" y="-0.333333" type="line"/>
      <point x="525.333" y="-0.333333" type="line"/>
      <point x="413.333" y="361" type="line"/>
      <point x="292.667" y="-0.333333" type="line"/>
      <point x="196.333" y="-0.333333" type="line"/>
      <point x="67.6667" y="435.333" type="line"/>
    </contour>
    <contour>
      <point x="304.667" y="558.333" type="line"/>
      <point x="420.667" y="728.667" type="line"/>
      <point x="524.667" y="728.667" type="line"/>
      <point x="640.667" y="558.333" type="line"/>
      <point x="565.333" y="558.333" type="line"/>
      <point x="473" y="654.667" type="line"/>
      <point x="380.333" y="558.333" type="line"/>
    </contour>
  </outline>
</glyph>
<glyph name="zacute" format="2">
  <advance width="481"/>
  <unicode hex="017A"/>
  <outline>
    <contour>
      <point x="32.6667" y="0" type="line"/>
      <point x="32.6667" y="61" type="line"/>
      <point x="292" y="432.333" type="line"/>
      <point x="133.333" y="432.333" type="line" smooth="yes"/>
      <point x="123.333" y="432.333"/>
      <point x="114.333" y="420.333"/>
      <point x="114" y="411.333" type="curve"/>
      <point x="106" y="335.333" type="line"/>
      <point x="41.6667" y="335.333" type="line"/>
      <point x="41.6667" y="486" type="line"/>
      <point x="435" y="486" type="line"/>
      <point x="435" y="435" type="line"/>
      <point x="169" y="55.3333" type="line"/>
      <point x="351" y="55.3333" type="line" smooth="yes"/>
      <point x="360.667" y="55.3333"/>
      <point x="370.667" y="69.6667"/>
      <point x="372.667" y="79.3333" type="curve"/>
      <point x="384.667" y="162.333" type="line"/>
      <point x="448.667" y="162.333" type="line"/>
      <point x="448.667" y="0" type="line"/>
    </contour>
    <contour>
      <point x="206" y="558.333" type="line"/>
      <point x="340.667" y="710.667" type="line" smooth="yes"/>
      <point x="360" y="732.333"/>
      <point x="373.667" y="741"/>
      <point x="401" y="741" type="curve" smooth="yes"/>
      <point x="439.553" y="741"/>
      <point x="455.333" y="716.196"/>
      <point x="455.333" y="690.667" type="curve" smooth="yes"/>
      <point x="455.333" y="675.667"/>
      <point x="443.337" y="656.994"/>
      <point x="430.333" y="649.333" type="curve" smooth="yes"/>
      <point x="271.333" y="558.333" type="line"/>
    </contour>
  </outline>
</glyph>
<glyph name="zcaron" format="2">
  <advance width="481"/>
  <unicode hex="017E"/>
  <outline>
    <contour>
      <point x="32.6667" y="0" type="line"/>
      <point x="32.6667" y="61" type="line"/>
      <point x="292" y="432.333" type="line"/>
      <point x="133.333" y="432.333" type="line" smooth="yes"/>
      <point x="123.333" y="432.333"/>
      <point x="114.333" y="420.333"/>
      <point x="114" y="411.333" type="curve"/>
      <point x="106" y="335.333" type="line"/>
      <point x="41.6667" y="335.333" type="line"/>
      <point x="41.6667" y="486" type="line"/>
      <point x="435" y="486" type="line"/>
      <point x="435" y="435" type="line"/>
      <point x="169" y="55.3333" type="line"/>
      <point x="351" y="55.3333" type="line" smooth="yes"/>
      <point x="360.667" y="55.3333"/>
      <point x="370.667" y="69.6667"/>
      <point x="372.667" y="79.3333" type="curve"/>
      <point x="384.667" y="162.333" type="line"/>
      <point x="448.667" y="162.333" type="line"/>
      <point x="448.667" y="0" type="line"/>
    </contour>
    <contour>
      <point x="70" y="728.667" type="line"/>
      <point x="146.333" y="728.667" type="line"/>
      <point x="238.333" y="633" type="line"/>
      <point x="331.333" y="728.667" type="line"/>
      <point x="406" y="728.667" type="line"/>
      <point x="290.667" y="558.333" type="line"/>
      <point x="186.667" y="558.333" type="line"/>
    </contour>
  </outline>
</glyph>
<glyph name="longs" format="2">
  <advance width="340"/>
  <unicode hex="017F"/>
  <outline>
    <contour>
      <point x="23.3333" y="-0.333333" type="line"/>
      <point x="23.3333" y="44" type="line"/>
      <point x="73.6667" y="47" type="line"/>
      <point x="84.6667" y="47.3333"/>
      <point x="94.6667" y="56.6667"/>
      <point x="94.6667" y="68" type="curve" smooth="yes"/>
      <point x="94.6667" y="481.333" type="line" smooth="yes"/>
      <point x="94.6667" y="545.667"/>
      <point x="113.333" y="598"/>
      <point x="146" y="643" type="curve" smooth="yes"/>
      <point x="183.667" y="697"/>
      <point x="241.667" y="738.333"/>
      <point x="316.667" y="738.333" type="curve" smooth="yes"/>
      <point x="369.974" y="738.333"/>
      <point x="409.667" y="707.07"/>
      <point x="409.667" y="665.333" type="curve" smooth="yes"/>
      <point x="409.667" y="638.536"/>
      <point x="388.657" y="615.43"/>
      <point x="353" y="603.667" type="curve"/>
      <point x="256" y="687.333" type="line"/>
      <point x="228" y="659.333"/>
      <point x="215.667" y="619.333"/>
      <point x="215.667" y="535.333" type="curve" smooth="yes"/>
      <point x="215.667" y="69.6667" type="line" smooth="yes"/>
      <point x="215.667" y="57.6667"/>
      <point x="224.667" y="47"/>
      <point x="237.333" y="47" type="curve"/>
      <point x="297.667" y="44" type="line"/>
      <point x="297.667" y="-0.333333" type="line"/>
    </contour>
    <contour>
      <point x="23.3333" y="426.667" type="line"/>
      <point x="23.3333" y="486" type="line"/>
      <point x="143.667" y="486" type="line"/>
      <point x="143.667" y="426.667" type="line"/>
    </contour>
  </outline>
</glyph>
<glyph name="uni0180" format="2">
  <advance width="584"/>
  <unicode hex="0180"/>
  <outline>
    <contour>
      <point x="5.66667" y="535" type="line"/>
      <point x="5.66667" y="594" type="line"/>
      <point x="90" y="594" type="line"/>
      <point x="90" y="654.333" type="line"/>
      <point x="18" y="654.333" type="line"/>
      <point x="18" y="692.667" type="line"/>
      <point x="163.333" y="739" type="line"/>
      <point x="210.333" y="739" type="line"/>
      <point x="210.333" y="594" type="line"/>
      <point x="320" y="594" type="line"/>
      <point x="320" y="535" type="line"/>
      <point x="210.333" y="535" type="line"/>
      <point x="210.333" y="454.667" type="line"/>
      <point x="242.242" y="475"/>
      <point x="308.132" y="497.667"/>
      <point x="353" y="497.667" type="curve" smooth="yes"/>
      <point x="468.249" y="497.667"/>
      <point x="550.667" y="409.478"/>
      <point x="550.667" y="270.333" type="curve" smooth="yes"/>
      <point x="550.667" y="109.297"/>
      <point x="443.716" y="0"/>
      <point x="260" y="0" type="curve" smooth="yes"/>
      <point x="90" y="0" type="line"/>
      <point x="90" y="535" type="line"/>
    </contour>
    <contour>
      <point x="210" y="53.3333" type="line"/>
      <point x="222.899" y="52.3333"/>
      <point x="230.918" y="52.3333"/>
      <point x="240.333" y="52.3333" type="curve" smooth="yes"/>
      <point x="358" y="52.3333"/>
      <point x="420" y="105"/>
      <point x="420" y="243.667" type="curve" smooth="yes"/>
      <point x="420" y="353"/>
      <point x="372" y="422.667"/>
      <point x="272.667" y="422.667" type="curve" smooth="yes"/>
      <point x="247" y="422.667"/>
      <point x="217.667" y="416"/>
      <point x="210" y="413.667" type="curve"/>
    </contour>
  </outline>
</glyph>
<glyph name="uni0184" format="2">
  <advance width="627"/>
  <unicode hex="0184"/>
  <outline>
    <contour>
      <point x="21.6667" y="0" type="line"/>
      <point x="21.6667" y="48.3333" type="line"/>
      <point x="82.6667" y="53" type="line" smooth="yes"/>
      <point x="94.6713" y="53.9293"/>
      <point x="104.333" y="62.3333"/>
      <point x="104.333" y="74.6667" type="curve" smooth="yes"/>
      <point x="104.333" y="393.333" type="line"/>
      <point x="17.6667" y="476" type="line"/>
      <point x="233.667" y="689" type="line"/>
      <point x="233.667" y="368.667" type="line"/>
      <point x="252" y="371"/>
      <point x="273.333" y="372.333"/>
      <point x="292.667" y="372.333" type="curve" smooth="yes"/>
      <point x="457.133" y="372.333"/>
      <point x="589.667" y="333.696"/>
      <point x="589.667" y="194.333" type="curve" smooth="yes"/>
      <point x="589.667" y="49.6667"/>
      <point x="482.667" y="0"/>
      <point x="275.333" y="0" type="curve" smooth="yes"/>
    </contour>
    <contour>
      <point x="233.667" y="53.3333" type="line"/>
      <point x="240.538" y="53.0519"/>
      <point x="257.502" y="52"/>
      <point x="270.333" y="52" type="curve" smooth="yes"/>
      <point x="385.333" y="52"/>
      <point x="453.333" y="83.6667"/>
      <point x="453.333" y="188.667" type="curve" smooth="yes"/>
      <point x="453.333" y="300.333"/>
      <point x="376" y="318.667"/>
      <point x="283.333" y="318.667" type="curve" smooth="yes"/>
      <point x="269.333" y="318.667"/>
      <point x="248.667" y="316.667"/>
      <point x="233.667" y="314.333" type="curve"/>
    </contour>
  </outline>
</glyph>
<glyph name="uni0187" format="2">
  <advance width="633"/>
  <unicode hex="0187"/>
  <outline>
    <contour>
      <point x="37.6667" y="336" type="curve" smooth="yes"/>
      <point x="37.6667" y="545.413"/>
      <point x="186.234" y="687"/>
      <point x="389" y="687" type="curve" smooth="yes"/>
      <point x="433.532" y="687"/>
      <point x="465.918" y="682.02"/>
      <point x="504" y="672.667" type="curve"/>
      <point x="506.667" y="781.667"/>
      <point x="585.333" y="848.333"/>
      <point x="692.333" y="848.333" type="curve" smooth="yes"/>
      <point x="733.907" y="848.333"/>
      <point x="791.333" y="812.946"/>
      <point x="791.333" y="773.667" type="curve" smooth="yes"/>
      <point x="791.333" y="739"/>
      <point x="770.333" y="712.667"/>
      <point x="744.333" y="703.667" type="curve"/>
      <point x="644" y="791.333" type="line"/>
      <point x="615" y="780.667"/>
      <point x="597.667" y="745"/>
      <point x="597.333" y="692" type="curve"/>
      <point x="597.333" y="480" type="line"/>
      <point x="525.333" y="480" type="line"/>
      <point x="505.667" y="585" type="line" smooth="yes"/>
      <point x="504.118" y="594.353"/>
      <point x="495.333" y="601.667"/>
      <point x="486" y="605.667" type="curve" smooth="yes"/>
      <point x="470.855" y="612.348"/>
      <point x="438" y="623"/>
      <point x="409.667" y="623" type="curve" smooth="yes"/>
      <point x="263.713" y="623"/>
      <point x="181.333" y="505.774"/>
      <point x="181.333" y="335" type="curve" smooth="yes"/>
      <point x="181.333" y="183.71"/>
      <point x="249.633" y="45.3333"/>
      <point x="418.667" y="45.3333" type="curve" smooth="yes"/>
      <point x="444" y="45.3333"/>
      <point x="468.156" y="52.7177"/>
      <point x="481.667" y="58.6667" type="curve" smooth="yes"/>
      <point x="489.353" y="61.8433"/>
      <point x="499.541" y="69.9556"/>
      <point x="501.667" y="79" type="curve"/>
      <point x="524" y="194" type="line"/>
      <point x="596" y="194" type="line"/>
      <point x="596" y="23.3333" type="line"/>
      <point x="559.333" y="4.66667"/>
      <point x="480.119" y="-16.3333"/>
      <point x="388" y="-16.3333" type="curve" smooth="yes"/>
      <point x="180.661" y="-16.3333"/>
      <point x="37.6667" y="128.857"/>
    </contour>
  </outline>
</glyph>
<glyph name="uni018A" format="2">
  <advance width="787"/>
  <unicode hex="018A"/>
  <outline>
    <contour>
      <point x="-17" y="562.667" type="curve" smooth="yes"/>
      <point x="-17" y="640"/>
      <point x="45.6667" y="670.667"/>
      <point x="146" y="670.667" type="curve" smooth="yes"/>
      <point x="391" y="670.667" type="line" smooth="yes"/>
      <point x="617.031" y="670.667"/>
      <point x="750" y="544.815"/>
      <point x="750" y="340.667" type="curve" smooth="yes"/>
      <point x="750" y="115.745"/>
      <point x="615.718" y="0"/>
      <point x="401.667" y="0" type="curve" smooth="yes"/>
      <point x="101.333" y="0" type="line"/>
      <point x="101.333" y="48.3333" type="line"/>
      <point x="161.333" y="53.6667" type="line" smooth="yes"/>
      <point x="169.671" y="54.6157"/>
      <point x="178.333" y="62.6667"/>
      <point x="178.333" y="69.3333" type="curve" smooth="yes"/>
      <point x="178.333" y="595" type="line" smooth="yes"/>
      <point x="178.333" y="608"/>
      <point x="170.333" y="616"/>
      <point x="157.333" y="616" type="curve" smooth="yes"/>
      <point x="122.667" y="616" type="line" smooth="yes"/>
      <point x="98" y="616"/>
      <point x="85" y="611.333"/>
      <point x="73.6667" y="592.667" type="curve"/>
      <point x="115" y="521.667" type="line"/>
      <point x="91" y="497"/>
      <point x="79.3333" y="491"/>
      <point x="38.3333" y="491" type="curve" smooth="yes"/>
      <point x="8.13939" y="491"/>
      <point x="-17" y="521.5"/>
    </contour>
    <contour>
      <point x="307" y="55.3333" type="line"/>
      <point x="389.667" y="55.3333" type="line" smooth="yes"/>
      <point x="506.333" y="55.3333"/>
      <point x="605.333" y="128.456"/>
      <point x="605.333" y="333" type="curve" smooth="yes"/>
      <point x="605.333" y="548"/>
      <point x="504" y="616.333"/>
      <point x="374.667" y="616.333" type="curve" smooth="yes"/>
      <point x="307" y="616.333" type="line"/>
    </contour>
  </outline>
</glyph>
<glyph name="uni018B" format="2">
  <advance width="622"/>
  <unicode hex="018B"/>
  <outline>
    <contour>
      <point x="31.3333" y="182" type="curve" smooth="yes"/>
      <point x="31.3333" y="325.609"/>
      <point x="164.865" y="374"/>
      <point x="327.667" y="374" type="curve" smooth="yes"/>
      <point x="352.667" y="374"/>
      <point x="373.667" y="371.333"/>
      <point x="386.333" y="369" type="curve"/>
      <point x="386.333" y="600.333" type="line" smooth="yes"/>
      <point x="386.333" y="608.175"/>
      <point x="380.143" y="617.667"/>
      <point x="369.667" y="617.667" type="curve" smooth="yes"/>
      <point x="212.333" y="617.667" type="line" smooth="yes"/>
      <point x="200.333" y="617.667"/>
      <point x="194.399" y="610.325"/>
      <point x="192" y="596.667" type="curve"/>
      <point x="179.333" y="510" type="line"/>
      <point x="113" y="510" type="line"/>
      <point x="113" y="671.333" type="line"/>
      <point x="595.667" y="671.333" type="line"/>
      <point x="595.667" y="623" type="line"/>
      <point x="537.667" y="618.333" type="line" smooth="yes"/>
      <point x="525.665" y="617.359"/>
      <point x="516" y="609"/>
      <point x="516" y="596.667" type="curve" smooth="yes"/>
      <point x="516" y="75" type="line" smooth="yes"/>
      <point x="516" y="62.6667"/>
      <point x="525.662" y="54.2626"/>
      <point x="537.667" y="53.3333" type="curve" smooth="yes"/>
      <point x="598.667" y="48.6667" type="line"/>
      <point x="598.667" y="0.333333" type="line"/>
      <point x="344.667" y="0.333333" type="line" smooth="yes"/>
      <point x="164.667" y="0.333333"/>
      <point x="31.3333" y="30.6667"/>
    </contour>
    <contour>
      <point x="166.333" y="183.333" type="curve" smooth="yes"/>
      <point x="166.333" y="83"/>
      <point x="235" y="52.6667"/>
      <point x="349.667" y="52.6667" type="curve" smooth="yes"/>
      <point x="358.833" y="52.6667"/>
      <point x="378.024" y="52.9619"/>
      <point x="386.333" y="53.3333" type="curve"/>
      <point x="386.333" y="313.667" type="line"/>
      <point x="371" y="316.667"/>
      <point x="354.667" y="318.667"/>
      <point x="336.333" y="318.667" type="curve" smooth="yes"/>
      <point x="243.333" y="318.667"/>
      <point x="166.333" y="299.667"/>
    </contour>
  </outline>
</glyph>
<glyph name="uni018E" format="2">
  <advance width="593"/>
  <unicode hex="018E"/>
  <outline>
    <contour>
      <point x="30.6667" y="0" type="line"/>
      <point x="30.6667" y="177.667" type="line"/>
      <point x="97.3333" y="177.667" type="line"/>
      <point x="113.333" y="75.3333" type="line" smooth="yes"/>
      <point x="114.333" y="68.6667"/>
      <point x="123.333" y="56.3333"/>
      <point x="131.333" y="56.3333" type="curve" smooth="yes"/>
      <point x="361" y="56.3333" type="line"/>
      <point x="361" y="318" type="line"/>
      <point x="231.667" y="318" type="line" smooth="yes"/>
      <point x="224" y="318"/>
      <point x="215" y="307"/>
      <point x="214.333" y="300" type="curve"/>
      <point x="205" y="231.667" type="line"/>
      <point x="146.667" y="231.667" type="line"/>
      <point x="146.667" y="462.667" type="line"/>
      <point x="205" y="462.667" type="line"/>
      <point x="214.333" y="394.333" type="line"/>
      <point x="215" y="387"/>
      <point x="223" y="376.667"/>
      <point x="231.667" y="376.667" type="curve" smooth="yes"/>
      <point x="361" y="376.667" type="line"/>
      <point x="361" y="616.333" type="line"/>
      <point x="164.667" y="616.333" type="line" smooth="yes"/>
      <point x="155.333" y="616.333"/>
      <point x="148.333" y="607"/>
      <point x="146.667" y="597.333" type="curve" smooth="yes"/>
      <point x="131" y="514.667" type="line"/>
      <point x="63" y="514.667" type="line"/>
      <point x="63" y="671" type="line"/>
      <point x="565" y="671" type="line"/>
      <point x="565" y="622.667" type="line"/>
      <point x="511" y="618" type="line" smooth="yes"/>
      <point x="499.667" y="617"/>
      <point x="488.333" y="608.667"/>
      <point x="488.333" y="596" type="curve" smooth="yes"/>
      <point x="488.333" y="75" type="line" smooth="yes"/>
      <point x="488.333" y="62.3333"/>
      <point x="499.667" y="54"/>
      <point x="511" y="53" type="curve" smooth="yes"/>
      <point x="565" y="48.3333" type="line"/>
      <point x="565" y="0" type="line"/>
    </contour>
  </outline>
</glyph>
<glyph name="uni0198" format="2">
  <advance width="667"/>
  <unicode hex="0198"/>
  <outline>
    <contour>
      <point x="29.6667" y="0" type="line"/>
      <point x="29.6667" y="48.3333" type="line"/>
      <point x="82.6667" y="53" type="line" smooth="yes"/>
      <point x="94.669" y="53.9687"/>
      <point x="104.333" y="62.3333"/>
      <point x="104.333" y="75" type="curve" smooth="yes"/>
      <point x="104.333" y="596" type="line" smooth="yes"/>
      <point x="104.333" y="608.667"/>
      <point x="94.669" y="617.031"/>
      <point x="82.6667" y="618" type="curve" smooth="yes"/>
      <point x="29.6667" y="622.667" type="line"/>
      <point x="29.6667" y="671" type="line"/>
      <point x="309.333" y="671" type="line"/>
      <point x="309.333" y="622.667" type="line"/>
      <point x="255" y="618" type="line" smooth="yes"/>
      <point x="243.663" y="617.052"/>
      <point x="233.333" y="608.667"/>
      <point x="233.333" y="596" type="curve" smooth="yes"/>
      <point x="233.333" y="340.667" type="line"/>
      <point x="264" y="340.667" type="line"/>
      <point x="465.333" y="586" type="line" smooth="yes"/>
      <point x="515.893" y="647.517"/>
      <point x="572.498" y="681"/>
      <point x="626" y="681" type="curve" smooth="yes"/>
      <point x="684.522" y="681"/>
      <point x="726.333" y="649.77"/>
      <point x="726.333" y="605.333" type="curve" smooth="yes"/>
      <point x="726.333" y="576.181"/>
      <point x="705.538" y="551.256"/>
      <point x="671.667" y="539.667" type="curve"/>
      <point x="580" y="615.667" type="line"/>
      <point x="569.155" y="609.577"/>
      <point x="550.186" y="591.478"/>
      <point x="537" y="575.333" type="curve" smooth="yes"/>
      <point x="381" y="386.667" type="line"/>
      <point x="595.333" y="54" type="line"/>
      <point x="666.333" y="48.3333" type="line"/>
      <point x="666.333" y="0" type="line"/>
      <point x="463.667" y="0" type="line"/>
      <point x="463.667" y="35" type="line"/>
      <point x="293.333" y="294.667" type="line"/>
      <point x="233.333" y="294.667" type="line"/>
      <point x="233.333" y="75" type="line" smooth="yes"/>
      <point x="233.333" y="62.3333"/>
      <point x="242.996" y="53.9476"/>
      <point x="255" y="53" type="curve" smooth="yes"/>
      <point x="309.333" y="48.3333" type="line"/>
      <point x="309.333" y="0" type="line"/>
    </contour>
  </outline>
</glyph>
<glyph name="uni0199" format="2">
  <advance width="572"/>
  <unicode hex="0199"/>
  <outline>
    <contour>
      <point x="24" y="-0.333333" type="line"/>
      <point x="24" y="44" type="line"/>
      <point x="68.3333" y="47.3333" type="line" smooth="yes"/>
      <point x="80" y="48.3333"/>
      <point x="89.6667" y="57.6667"/>
      <point x="89.6667" y="69.6667" type="curve" smooth="yes"/>
      <point x="89.6667" y="475" type="line" smooth="yes"/>
      <point x="89.6667" y="609.139"/>
      <point x="172.554" y="739"/>
      <point x="312.333" y="739" type="curve" smooth="yes"/>
      <point x="353.401" y="739"/>
      <point x="405.333" y="720.253"/>
      <point x="405.333" y="668.667" type="curve" smooth="yes"/>
      <point x="405.333" y="636.968"/>
      <point x="378.667" y="616.333"/>
      <point x="348.667" y="606.333" type="curve"/>
      <point x="252" y="690" type="line"/>
      <point x="225.863" y="657.196"/>
      <point x="210" y="625.51"/>
      <point x="210" y="537.667" type="curve" smooth="yes"/>
      <point x="210" y="258.333" type="line"/>
      <point x="231.667" y="258.333" type="line"/>
      <point x="370.333" y="420" type="line"/>
      <point x="372.388" y="422.722"/>
      <point x="374.076" y="424.872"/>
      <point x="374.076" y="427.667" type="curve" smooth="yes"/>
      <point x="374.076" y="432.108"/>
      <point x="370.533" y="436.436"/>
      <point x="362.667" y="437.333" type="curve" smooth="yes"/>
      <point x="323.667" y="441.333" type="line"/>
      <point x="323.667" y="485.667" type="line"/>
      <point x="527" y="485.667" type="line"/>
      <point x="527" y="441.333" type="line"/>
      <point x="461.667" y="433.333" type="line"/>
      <point x="346.333" y="305.333" type="line"/>
      <point x="506.333" y="49.3333" type="line"/>
      <point x="563.333" y="44" type="line"/>
      <point x="563.333" y="-0.333333" type="line"/>
      <point x="377" y="-0.333333" type="line"/>
      <point x="377" y="40" type="line"/>
      <point x="260.333" y="226" type="line"/>
      <point x="210" y="226" type="line"/>
      <point x="210" y="69.6667" type="line" smooth="yes"/>
      <point x="210" y="57.6667"/>
      <point x="219.333" y="48.3333"/>
      <point x="231.667" y="47.3333" type="curve" smooth="yes"/>
      <point x="273" y="44" type="line"/>
      <point x="273" y="-0.333333" type="line"/>
    </contour>
  </outline>
</glyph>
<glyph name="uni019B" format="2">
  <advance width="678"/>
  <unicode hex="019B"/>
  <outline>
    <contour>
      <point x="10.3333" y="-0.666667" type="line"/>
      <point x="251.333" y="460" type="line"/>
      <point x="234" y="503" type="line"/>
      <point x="100.333" y="384" type="line"/>
      <point x="100.333" y="464" type="line"/>
      <point x="206.667" y="558" type="line"/>
      <point x="190.684" y="601.084"/>
      <point x="180.761" y="617.333"/>
      <point x="159.333" y="617.333" type="curve" smooth="yes"/>
      <point x="152.429" y="617.333"/>
      <point x="145.678" y="615.265"/>
      <point x="143" y="610" type="curve" smooth="yes"/>
      <point x="97.6667" y="523" type="line"/>
      <point x="53.6537" y="523"/>
      <point x="12.6667" y="557.562"/>
      <point x="12.6667" y="594.333" type="curve" smooth="yes"/>
      <point x="12.6667" y="663.333"/>
      <point x="53" y="689.667"/>
      <point x="141.333" y="689.667" type="curve" smooth="yes"/>
      <point x="200.927" y="689.667"/>
      <point x="241.959" y="661.174"/>
      <point x="272" y="615.667" type="curve"/>
      <point x="361.667" y="695" type="line"/>
      <point x="361.667" y="617.667" type="line"/>
      <point x="298.667" y="561.333" type="line"/>
      <point x="468.667" y="144.333" type="line" smooth="yes"/>
      <point x="494.439" y="81.6629"/>
      <point x="508.103" y="60.6667"/>
      <point x="523" y="60.6667" type="curve" smooth="yes"/>
      <point x="529.13" y="60.6667"/>
      <point x="534.06" y="62.2752"/>
      <point x="540.333" y="67" type="curve"/>
      <point x="584.667" y="154" type="line"/>
      <point x="633.056" y="154"/>
      <point x="673.667" y="118.577"/>
      <point x="673.667" y="74.6667" type="curve" smooth="yes"/>
      <point x="673.667" y="16.066"/>
      <point x="632.62" y="-12.6667"/>
      <point x="547.667" y="-12.6667" type="curve" smooth="yes"/>
      <point x="478.26" y="-12.6667"/>
      <point x="434.077" y="23.9185"/>
      <point x="397.667" y="111.333" type="curve" smooth="yes"/>
      <point x="307.667" y="332.333" type="line"/>
      <point x="135" y="-0.666667" type="line"/>
    </contour>
  </outline>
</glyph>
<glyph name="uni01A3" format="2">
  <advance width="819"/>
  <unicode hex="01A3"/>
  <outline>
    <contour>
      <point x="33" y="239.667" type="curve" smooth="yes"/>
      <point x="33" y="395.606"/>
      <point x="130.566" y="498"/>
      <point x="288.667" y="498" type="curve" smooth="yes"/>
      <point x="338.522" y="498"/>
      <point x="390.711" y="491.064"/>
      <point x="451.333" y="476" type="curve" smooth="yes"/>
      <point x="490.102" y="466.256"/>
      <point x="521.652" y="461.333"/>
      <point x="546.667" y="461.333" type="curve" smooth="yes"/>
      <point x="591" y="461.333"/>
      <point x="623.333" y="469.39"/>
      <point x="676.333" y="494" type="curve"/>
      <point x="723.333" y="494" type="line"/>
      <point x="723.333" y="-148" type="line" smooth="yes"/>
      <point x="723.333" y="-160"/>
      <point x="732.66" y="-170.455"/>
      <point x="744.333" y="-170.667" type="curve"/>
      <point x="796.333" y="-173.667" type="line"/>
      <point x="796.333" y="-218" type="line"/>
      <point x="533.333" y="-218" type="line"/>
      <point x="533.333" y="-173.667" type="line"/>
      <point x="583" y="-170.667" type="line"/>
      <point x="594.673" y="-170.442"/>
      <point x="604" y="-160.333"/>
      <point x="604" y="-148.333" type="curve" smooth="yes"/>
      <point x="604" y="388.667" type="line"/>
      <point x="592.221" y="386.461"/>
      <point x="572.917" y="384.667"/>
      <point x="550.667" y="384.667" type="curve" smooth="yes"/>
      <point x="528.417" y="384.667"/>
      <point x="509.112" y="386.461"/>
      <point x="497.333" y="388.667" type="curve"/>
      <point x="497.333" y="121" type="line" smooth="yes"/>
      <point x="497.333" y="38.0902"/>
      <point x="390.313" y="-12.3333"/>
      <point x="283" y="-12.3333" type="curve" smooth="yes"/>
      <point x="128.646" y="-12.3333"/>
      <point x="33" y="88.8808"/>
    </contour>
    <contour>
      <point x="167.333" y="244.333" type="curve" smooth="yes"/>
      <point x="167.333" y="138.978"/>
      <point x="198.063" y="40"/>
      <point x="286" y="40" type="curve" smooth="yes"/>
      <point x="341" y="40"/>
      <point x="382.333" y="76"/>
      <point x="382.333" y="136.333" type="curve" smooth="yes"/>
      <point x="382.333" y="414.667" type="line"/>
      <point x="341.105" y="438.867"/>
      <point x="322.792" y="444.667"/>
      <point x="285.667" y="444.667" type="curve" smooth="yes"/>
      <point x="198.439" y="444.667"/>
      <point x="167.333" y="350.853"/>
    </contour>
  </outline>
</glyph>
<glyph name="uni01A7" format="2">
  <advance width="537"/>
  <unicode hex="01A7"/>
  <outline>
    <contour>
      <point x="39" y="161.667" type="curve" smooth="yes"/>
      <point x="39" y="246.223"/>
      <point x="85.652" y="313.504"/>
      <point x="179.333" y="363" type="curve" smooth="yes"/>
      <point x="287" y="419.333" type="line" smooth="yes"/>
      <point x="344.952" y="449.789"/>
      <point x="373" y="486.559"/>
      <point x="373" y="532.333" type="curve" smooth="yes"/>
      <point x="373" y="588.388"/>
      <point x="327.956" y="623.333"/>
      <point x="255.333" y="623.333" type="curve" smooth="yes"/>
      <point x="227" y="623.333"/>
      <point x="204" y="619.333"/>
      <point x="190.333" y="611.333" type="curve"/>
      <point x="179.333" y="605.333"/>
      <point x="172.327" y="597.668"/>
      <point x="171" y="590.333" type="curve" smooth="yes"/>
      <point x="150.667" y="487" type="line"/>
      <point x="80.3333" y="487" type="line"/>
      <point x="86.3333" y="648.333" type="line"/>
      <point x="140.667" y="673"/>
      <point x="201.333" y="686.333"/>
      <point x="272" y="686.333" type="curve" smooth="yes"/>
      <point x="416.002" y="686.333"/>
      <point x="499.667" y="623.322"/>
      <point x="499.667" y="515" type="curve" smooth="yes"/>
      <point x="499.667" y="439.311"/>
      <point x="461.814" y="379.104"/>
      <point x="386.667" y="337.667" type="curve" smooth="yes"/>
      <point x="233" y="250.667" type="line" smooth="yes"/>
      <point x="191.667" y="227.757"/>
      <point x="171" y="194.983"/>
      <point x="171" y="152.667" type="curve" smooth="yes"/>
      <point x="171" y="89"/>
      <point x="229.333" y="47.3333"/>
      <point x="302" y="47.3333" type="curve" smooth="yes"/>
      <point x="331.333" y="47.3333"/>
      <point x="363.246" y="54.1419"/>
      <point x="384.333" y="63.6667" type="curve"/>
      <point x="394.667" y="68"/>
      <point x="401.632" y="74.0052"/>
      <point x="403" y="84" type="curve" smooth="yes"/>
      <point x="422" y="202.333" type="line"/>
      <point x="495.667" y="202.333" type="line"/>
      <point x="489.667" y="21.3333" type="line"/>
      <point x="441.667" y="-2"/>
      <point x="372" y="-16.3333"/>
      <point x="299.333" y="-16.3333" type="curve" smooth="yes"/>
      <point x="139.512" y="-16.3333"/>
      <point x="39" y="40.2072"/>
    </contour>
  </outline>
</glyph>
<glyph name="uni01A9" format="2">
  <advance width="582"/>
  <unicode hex="01A9"/>
  <outline>
    <contour>
      <point x="37.6667" y="0" type="line"/>
      <point x="37.6667" y="54" type="line"/>
      <point x="237.667" y="348.667" type="line"/>
      <point x="57.6667" y="616.333" type="line"/>
      <point x="57.6667" y="671" type="line"/>
      <point x="533" y="671" type="line"/>
      <point x="533" y="496.333" type="line"/>
      <point x="464" y="496.333" type="line"/>
      <point x="447.667" y="600" type="line" smooth="yes"/>
      <point x="446.333" y="608"/>
      <point x="441.333" y="613.667"/>
      <point x="432.667" y="613.667" type="curve" smooth="yes"/>
      <point x="205" y="613.667" type="line"/>
      <point x="380.333" y="348.667" type="line"/>
      <point x="180.667" y="58.3333" type="line"/>
      <point x="441" y="58.3333" type="line" smooth="yes"/>
      <point x="450.333" y="58.3333"/>
      <point x="455.333" y="64.3333"/>
      <point x="457.333" y="71.6667" type="curve"/>
      <point x="476.333" y="193" type="line"/>
      <point x="544.667" y="193" type="line"/>
      <point x="544.667" y="0" type="line"/>
    </contour>
  </outline>
</glyph>
<glyph name="uni01AA" format="2">
  <advance width="535"/>
  <unicode hex="01AA"/>
  <outline>
    <contour>
      <point x="33" y="501.333" type="curve" smooth="yes"/>
      <point x="33" y="613.471"/>
      <point x="115.533" y="687.333"/>
      <point x="233" y="687.333" type="curve" smooth="yes"/>
      <point x="350.169" y="687.333"/>
      <point x="433.333" y="613.366"/>
      <point x="433.333" y="501.333" type="curve" smooth="yes"/>
      <point x="433.333" y="-22.3333" type="line" smooth="yes"/>
      <point x="433.333" y="-103"/>
      <point x="462.667" y="-164.333"/>
      <point x="489" y="-180" type="curve"/>
      <point x="572" y="-87.3333" type="line"/>
      <point x="623" y="-87.3333"/>
      <point x="639" y="-125.667"/>
      <point x="639" y="-160" type="curve" smooth="yes"/>
      <point x="639" y="-208.333"/>
      <point x="583.667" y="-230.333"/>
      <point x="539.667" y="-230.333" type="curve" smooth="yes"/>
      <point x="408.789" y="-230.333"/>
      <point x="313.667" y="-153.632"/>
      <point x="313.667" y="-22.3333" type="curve" smooth="yes"/>
      <point x="313.667" y="329" type="line"/>
      <point x="289.333" y="320.333"/>
      <point x="263.667" y="315.667"/>
      <point x="233.333" y="315.667" type="curve" smooth="yes"/>
      <point x="115.33" y="315.667"/>
      <point x="33" y="389.7"/>
    </contour>
    <contour>
      <point x="152.333" y="501.333" type="curve" smooth="yes"/>
      <point x="152.333" y="435.471"/>
      <point x="161.951" y="354"/>
      <point x="233.333" y="354" type="curve" smooth="yes"/>
      <point x="305" y="354"/>
      <point x="313.667" y="434.667"/>
      <point x="313.667" y="501.333" type="curve" smooth="yes"/>
      <point x="313.667" y="567.78"/>
      <point x="305.026" y="648.333"/>
      <point x="233" y="648.333" type="curve" smooth="yes"/>
      <point x="161" y="648.333"/>
      <point x="152.333" y="568"/>
    </contour>
  </outline>
</glyph>
<glyph name="uni01AC" format="2">
  <advance width="605"/>
  <unicode hex="01AC"/>
  <outline>
    <contour>
      <point x="5.66667" y="535.333" type="curve" smooth="yes"/>
      <point x="5.66667" y="638.785"/>
      <point x="76.3372" y="671"/>
      <point x="153.667" y="671" type="curve" smooth="yes"/>
      <point x="589.667" y="671" type="line"/>
      <point x="589.667" y="495.667" type="line"/>
      <point x="522" y="495.667" type="line"/>
      <point x="505.333" y="601" type="line"/>
      <point x="504.333" y="609.667"/>
      <point x="498.333" y="614.667"/>
      <point x="489.667" y="614.667" type="curve" smooth="yes"/>
      <point x="367.333" y="614.667" type="line"/>
      <point x="367.333" y="75" type="line" smooth="yes"/>
      <point x="367.333" y="62.3333"/>
      <point x="377.667" y="54"/>
      <point x="389.667" y="53" type="curve" smooth="yes"/>
      <point x="449.667" y="48.3333" type="line"/>
      <point x="449.667" y="0" type="line"/>
      <point x="156" y="0" type="line"/>
      <point x="156" y="48.3333" type="line"/>
      <point x="216.667" y="53" type="line" smooth="yes"/>
      <point x="228" y="54"/>
      <point x="238.333" y="62.3333"/>
      <point x="238.333" y="75" type="curve" smooth="yes"/>
      <point x="238.333" y="614.667" type="line"/>
      <point x="135.667" y="614.667" type="line"/>
      <point x="103" y="613.667"/>
      <point x="85.6667" y="592.667"/>
      <point x="83.6667" y="556.333" type="curve"/>
      <point x="150.333" y="497.333" type="line"/>
      <point x="145.616" y="460.505"/>
      <point x="116.171" y="438.333"/>
      <point x="88.3333" y="438.333" type="curve" smooth="yes"/>
      <point x="36.6667" y="438.333"/>
      <point x="5.66667" y="481.667"/>
    </contour>
  </outline>
</glyph>
<glyph name="uni01B2" format="2">
  <advance width="711"/>
  <unicode hex="01B2"/>
  <outline>
    <contour>
      <point x="24.3333" y="630" type="line"/>
      <point x="24.3333" y="671" type="line"/>
      <point x="231" y="671" type="line"/>
      <point x="231" y="229" type="line" smooth="yes"/>
      <point x="231" y="116.445"/>
      <point x="277.677" y="64.3333"/>
      <point x="377" y="64.3333" type="curve" smooth="yes"/>
      <point x="509.224" y="64.3333"/>
      <point x="606" y="186.397"/>
      <point x="606" y="354" type="curve" smooth="yes"/>
      <point x="606" y="430.922"/>
      <point x="573.624" y="507.224"/>
      <point x="521" y="552" type="curve"/>
      <point x="415" y="552" type="line"/>
      <point x="392.157" y="566.784"/>
      <point x="378.333" y="590.333"/>
      <point x="378.333" y="616" type="curve" smooth="yes"/>
      <point x="378.333" y="660.365"/>
      <point x="412.127" y="687"/>
      <point x="469" y="687" type="curve" smooth="yes"/>
      <point x="571.109" y="687"/>
      <point x="675" y="525.042"/>
      <point x="675" y="366.333" type="curve" smooth="yes"/>
      <point x="675" y="128.669"/>
      <point x="548.205" y="-16.3333"/>
      <point x="341" y="-16.3333" type="curve" smooth="yes"/>
      <point x="197.896" y="-16.3333"/>
      <point x="101.333" y="73.9599"/>
      <point x="101.333" y="208" type="curve" smooth="yes"/>
      <point x="101.333" y="604" type="line" smooth="yes"/>
      <point x="101.333" y="615.167"/>
      <point x="92.5152" y="623.985"/>
      <point x="80.3333" y="625" type="curve" smooth="yes"/>
    </contour>
  </outline>
</glyph>
<glyph name="uni01BC" format="2">
  <advance width="574"/>
  <unicode hex="01BC"/>
  <outline>
    <contour>
      <point x="21.6667" y="622.667" type="line"/>
      <point x="21.6667" y="671" type="line"/>
      <point x="504.667" y="671" type="line"/>
      <point x="504.667" y="509.667" type="line"/>
      <point x="438.333" y="509.667" type="line"/>
      <point x="426.333" y="596.333" type="line"/>
      <point x="425.194" y="606.543"/>
      <point x="414.551" y="617.333"/>
      <point x="405.667" y="617.333" type="curve" smooth="yes"/>
      <point x="248.333" y="617.333" type="line" smooth="yes"/>
      <point x="236.801" y="617.333"/>
      <point x="226.333" y="607.039"/>
      <point x="226.333" y="596.333" type="curve" smooth="yes"/>
      <point x="226.333" y="460.667" type="line"/>
      <point x="402.311" y="460.667"/>
      <point x="534" y="358.458"/>
      <point x="534" y="221.667" type="curve" smooth="yes"/>
      <point x="534" y="75.5936"/>
      <point x="423.516" y="-14.6667"/>
      <point x="245.333" y="-14.6667" type="curve" smooth="yes"/>
      <point x="125.958" y="-14.6667"/>
      <point x="39.3333" y="34.8055"/>
      <point x="39.3333" y="103" type="curve" smooth="yes"/>
      <point x="39.3333" y="140.736"/>
      <point x="67.4035" y="167.333"/>
      <point x="106.667" y="167.333" type="curve" smooth="yes"/>
      <point x="117.367" y="167.333"/>
      <point x="140.399" y="162.547"/>
      <point x="148" y="159" type="curve"/>
      <point x="185" y="56.3333" type="line"/>
      <point x="199.563" y="47.7701"/>
      <point x="230.094" y="41.6667"/>
      <point x="262.667" y="41.6667" type="curve" smooth="yes"/>
      <point x="343.259" y="41.6667"/>
      <point x="403.667" y="108.021"/>
      <point x="403.667" y="197" type="curve" smooth="yes"/>
      <point x="403.667" y="311.03"/>
      <point x="284.647" y="385"/>
      <point x="101" y="385" type="curve"/>
      <point x="101" y="597.333" type="line" smooth="yes"/>
      <point x="101" y="607.276"/>
      <point x="91.7361" y="616.385"/>
      <point x="80" y="618" type="curve"/>
    </contour>
  </outline>
</glyph>
<glyph name="uni01BD" format="2">
  <advance width="473"/>
  <unicode hex="01BD"/>
  <outline>
    <contour>
      <point x="23.3333" y="439.667" type="line"/>
      <point x="23.3333" y="486" type="line"/>
      <point x="409.667" y="486" type="line"/>
      <point x="409.667" y="355" type="line"/>
      <point x="360.667" y="355" type="line"/>
      <point x="349.667" y="414" type="line" smooth="yes"/>
      <point x="347.333" y="425.333"/>
      <point x="341.667" y="431.333"/>
      <point x="332.333" y="431.333" type="curve" smooth="yes"/>
      <point x="209" y="431.333" type="line" smooth="yes"/>
      <point x="199.667" y="431.333"/>
      <point x="192.333" y="424.667"/>
      <point x="192.333" y="416" type="curve" smooth="yes"/>
      <point x="192.333" y="330.667" type="line"/>
      <point x="341.333" y="330.667"/>
      <point x="441.333" y="261.333"/>
      <point x="441.333" y="157" type="curve" smooth="yes"/>
      <point x="441.333" y="58.6667"/>
      <point x="346.333" y="-12"/>
      <point x="215" y="-12" type="curve" smooth="yes"/>
      <point x="107" y="-12"/>
      <point x="37.3333" y="22.3333"/>
      <point x="37.3333" y="75" type="curve" smooth="yes"/>
      <point x="37.3333" y="108.333"/>
      <point x="61.3333" y="135"/>
      <point x="90.6667" y="135" type="curve" smooth="yes"/>
      <point x="100.333" y="135"/>
      <point x="113.333" y="133"/>
      <point x="122.333" y="131" type="curve"/>
      <point x="170" y="49.3333" type="line"/>
      <point x="184" y="43.6667"/>
      <point x="204.333" y="39.3333"/>
      <point x="220" y="39.3333" type="curve" smooth="yes"/>
      <point x="277.667" y="39.3333"/>
      <point x="318.333" y="80.6667"/>
      <point x="318.333" y="140" type="curve" smooth="yes"/>
      <point x="318.333" y="223.333"/>
      <point x="239.667" y="267"/>
      <point x="89.6667" y="267" type="curve"/>
      <point x="89.6667" y="416.333" type="line" smooth="yes"/>
      <point x="89.6667" y="427"/>
      <point x="80.3333" y="436.333"/>
      <point x="70" y="436.667" type="curve"/>
    </contour>
  </outline>
</glyph>
<glyph name="uni01BE" format="2">
  <advance width="474"/>
  <unicode hex="01BE"/>
  <outline>
    <contour>
      <point x="37.3333" y="418" type="line"/>
      <point x="37.3333" y="477" type="line"/>
      <point x="149.667" y="477" type="line"/>
      <point x="149.667" y="600" type="line" smooth="yes"/>
      <point x="149.667" y="610.996"/>
      <point x="140.913" y="619.95"/>
      <point x="127.667" y="621" type="curve" smooth="yes"/>
      <point x="68" y="626.667" type="line"/>
      <point x="68" y="673.667" type="line"/>
      <point x="352" y="673.667" type="line"/>
      <point x="352" y="626.667" type="line"/>
      <point x="290.667" y="621" type="line" smooth="yes"/>
      <point x="276.858" y="619.934"/>
      <point x="268.667" y="611.336"/>
      <point x="268.667" y="599.667" type="curve" smooth="yes"/>
      <point x="268.667" y="476.667" type="line"/>
      <point x="380.667" y="476.667" type="line"/>
      <point x="380.667" y="417.667" type="line"/>
      <point x="268.667" y="417.667" type="line"/>
      <point x="268.667" y="380" type="line"/>
      <point x="365.727" y="355.025"/>
      <point x="436.667" y="268.369"/>
      <point x="436.667" y="172.667" type="curve" smooth="yes"/>
      <point x="436.667" y="62.0454"/>
      <point x="347.479" y="-13.3333"/>
      <point x="216.333" y="-13.3333" type="curve" smooth="yes"/>
      <point x="109.807" y="-13.3333"/>
      <point x="37.3333" y="31.5705"/>
      <point x="37.3333" y="98" type="curve" smooth="yes"/>
      <point x="37.3333" y="130.774"/>
      <point x="58.4094" y="151.667"/>
      <point x="91.6667" y="151.667" type="curve" smooth="yes"/>
      <point x="109.589" y="151.667"/>
      <point x="121.705" y="148.703"/>
      <point x="135.667" y="141.333" type="curve"/>
      <point x="168" y="55.6667" type="line"/>
      <point x="183.291" y="44.9038"/>
      <point x="195.426" y="41.6667"/>
      <point x="218" y="41.6667" type="curve"/>
      <point x="272.82" y="42.3333"/>
      <point x="313.333" y="98.5798"/>
      <point x="313.333" y="174.667" type="curve" smooth="yes"/>
      <point x="313.333" y="257.716"/>
      <point x="241.251" y="342.621"/>
      <point x="149.667" y="367.333" type="curve"/>
      <point x="149.667" y="418" type="line"/>
    </contour>
  </outline>
</glyph>
<glyph name="uni01C9" format="2">
  <advance width="634"/>
  <unicode hex="01C9"/>
  <outline>
    <contour>
      <point x="28" y="654.333" type="line"/>
      <point x="28" y="692.667" type="line"/>
      <point x="172.667" y="739" type="line"/>
      <point x="220.333" y="739" type="line"/>
      <point x="220.333" y="69.6667" type="line" smooth="yes"/>
      <point x="220.333" y="58"/>
      <point x="230.333" y="48"/>
      <point x="242" y="47.3333" type="curve" smooth="yes"/>
      <point x="293.333" y="44.3333" type="line"/>
      <point x="293.333" y="0" type="line"/>
      <point x="28.3333" y="0" type="line"/>
      <point x="28.3333" y="44.3333" type="line"/>
      <point x="78.6667" y="47.3333" type="line" smooth="yes"/>
      <point x="90.3333" y="48"/>
      <point x="100.667" y="58"/>
      <point x="100.667" y="69.6667" type="curve" smooth="yes"/>
      <point x="100.667" y="654.333" type="line"/>
    </contour>
    <contour>
      <point x="234.333" y="-161.333" type="curve" smooth="yes"/>
      <point x="234.333" y="-126.333"/>
      <point x="261" y="-102.667"/>
      <point x="291.333" y="-97.3333" type="curve"/>
      <point x="389" y="-185.667" type="line"/>
      <point x="421.667" y="-143"/>
      <point x="423.667" y="-44.3333"/>
      <point x="423.667" y="-10.3333" type="curve" smooth="yes"/>
      <point x="423.667" y="413.667" type="line"/>
      <point x="352.667" y="413.667" type="line"/>
      <point x="352.667" y="452" type="line"/>
      <point x="495.667" y="498" type="line"/>
      <point x="543.333" y="498" type="line"/>
      <point x="543.333" y="52.6667" type="line" smooth="yes"/>
      <point x="543.333" y="-100.455"/>
      <point x="477.419" y="-230.333"/>
      <point x="326.333" y="-230.333" type="curve" smooth="yes"/>
      <point x="276.667" y="-230.333"/>
      <point x="234.333" y="-207.333"/>
    </contour>
    <contour>
      <point x="409.333" y="657.667" type="curve" smooth="yes"/>
      <point x="409.333" y="697.741"/>
      <point x="441.925" y="729.667"/>
      <point x="482" y="729.667" type="curve" smooth="yes"/>
      <point x="522.075" y="729.667"/>
      <point x="554" y="697.741"/>
      <point x="554" y="657.667" type="curve" smooth="yes"/>
      <point x="554" y="617.592"/>
      <point x="522.075" y="585"/>
      <point x="482" y="585" type="curve" smooth="yes"/>
      <point x="441.925" y="585"/>
      <point x="409.333" y="617.592"/>
    </contour>
  </outline>
</glyph>
<glyph name="uni01E9" format="2">
  <advance width="572"/>
  <unicode hex="01E9"/>
  <outline>
    <contour>
      <point x="18.1667" y="969.333" type="line"/>
      <point x="93.1667" y="969.333" type="line"/>
      <point x="186.5" y="873.667" type="line"/>
      <point x="278.167" y="969.333" type="line"/>
      <point x="354.167" y="969.333" type="line"/>
      <point x="237.5" y="799" type="line"/>
      <point x="133.5" y="799" type="line"/>
    </contour>
    <contour>
      <point x="18" y="654.333" type="line"/>
      <point x="18" y="692.667" type="line"/>
      <point x="162" y="739" type="line"/>
      <point x="209.667" y="739" type="line"/>
      <point x="209.667" y="258.667" type="line"/>
      <point x="231" y="258.667" type="line"/>
      <point x="369.333" y="420.667" type="line"/>
      <point x="371.283" y="422.822"/>
      <point x="372.268" y="425.73"/>
      <point x="372.268" y="428.667" type="curve" smooth="yes"/>
      <point x="372.268" y="433.586"/>
      <point x="368.157" y="436.79"/>
      <point x="362" y="437.667" type="curve"/>
      <point x="323" y="441.667" type="line"/>
      <point x="323" y="486" type="line"/>
      <point x="526.333" y="486" type="line"/>
      <point x="526.333" y="441.667" type="line"/>
      <point x="461" y="434" type="line"/>
      <point x="345.667" y="305.667" type="line"/>
      <point x="505.667" y="49.6667" type="line"/>
      <point x="562.667" y="44.3333" type="line"/>
      <point x="562.667" y="0" type="line"/>
      <point x="374.667" y="0" type="line"/>
      <point x="374.667" y="40.3333" type="line"/>
      <point x="259.667" y="226.333" type="line"/>
      <point x="209.667" y="226.333" type="line"/>
      <point x="209.667" y="69.6667" type="line" smooth="yes"/>
      <point x="209.667" y="57.6667"/>
      <point x="219" y="48.3333"/>
      <point x="231.333" y="47.3333" type="curve" smooth="yes"/>
      <point x="272.333" y="44.3333" type="line"/>
      <point x="272.333" y="0" type="line"/>
      <point x="24" y="0" type="line"/>
      <point x="24" y="44.3333" type="line"/>
      <point x="68.3333" y="47.3333" type="line" smooth="yes"/>
      <point x="80" y="48.3333"/>
      <point x="90" y="57.6667"/>
      <point x="90" y="69.6667" type="curve" smooth="yes"/>
      <point x="90" y="654.333" type="line"/>
    </contour>
  </outline>
</glyph>
<glyph name="uni01EE" format="2">
  <advance width="636"/>
  <unicode hex="01EE"/>
  <outline>
    <contour>
      <point x="24.6667" y="-73.6667" type="curve" smooth="yes"/>
      <point x="24.6667" y="-12.3333"/>
      <point x="64.3333" y="11.3333"/>
      <point x="102.667" y="11.3333" type="curve" smooth="yes"/>
      <point x="120" y="11.3333"/>
      <point x="138" y="4.33333"/>
      <point x="148.667" y="-2" type="curve"/>
      <point x="185.333" y="-136.667" type="line"/>
      <point x="210.333" y="-155.667"/>
      <point x="246.333" y="-166.333"/>
      <point x="280.333" y="-166.333" type="curve" smooth="yes"/>
      <point x="375.876" y="-166.333"/>
      <point x="457.333" y="-36.252"/>
      <point x="457.333" y="67.6667" type="curve" smooth="yes"/>
      <point x="457.333" y="168.729"/>
      <point x="398.647" y="252"/>
      <point x="304" y="252" type="curve" smooth="yes"/>
      <point x="285" y="252"/>
      <point x="270.333" y="248.333"/>
      <point x="258.667" y="240.667" type="curve"/>
      <point x="228.333" y="274.333" type="line"/>
      <point x="430.667" y="554.667" type="line"/>
      <point x="167.333" y="554.667" type="line" smooth="yes"/>
      <point x="156" y="554.667"/>
      <point x="145.427" y="539.137"/>
      <point x="144.333" y="528" type="curve" smooth="yes"/>
      <point x="135.333" y="411.333" type="line"/>
      <point x="68.3333" y="411.333" type="line"/>
      <point x="68.3333" y="671.333" type="line"/>
      <point x="568.333" y="671.333" type="line"/>
      <point x="568.333" y="612" type="line"/>
      <point x="350" y="311" type="line"/>
      <point x="492.558" y="311"/>
      <point x="600" y="187.825"/>
      <point x="600" y="67.3333" type="curve" smooth="yes"/>
      <point x="600" y="-97.6633"/>
      <point x="454.195" y="-230.333"/>
      <point x="280.333" y="-230.333" type="curve" smooth="yes"/>
      <point x="144.287" y="-230.333"/>
      <point x="24.6667" y="-163.209"/>
    </contour>
    <contour>
      <point x="150.333" y="917" type="line"/>
      <point x="226" y="917" type="line"/>
      <point x="318.667" y="821.333" type="line"/>
      <point x="411" y="917" type="line"/>
      <point x="486.333" y="917" type="line"/>
      <point x="370.333" y="746.667" type="line"/>
      <point x="266.333" y="746.667" type="line"/>
    </contour>
  </outline>
</glyph>
<glyph name="uni01EF" format="2">
  <advance width="546"/>
  <unicode hex="01EF"/>
  <outline>
    <contour>
      <point x="17.6667" y="-99.3333" type="curve" smooth="yes"/>
      <point x="17.6667" y="-59.0973"/>
      <point x="45.2344" y="-32.3333"/>
      <point x="86.3333" y="-32.3333" type="curve" smooth="yes"/>
      <point x="100.417" y="-32.3333"/>
      <point x="114.714" y="-36.3652"/>
      <point x="126" y="-43" type="curve"/>
      <point x="158.333" y="-148.667" type="line"/>
      <point x="180.424" y="-164.493"/>
      <point x="211.047" y="-172.333"/>
      <point x="247.667" y="-172.333" type="curve" smooth="yes"/>
      <point x="326.246" y="-172.333"/>
      <point x="382.333" y="-95.5143"/>
      <point x="382.333" y="13.3333" type="curve" smooth="yes"/>
      <point x="382.333" y="99.3255"/>
      <point x="334.72" y="154.333"/>
      <point x="261.333" y="154.333" type="curve" smooth="yes"/>
      <point x="244.324" y="154.333"/>
      <point x="231.698" y="151.014"/>
      <point x="222.333" y="144.667" type="curve"/>
      <point x="195.333" y="171.333" type="line"/>
      <point x="363.333" y="380.667" type="line"/>
      <point x="147.667" y="380.667" type="line" smooth="yes"/>
      <point x="138.677" y="380.667"/>
      <point x="129.175" y="370.201"/>
      <point x="128" y="359.667" type="curve" smooth="yes"/>
      <point x="120" y="275" type="line"/>
      <point x="55.3333" y="275" type="line"/>
      <point x="55.3333" y="485.333" type="line"/>
      <point x="486.667" y="485.333" type="line"/>
      <point x="486.667" y="432.333" type="line"/>
      <point x="300.667" y="199.333" type="line"/>
      <point x="417.228" y="199.333"/>
      <point x="514.333" y="114.724"/>
      <point x="514.333" y="13.3333" type="curve" smooth="yes"/>
      <point x="514.333" y="-135.714"/>
      <point x="407.302" y="-230.667"/>
      <point x="240.333" y="-230.667" type="curve" smooth="yes"/>
      <point x="121.081" y="-230.667"/>
      <point x="17.6667" y="-169.424"/>
    </contour>
    <contour>
      <point x="103" y="728.667" type="line"/>
      <point x="178.667" y="728.667" type="line"/>
      <point x="271.333" y="633" type="line"/>
      <point x="363.667" y="728.667" type="line"/>
      <point x="439" y="728.667" type="line"/>
      <point x="323" y="558.333" type="line"/>
      <point x="219" y="558.333" type="line"/>
    </contour>
  </outline>
</glyph>
<glyph name="uni01F6" format="2">
  <advance width="1038"/>
  <unicode hex="01F6"/>
  <outline>
    <contour>
      <point x="30.6667" y="0" type="line"/>
      <point x="30.6667" y="48.3333" type="line"/>
      <point x="82.6667" y="53" type="line" smooth="yes"/>
      <point x="94.6667" y="54"/>
      <point x="104.667" y="62.3333"/>
      <point x="104.667" y="75" type="curve" smooth="yes"/>
      <point x="104.667" y="596" type="line" smooth="yes"/>
      <point x="104.667" y="608.667"/>
      <point x="94.6667" y="616.667"/>
      <point x="82.6667" y="617.667" type="curve" smooth="yes"/>
      <point x="30.6667" y="622.333" type="line"/>
      <point x="30.6667" y="671" type="line"/>
      <point x="309.667" y="671" type="line"/>
      <point x="309.667" y="622.333" type="line"/>
      <point x="255.333" y="617.667" type="line" smooth="yes"/>
      <point x="243.333" y="616.667"/>
      <point x="233.667" y="608.667"/>
      <point x="233.667" y="596" type="curve" smooth="yes"/>
      <point x="233.667" y="381.667" type="line"/>
      <point x="526.667" y="381.667" type="line"/>
      <point x="526.667" y="596" type="line" smooth="yes"/>
      <point x="526.667" y="608.333"/>
      <point x="516.667" y="616.667"/>
      <point x="505" y="617.667" type="curve" smooth="yes"/>
      <point x="451.333" y="622.333" type="line"/>
      <point x="451.333" y="671" type="line"/>
      <point x="729.667" y="671" type="line"/>
      <point x="729.667" y="622.333" type="line"/>
      <point x="677.667" y="617.667" type="line" smooth="yes"/>
      <point x="666.333" y="616.667"/>
      <point x="655.667" y="608.667"/>
      <point x="655.667" y="596" type="curve" smooth="yes"/>
      <point x="655.667" y="150" type="line" smooth="yes"/>
      <point x="655.667" y="91.6667"/>
      <point x="692.667" y="51.3333"/>
      <point x="752.667" y="51.3333" type="curve" smooth="yes"/>
      <point x="804" y="51.3333"/>
      <point x="838.667" y="91.6667"/>
      <point x="838.667" y="150" type="curve" smooth="yes"/>
      <point x="838.667" y="413" type="line"/>
      <point x="773" y="413" type="line"/>
      <point x="773" y="451.667" type="line"/>
      <point x="911.333" y="498" type="line"/>
      <point x="959" y="498" type="line"/>
      <point x="959" y="153" type="line" smooth="yes"/>
      <point x="959" y="42"/>
      <point x="857.333" y="-16"/>
      <point x="739.667" y="-16" type="curve" smooth="yes"/>
      <point x="617" y="-16"/>
      <point x="526.667" y="43.6667"/>
      <point x="526.667" y="153" type="curve" smooth="yes"/>
      <point x="526.667" y="322.333" type="line"/>
      <point x="233.667" y="322.333" type="line"/>
      <point x="233.667" y="75" type="line" smooth="yes"/>
      <point x="233.667" y="62.3333"/>
      <point x="243.333" y="54"/>
      <point x="255.333" y="53" type="curve" smooth="yes"/>
      <point x="309.667" y="48.3333" type="line"/>
      <point x="309.667" y="0" type="line"/>
    </contour>
  </outline>
</glyph>
<glyph name="uni01F7" format="2">
  <advance width="613"/>
  <unicode hex="01F7"/>
  <outline>
    <contour>
      <point x="27.3333" y="586" type="line"/>
      <point x="27.3333" y="624.333" type="line"/>
      <point x="172" y="671.333" type="line"/>
      <point x="222.333" y="671.333" type="line"/>
      <point x="222.333" y="600.333" type="line"/>
      <point x="271.252" y="648.88"/>
      <point x="328.21" y="687.333"/>
      <point x="412.333" y="687.333" type="curve" smooth="yes"/>
      <point x="525.625" y="687.333"/>
      <point x="583.333" y="600.193"/>
      <point x="583.333" y="507.333" type="curve" smooth="yes"/>
      <point x="583.333" y="293.722"/>
      <point x="375.305" y="126.03"/>
      <point x="222.667" y="18.6667" type="curve"/>
      <point x="222.667" y="-147.667" type="line" smooth="yes"/>
      <point x="222.667" y="-159.893"/>
      <point x="231.925" y="-170.144"/>
      <point x="244.667" y="-170.333" type="curve"/>
      <point x="295.333" y="-173.333" type="line"/>
      <point x="295.333" y="-217.667" type="line"/>
      <point x="27.6667" y="-217.667" type="line"/>
      <point x="27.6667" y="-173.333" type="line"/>
      <point x="78" y="-170.333" type="line"/>
      <point x="89.1657" y="-168.821"/>
      <point x="100" y="-159.509"/>
      <point x="100" y="-148" type="curve" smooth="yes"/>
      <point x="100" y="586" type="line"/>
    </contour>
    <contour>
      <point x="222.667" y="515" type="curve"/>
      <point x="222.667" y="103.333" type="line"/>
      <point x="346.944" y="201.651"/>
      <point x="442.667" y="358.799"/>
      <point x="442.667" y="475.333" type="curve" smooth="yes"/>
      <point x="442.667" y="536.898"/>
      <point x="423.224" y="596"/>
      <point x="368.667" y="596" type="curve" smooth="yes"/>
      <point x="309.55" y="596"/>
      <point x="258.447" y="553.681"/>
    </contour>
  </outline>
</glyph>
<glyph name="aeacute" format="2">
  <advance width="754"/>
  <unicode hex="01FD"/>
  <outline>
    <contour>
      <point x="33.3333" y="120.667" type="curve" smooth="yes"/>
      <point x="33.3333" y="208.538"/>
      <point x="85.849" y="246.241"/>
      <point x="189" y="275" type="curve"/>
      <point x="319" y="309.667" type="line"/>
      <point x="319" y="342" type="line" smooth="yes"/>
      <point x="319" y="411.333"/>
      <point x="292.667" y="445"/>
      <point x="228" y="445" type="curve" smooth="yes"/>
      <point x="211.333" y="445"/>
      <point x="188.667" y="440.333"/>
      <point x="183.667" y="438" type="curve"/>
      <point x="183.667" y="345" type="line"/>
      <point x="100.333" y="345" type="line" smooth="yes"/>
      <point x="66" y="345"/>
      <point x="55" y="352.667"/>
      <point x="55" y="380" type="curve" smooth="yes"/>
      <point x="55" y="458.974"/>
      <point x="165.827" y="497.333"/>
      <point x="261" y="497.333" type="curve" smooth="yes"/>
      <point x="355.373" y="497.333"/>
      <point x="394.432" y="454.793"/>
      <point x="404.667" y="442" type="curve"/>
      <point x="414" y="453"/>
      <point x="461.667" y="497.667"/>
      <point x="542.667" y="497.667" type="curve" smooth="yes"/>
      <point x="672" y="497.667"/>
      <point x="722" y="394.333"/>
      <point x="722" y="276" type="curve" smooth="yes"/>
      <point x="722" y="267.074"/>
      <point x="721.113" y="255.232"/>
      <point x="720.667" y="251.333" type="curve"/>
      <point x="435" y="251.333" type="line"/>
      <point x="435" y="130.333" type="line"/>
      <point x="451" y="109.667"/>
      <point x="491.667" y="67.6667"/>
      <point x="582" y="67.6667" type="curve" smooth="yes"/>
      <point x="655.823" y="67.6667"/>
      <point x="709.913" y="112.503"/>
      <point x="721.667" y="121.667" type="curve"/>
      <point x="721.667" y="49" type="line"/>
      <point x="707.667" y="38.6667"/>
      <point x="640.333" y="-10.3333"/>
      <point x="542.333" y="-10.3333" type="curve" smooth="yes"/>
      <point x="428.076" y="-10.3333"/>
      <point x="362.262" y="49.3841"/>
      <point x="349" y="63.6667" type="curve"/>
      <point x="334.172" y="51.8802"/>
      <point x="255.308" y="-10.3333"/>
      <point x="161.667" y="-10.3333" type="curve" smooth="yes"/>
      <point x="74.6667" y="-10.3333"/>
      <point x="33.3333" y="49.3333"/>
    </contour>
    <contour>
      <point x="157" y="143" type="curve" smooth="yes"/>
      <point x="157" y="99.2552"/>
      <point x="179.966" y="64"/>
      <point x="225" y="64" type="curve" smooth="yes"/>
      <point x="266.678" y="64"/>
      <point x="292.352" y="79.5977"/>
      <point x="318.667" y="97.6667" type="curve"/>
      <point x="318.667" y="262" type="line"/>
      <point x="266.667" y="247.667"/>
      <point x="228.173" y="233.761"/>
      <point x="200" y="217" type="curve" smooth="yes"/>
      <point x="167.04" y="197.772"/>
      <point x="157" y="175"/>
    </contour>
    <contour>
      <point x="323.333" y="559" type="line"/>
      <point x="459.333" y="711.333" type="line" smooth="yes"/>
      <point x="478.667" y="733"/>
      <point x="491" y="741.667"/>
      <point x="518.333" y="741.667" type="curve" smooth="yes"/>
      <point x="556.886" y="741.667"/>
      <point x="572.667" y="716.863"/>
      <point x="572.667" y="691.333" type="curve" smooth="yes"/>
      <point x="572.667" y="676.333"/>
      <point x="560.671" y="657.66"/>
      <point x="547.667" y="650" type="curve" smooth="yes"/>
      <point x="388.667" y="559" type="line"/>
    </contour>
    <contour>
      <point x="432.667" y="303.667" type="curve"/>
      <point x="597.333" y="303.667" type="line"/>
      <point x="597.333" y="327.667" type="line" smooth="yes"/>
      <point x="597.333" y="374.852"/>
      <point x="586.038" y="446.333"/>
      <point x="521" y="446.333" type="curve" smooth="yes"/>
      <point x="440" y="446.333"/>
      <point x="432.667" y="350.333"/>
    </contour>
  </outline>
</glyph>
<glyph name="uni0200" format="2">
  <advance width="682"/>
  <unicode hex="0200"/>
  <outline>
    <contour>
      <point x="5" y="0" type="line"/>
      <point x="5" y="48.3333" type="line"/>
      <point x="61.6667" y="58" type="line"/>
      <point x="288.667" y="687.333" type="line"/>
      <point x="389.667" y="687.333" type="line"/>
      <point x="615" y="75" type="line"/>
      <point x="620.077" y="62.3623"/>
      <point x="623.018" y="58.4339"/>
      <point x="636.667" y="55.6667" type="curve" smooth="yes"/>
      <point x="677" y="48.3333" type="line"/>
      <point x="677" y="0" type="line"/>
      <point x="413.667" y="0" type="line"/>
      <point x="413.667" y="48.3333" type="line"/>
      <point x="472.333" y="55" type="line"/>
      <point x="478.237" y="55.9326"/>
      <point x="482.667" y="61.3809"/>
      <point x="482.667" y="67.6667" type="curve"/>
      <point x="482.667" y="68.889"/>
      <point x="482.465" y="70.9831"/>
      <point x="481.667" y="72" type="curve"/>
      <point x="422.667" y="239" type="line"/>
      <point x="203" y="239" type="line"/>
      <point x="144.333" y="75.6667" type="line"/>
      <point x="143.544" y="74.6641"/>
      <point x="143.333" y="72.3333"/>
      <point x="143.333" y="71" type="curve"/>
      <point x="143.333" y="62.6471"/>
      <point x="151.336" y="55.9714"/>
      <point x="158.333" y="55" type="curve" smooth="yes"/>
      <point x="215.333" y="48.3333" type="line"/>
      <point x="215.333" y="0" type="line"/>
    </contour>
    <contour>
      <point x="19" y="879.667" type="curve" smooth="yes"/>
      <point x="19" y="910.5"/>
      <point x="39.8333" y="930"/>
      <point x="72" y="930" type="curve" smooth="yes"/>
      <point x="98.2717" y="930"/>
      <point x="112.053" y="923.15"/>
      <point x="133" y="899.667" type="curve" smooth="yes"/>
      <point x="268" y="747.333" type="line"/>
      <point x="202.667" y="747.333" type="line"/>
      <point x="44.3333" y="838.333" type="line"/>
      <point x="30.3294" y="846.951"/>
      <point x="19" y="864.722"/>
    </contour>
    <contour>
      <point x="221.667" y="294" type="line"/>
      <point x="400" y="294" type="line"/>
      <point x="310" y="541.333" type="line"/>
    </contour>
    <contour>
      <point x="227" y="879.667" type="curve" smooth="yes"/>
      <point x="227" y="910.465"/>
      <point x="248.457" y="930.333"/>
      <point x="281" y="930.333" type="curve" smooth="yes"/>
      <point x="306.636" y="930.333"/>
      <point x="320.095" y="923.525"/>
      <point x="340.333" y="900" type="curve" smooth="yes"/>
      <point x="475.667" y="747.667" type="line"/>
      <point x="410.667" y="747.667" type="line"/>
      <point x="252.667" y="838.667" type="line" smooth="yes"/>
      <point x="237.638" y="846.838"/>
      <point x="227" y="864.287"/>
    </contour>
  </outline>
</glyph>
<glyph name="uni0204" format="2">
  <advance width="593"/>
  <unicode hex="0204"/>
  <outline>
    <contour>
      <point x="-41.1667" y="879" type="curve" smooth="yes"/>
      <point x="-41.1667" y="909.833"/>
      <point x="-20.3333" y="929.333"/>
      <point x="11.8333" y="929.333" type="curve" smooth="yes"/>
      <point x="38.1051" y="929.333"/>
      <point x="51.8867" y="922.483"/>
      <point x="72.8333" y="899" type="curve" smooth="yes"/>
      <point x="207.833" y="746.667" type="line"/>
      <point x="142.5" y="746.667" type="line"/>
      <point x="-15.8333" y="837.667" type="line"/>
      <point x="-29.8372" y="846.285"/>
      <point x="-41.1667" y="864.056"/>
    </contour>
    <contour>
      <point x="28" y="0" type="line"/>
      <point x="28" y="48.3333" type="line"/>
      <point x="82" y="53" type="line" smooth="yes"/>
      <point x="94" y="54"/>
      <point x="104.667" y="62.3333"/>
      <point x="104.667" y="75" type="curve" smooth="yes"/>
      <point x="104.667" y="596" type="line" smooth="yes"/>
      <point x="104.667" y="608.667"/>
      <point x="94" y="617"/>
      <point x="82" y="618" type="curve" smooth="yes"/>
      <point x="28" y="622.667" type="line"/>
      <point x="28" y="671" type="line"/>
      <point x="530" y="671" type="line"/>
      <point x="530" y="514.667" type="line"/>
      <point x="462" y="514.667" type="line"/>
      <point x="446.333" y="597.333" type="line" smooth="yes"/>
      <point x="444.333" y="607"/>
      <point x="437.667" y="616.333"/>
      <point x="428.333" y="616.333" type="curve" smooth="yes"/>
      <point x="232" y="616.333" type="line"/>
      <point x="232" y="376.667" type="line"/>
      <point x="361.333" y="376.667" type="line" smooth="yes"/>
      <point x="370.667" y="376.667"/>
      <point x="377.333" y="386"/>
      <point x="378.667" y="394.333" type="curve" smooth="yes"/>
      <point x="388" y="462.667" type="line"/>
      <point x="446.333" y="462.667" type="line"/>
      <point x="446.333" y="231.667" type="line"/>
      <point x="388" y="231.667" type="line"/>
      <point x="379" y="300" type="line" smooth="yes"/>
      <point x="378" y="308"/>
      <point x="371.333" y="318"/>
      <point x="361.667" y="318" type="curve" smooth="yes"/>
      <point x="232.333" y="318" type="line"/>
      <point x="232.333" y="56.3333" type="line"/>
      <point x="462" y="56.3333" type="line" smooth="yes"/>
      <point x="470" y="56.3333"/>
      <point x="478.667" y="68.3333"/>
      <point x="479.667" y="75.3333" type="curve" smooth="yes"/>
      <point x="495.667" y="177.667" type="line"/>
      <point x="562.333" y="177.667" type="line"/>
      <point x="562.333" y="0" type="line"/>
    </contour>
    <contour>
      <point x="166.833" y="879" type="curve" smooth="yes"/>
      <point x="166.833" y="909.799"/>
      <point x="188.29" y="929.667"/>
      <point x="220.833" y="929.667" type="curve" smooth="yes"/>
      <point x="246.469" y="929.667"/>
      <point x="259.928" y="922.858"/>
      <point x="280.167" y="899.333" type="curve" smooth="yes"/>
      <point x="415.5" y="747" type="line"/>
      <point x="350.5" y="747" type="line"/>
      <point x="192.5" y="838" type="line" smooth="yes"/>
      <point x="177.471" y="846.172"/>
      <point x="166.833" y="863.62"/>
    </contour>
  </outline>
</glyph>
<glyph name="uni0207" format="2">
  <advance width="515"/>
  <unicode hex="0207"/>
  <outline>
    <contour>
      <point x="32.6667" y="237" type="curve" smooth="yes"/>
      <point x="32.6667" y="388"/>
      <point x="128" y="498.333"/>
      <point x="279" y="498.333" type="curve" smooth="yes"/>
      <point x="425" y="498.333"/>
      <point x="484" y="396.333"/>
      <point x="484" y="277.667" type="curve" smooth="yes"/>
      <point x="484" y="252.333" type="line"/>
      <point x="157" y="252.333" type="line"/>
      <point x="157" y="139"/>
      <point x="210" y="63.3333"/>
      <point x="315" y="63.3333" type="curve" smooth="yes"/>
      <point x="403" y="63.3333"/>
      <point x="467.333" y="110.667"/>
      <point x="483.667" y="121.333" type="curve"/>
      <point x="483.667" y="47.6667" type="line"/>
      <point x="466.667" y="37.3333"/>
      <point x="390.667" y="-12.3333"/>
      <point x="279.667" y="-12.3333" type="curve" smooth="yes"/>
      <point x="117.667" y="-12.3333"/>
      <point x="32.6667" y="95.3333"/>
    </contour>
    <contour>
      <point x="125.5" y="558.333" type="line"/>
      <point x="125.5" y="646.875"/>
      <point x="180.201" y="716.667"/>
      <point x="279.167" y="716.667" type="curve" smooth="yes"/>
      <point x="378.742" y="716.667"/>
      <point x="432.5" y="647.35"/>
      <point x="432.5" y="558.333" type="curve"/>
      <point x="384.833" y="558.333" type="line"/>
      <point x="372.167" y="615.206"/>
      <point x="329.167" y="639.667"/>
      <point x="278.833" y="639.667" type="curve" smooth="yes"/>
      <point x="229.536" y="639.667"/>
      <point x="186.094" y="615.206"/>
      <point x="173.5" y="558.333" type="curve"/>
    </contour>
    <contour>
      <point x="161.667" y="304.333" type="curve"/>
      <point x="355" y="304.333" type="line"/>
      <point x="355" y="326.333" type="line" smooth="yes"/>
      <point x="355" y="391.667"/>
      <point x="329.667" y="442.333"/>
      <point x="268" y="442.333" type="curve" smooth="yes"/>
      <point x="192.333" y="442.333"/>
      <point x="163.333" y="371.667"/>
    </contour>
  </outline>
</glyph>
<glyph name="uni020E" format="2">
  <advance width="747"/>
  <unicode hex="020E"/>
  <outline>
    <contour>
      <point x="218.167" y="746.667" type="line"/>
      <point x="218.167" y="835.209"/>
      <point x="272.868" y="905"/>
      <point x="371.833" y="905" type="curve" smooth="yes"/>
      <point x="471.409" y="905"/>
      <point x="525.833" y="835.683"/>
      <point x="525.833" y="746.667" type="curve"/>
      <point x="477.5" y="746.667" type="line"/>
      <point x="464.833" y="803.539"/>
      <point x="421.833" y="828"/>
      <point x="371.5" y="828" type="curve" smooth="yes"/>
      <point x="322.203" y="828"/>
      <point x="278.761" y="803.539"/>
      <point x="266.167" y="746.667" type="curve"/>
    </contour>
    <contour>
      <point x="37.6667" y="339" type="curve" smooth="yes"/>
      <point x="37.6667" y="533.333"/>
      <point x="166.667" y="686.667"/>
      <point x="372" y="686.667" type="curve" smooth="yes"/>
      <point x="574" y="686.667"/>
      <point x="711" y="526"/>
      <point x="711" y="333.667" type="curve" smooth="yes"/>
      <point x="711" y="143"/>
      <point x="575.333" y="-15.6667"/>
      <point x="378" y="-15.6667" type="curve" smooth="yes"/>
      <point x="181.333" y="-15.6667"/>
      <point x="37.6667" y="124.333"/>
    </contour>
    <contour>
      <point x="183" y="337" type="curve" smooth="yes"/>
      <point x="183" y="199"/>
      <point x="238.667" y="44.3333"/>
      <point x="370.667" y="44.3333" type="curve" smooth="yes"/>
      <point x="510" y="44.3333"/>
      <point x="564.667" y="201.667"/>
      <point x="564.667" y="331" type="curve" smooth="yes"/>
      <point x="564.667" y="479"/>
      <point x="506" y="622.667"/>
      <point x="378.667" y="622.667" type="curve" smooth="yes"/>
      <point x="236" y="622.667"/>
      <point x="183" y="469.667"/>
    </contour>
  </outline>
</glyph>
<glyph name="uni020F" format="2">
  <advance width="569"/>
  <unicode hex="020F"/>
  <outline>
    <contour>
      <point x="31.3333" y="241.333" type="curve" smooth="yes"/>
      <point x="31.3333" y="397.667"/>
      <point x="137" y="498.333"/>
      <point x="287" y="498.333" type="curve" smooth="yes"/>
      <point x="443.667" y="498.333"/>
      <point x="537.667" y="389"/>
      <point x="537.667" y="240.667" type="curve" smooth="yes"/>
      <point x="537.667" y="94.6667"/>
      <point x="438.667" y="-12.3333"/>
      <point x="281.333" y="-12.3333" type="curve" smooth="yes"/>
      <point x="133.333" y="-12.3333"/>
      <point x="31.3333" y="89.3333"/>
    </contour>
    <contour>
      <point x="133.5" y="558.333" type="line"/>
      <point x="133.5" y="646.875"/>
      <point x="188.201" y="716.667"/>
      <point x="287.167" y="716.667" type="curve" smooth="yes"/>
      <point x="386.742" y="716.667"/>
      <point x="440.5" y="647.35"/>
      <point x="440.5" y="558.333" type="curve"/>
      <point x="392.833" y="558.333" type="line"/>
      <point x="380.167" y="615.206"/>
      <point x="337.167" y="639.667"/>
      <point x="286.833" y="639.667" type="curve" smooth="yes"/>
      <point x="237.536" y="639.667"/>
      <point x="194.094" y="615.206"/>
      <point x="181.5" y="558.333" type="curve"/>
    </contour>
    <contour>
      <point x="166" y="244" type="curve" smooth="yes"/>
      <point x="166" y="156.667"/>
      <point x="189.333" y="41.3333"/>
      <point x="284.667" y="41.3333" type="curve" smooth="yes"/>
      <point x="378.667" y="41.3333"/>
      <point x="403.333" y="152"/>
      <point x="403.333" y="241.333" type="curve" smooth="yes"/>
      <point x="403.333" y="328"/>
      <point x="379" y="445.333"/>
      <point x="284.333" y="445.333" type="curve" smooth="yes"/>
      <point x="191" y="445.333"/>
      <point x="166" y="331.333"/>
    </contour>
  </outline>
</glyph>
<glyph name="uni0214" format="2">
  <advance width="723"/>
  <unicode hex="0214"/>
  <outline>
    <contour>
      <point x="25" y="622.667" type="line"/>
      <point x="25" y="671" type="line"/>
      <point x="307" y="671" type="line"/>
      <point x="307" y="622.667" type="line"/>
      <point x="252" y="618" type="line" smooth="yes"/>
      <point x="240.667" y="617"/>
      <point x="230.333" y="608.667"/>
      <point x="230.333" y="596" type="curve" smooth="yes"/>
      <point x="230.333" y="247" type="line" smooth="yes"/>
      <point x="230.333" y="121.333"/>
      <point x="278.667" y="62"/>
      <point x="394.667" y="62" type="curve" smooth="yes"/>
      <point x="506.667" y="62"/>
      <point x="550.333" y="133.333"/>
      <point x="550.333" y="247" type="curve" smooth="yes"/>
      <point x="550.333" y="596" type="line" smooth="yes"/>
      <point x="550.333" y="608.667"/>
      <point x="540.333" y="617"/>
      <point x="528.333" y="618" type="curve" smooth="yes"/>
      <point x="471.333" y="622.667" type="line"/>
      <point x="471.333" y="671" type="line"/>
      <point x="697" y="671" type="line"/>
      <point x="697" y="622.667" type="line"/>
      <point x="642.333" y="618" type="line" smooth="yes"/>
      <point x="631" y="617"/>
      <point x="620.667" y="608.667"/>
      <point x="620.667" y="596" type="curve" smooth="yes"/>
      <point x="620.667" y="243.667" type="line" smooth="yes"/>
      <point x="620.667" y="57"/>
      <point x="532.333" y="-15.6667"/>
      <point x="352.333" y="-15.6667" type="curve" smooth="yes"/>
      <point x="183.667" y="-15.6667"/>
      <point x="101" y="73"/>
      <point x="101" y="243.667" type="curve" smooth="yes"/>
      <point x="101" y="596" type="line" smooth="yes"/>
      <point x="101" y="608.667"/>
      <point x="90.6667" y="617"/>
      <point x="78.6667" y="618" type="curve" smooth="yes"/>
    </contour>
    <contour>
      <point x="40.5" y="879" type="curve" smooth="yes"/>
      <point x="40.5" y="909.833"/>
      <point x="62" y="929.333"/>
      <point x="94.1667" y="929.333" type="curve" smooth="yes"/>
      <point x="120.438" y="929.333"/>
      <point x="134.22" y="922.483"/>
      <point x="155.167" y="899" type="curve" smooth="yes"/>
      <point x="290.167" y="746.667" type="line"/>
      <point x="224.167" y="746.667" type="line"/>
      <point x="65.8333" y="837.667" type="line"/>
      <point x="51.8294" y="846.285"/>
      <point x="40.5" y="864.056"/>
    </contour>
    <contour>
      <point x="249.167" y="879" type="curve" smooth="yes"/>
      <point x="249.167" y="909.799"/>
      <point x="269.957" y="929.667"/>
      <point x="302.5" y="929.667" type="curve" smooth="yes"/>
      <point x="328.136" y="929.667"/>
      <point x="342.261" y="922.858"/>
      <point x="362.5" y="899.333" type="curve" smooth="yes"/>
      <point x="497.167" y="747" type="line"/>
      <point x="432.167" y="747" type="line"/>
      <point x="274.833" y="838" type="line"/>
      <point x="259.805" y="846.172"/>
      <point x="249.167" y="863.62"/>
    </contour>
  </outline>
</glyph>
<glyph name="uni021B" format="2">
  <advance width="363"/>
  <unicode hex="021B"/>
  <outline>
    <contour>
      <point x="25" y="426.667" type="line"/>
      <point x="25" y="464.333" type="line"/>
      <point x="99" y="505.667" type="line"/>
      <point x="150" y="611.667" type="line"/>
      <point x="210.667" y="611.667" type="line"/>
      <point x="210.667" y="486" type="line"/>
      <point x="350.333" y="486" type="line"/>
      <point x="350.333" y="426.667" type="line"/>
      <point x="210.667" y="426.667" type="line"/>
      <point x="210.667" y="152.333" type="line" smooth="yes"/>
      <point x="210.667" y="88"/>
      <point x="235.667" y="58"/>
      <point x="292" y="58" type="curve" smooth="yes"/>
      <point x="322.641" y="58"/>
      <point x="352.052" y="64.8789"/>
      <point x="358" y="68.3333" type="curve"/>
      <point x="358" y="21.6667" type="line"/>
      <point x="346" y="16"/>
      <point x="278.667" y="-12"/>
      <point x="206.667" y="-12" type="curve" smooth="yes"/>
      <point x="121.667" y="-12"/>
      <point x="90.3333" y="25.3333"/>
      <point x="90.3333" y="107.333" type="curve" smooth="yes"/>
      <point x="90.3333" y="426.667" type="line"/>
    </contour>
    <contour>
      <point x="134.333" y="-126.333" type="curve" smooth="yes"/>
      <point x="134.333" y="-90.6667"/>
      <point x="164.667" y="-72"/>
      <point x="198" y="-72" type="curve" smooth="yes"/>
      <point x="247.333" y="-72"/>
      <point x="279" y="-108.333"/>
      <point x="279" y="-156" type="curve" smooth="yes"/>
      <point x="279" y="-226.555"/>
      <point x="216.694" y="-271.384"/>
      <point x="143.667" y="-285" type="curve"/>
      <point x="143.667" y="-248.333" type="line"/>
      <point x="185" y="-236.333"/>
      <point x="214.333" y="-209.333"/>
      <point x="214.333" y="-168" type="curve"/>
      <point x="152.667" y="-168" type="line"/>
      <point x="141.333" y="-157.333"/>
      <point x="134.333" y="-142.333"/>
    </contour>
  </outline>
</glyph>
<glyph name="uni021C" format="2">
  <advance width="542"/>
  <unicode hex="021C"/>
  <outline>
    <contour>
      <point x="37" y="485" type="line"/>
      <point x="37" y="636.667" type="line"/>
      <point x="118.983" y="676"/>
      <point x="185.948" y="686.333"/>
      <point x="257.667" y="686.333" type="curve" smooth="yes"/>
      <point x="382.589" y="686.333"/>
      <point x="483" y="620.214"/>
      <point x="483" y="519.333" type="curve" smooth="yes"/>
      <point x="483" y="441.715"/>
      <point x="437.914" y="381.868"/>
      <point x="346.667" y="326" type="curve"/>
      <point x="438.17" y="306.587"/>
      <point x="501.333" y="247.48"/>
      <point x="501.333" y="166" type="curve" smooth="yes"/>
      <point x="501.333" y="22.6097"/>
      <point x="300.837" y="-96.2849"/>
      <point x="59.3333" y="-161" type="curve"/>
      <point x="59.3333" y="-95.3337" type="line"/>
      <point x="242.529" y="-38.5157"/>
      <point x="362.667" y="60.5203"/>
      <point x="362.667" y="156" type="curve" smooth="yes"/>
      <point x="362.667" y="218.833"/>
      <point x="332.549" y="278.284"/>
      <point x="263.333" y="281.333" type="curve"/>
      <point x="220.771" y="261.238"/>
      <point x="175.543" y="243.837"/>
      <point x="127.333" y="227" type="curve"/>
      <point x="127.333" y="292.667" type="line"/>
      <point x="265.544" y="342.816"/>
      <point x="347.667" y="422.205"/>
      <point x="347.667" y="506" type="curve" smooth="yes"/>
      <point x="347.667" y="579.447"/>
      <point x="297.656" y="623.333"/>
      <point x="234.667" y="623.333" type="curve" smooth="yes"/>
      <point x="189.219" y="623.333"/>
      <point x="147.513" y="608.585"/>
      <point x="122.667" y="583.667" type="curve"/>
      <point x="105.667" y="485" type="line"/>
    </contour>
  </outline>
</glyph>
<glyph name="uni0221" format="2">
  <advance width="663"/>
  <unicode hex="0221"/>
  <outline>
    <contour>
      <point x="32" y="229.667" type="curve" smooth="yes"/>
      <point x="32" y="397.04"/>
      <point x="138.071" y="498"/>
      <point x="291.667" y="498" type="curve" smooth="yes"/>
      <point x="327" y="498"/>
      <point x="365.667" y="491.333"/>
      <point x="384" y="486" type="curve"/>
      <point x="384" y="654.333" type="line"/>
      <point x="309.333" y="654.333" type="line"/>
      <point x="309.333" y="692.667" type="line"/>
      <point x="456.333" y="739" type="line"/>
      <point x="503.667" y="739" type="line"/>
      <point x="503.667" y="177.333" type="line"/>
      <point x="532.265" y="191.632"/>
      <point x="562.836" y="200.667"/>
      <point x="596.333" y="200.667" type="curve" smooth="yes"/>
      <point x="650.667" y="200.667"/>
      <point x="682" y="162.667"/>
      <point x="682" y="117" type="curve" smooth="yes"/>
      <point x="682" y="24"/>
      <point x="608" y="-15"/>
      <point x="526.333" y="-15" type="curve" smooth="yes"/>
      <point x="482" y="-15"/>
      <point x="434.667" y="-4.66667"/>
      <point x="408.333" y="37.3333" type="curve"/>
      <point x="366.715" y="-13.3333"/>
      <point x="334.502" y="-73.3333"/>
      <point x="311.333" y="-123" type="curve"/>
      <point x="264" y="-105.667" type="line"/>
      <point x="276.311" y="-65.3316"/>
      <point x="300.531" y="-20.19"/>
      <point x="327.333" y="18.6667" type="curve"/>
      <point x="299" y="2.66667"/>
      <point x="263" y="-12.6667"/>
      <point x="227" y="-12.6667" type="curve" smooth="yes"/>
      <point x="103.016" y="-12.6667"/>
      <point x="32" y="93.756"/>
    </contour>
    <contour>
      <point x="162.333" y="250" type="curve" smooth="yes"/>
      <point x="162.333" y="145.809"/>
      <point x="205.459" y="72.6667"/>
      <point x="297.667" y="72.6667" type="curve" smooth="yes"/>
      <point x="334" y="72.6667"/>
      <point x="362.314" y="83.3333"/>
      <point x="386.333" y="98.3333" type="curve"/>
      <point x="384.667" y="109.841"/>
      <point x="383.667" y="121.349"/>
      <point x="383.667" y="140" type="curve" smooth="yes"/>
      <point x="383.667" y="426.333" type="line"/>
      <point x="367.333" y="433"/>
      <point x="338" y="441.333"/>
      <point x="308.667" y="441.333" type="curve" smooth="yes"/>
      <point x="209.288" y="441.333"/>
      <point x="162.333" y="356.724"/>
    </contour>
    <contour>
      <point x="504.667" y="125.667" type="curve"/>
      <point x="504.667" y="79.5232"/>
      <point x="514.863" y="30.3333"/>
      <point x="549" y="30.3333" type="curve" smooth="yes"/>
      <point x="589.001" y="30.3333"/>
      <point x="624" y="67.4285"/>
      <point x="624" y="104.667" type="curve" smooth="yes"/>
      <point x="624" y="133"/>
      <point x="606.667" y="145"/>
      <point x="577" y="145" type="curve" smooth="yes"/>
      <point x="549.667" y="145"/>
      <point x="526" y="137.333"/>
    </contour>
  </outline>
</glyph>
